<svg width="48" height="48" viewBox="0 0 48 48" fill="none" xmlns="http://www.w3.org/2000/svg">
<path d="M25.3652 33.4777C22.1612 33.4777 19.4335 32.7727 18.3595 31.7834C18.1172 33.5347 18.0512 36.6637 20.1152 38.7277C20.1152 38.7277 20.5765 35.8597 22.7402 36.4777C24.0527 36.8527 23.6777 38.7277 23.6777 40.1339C23.6777 40.8839 23.8652 42.4777 26.8652 43.9777C26.8652 43.9777 25.3652 40.2277 29.8652 37.9777C33.0137 36.4034 32.857 33.3652 32.4797 31.6799C31.489 32.7239 28.681 33.4777 25.3652 33.4777Z" fill="url(#paint0_linear_186_1227)"/>
<path d="M30.1867 4.80005H20.6535L13.4399 29.6297L20.6535 28.1949L23.3024 16.2109C23.7019 14.7482 23.8574 9.02749 25.3721 9.0114H25.3969L25.4217 9.01225C26.9521 9.04188 27.1805 12.521 27.5379 14.0439L30.7145 28.1949L37.4399 29.76L30.1867 4.80005Z" fill="url(#paint1_linear_186_1227)"/>
<defs>
<linearGradient id="paint0_linear_186_1227" x1="25.459" y1="31.6582" x2="25.459" y2="43.8914" gradientUnits="userSpaceOnUse">
<stop stop-color="#F4511E"/>
<stop offset="1" stop-color="#8E1177"/>
</linearGradient>
<linearGradient id="paint1_linear_186_1227" x1="25.4391" y1="4.75603" x2="25.4391" y2="29.584" gradientUnits="userSpaceOnUse">
<stop/>
</linearGradient>
</defs>
</svg>
