<svg width="48" height="48" viewBox="0 0 48 48" fill="none" xmlns="http://www.w3.org/2000/svg">
<g clip-path="url(#clip0_186_404)">
<path d="M41.178 24.86C40.296 24.86 39.64 25.49 39.266 26.244C39.246 26.224 39.21 26.19 39.19 26.168C38.458 22.04 37.83 18.226 36.536 14.156C36.228 13.372 35.938 12.448 35.154 12.004L27.686 12.01C27.242 12.156 26.896 12.684 26.766 12.99C25.134 16.822 24.644 21.112 23.912 24.65C23.846 24.608 23.832 24.528 23.794 24.366C23.264 22.018 22.636 16.682 20.896 12.886C20.728 12.518 20.42 12.204 20.032 12.002C19.516 12.012 13.28 12.016 12.568 12.016C12.292 12.132 11.986 12.394 11.84 12.722C9.97195 16.88 9.34595 21.782 8.61995 25.624C8.59195 25.646 8.54795 25.684 8.51995 25.702C8.10595 25.154 7.44595 24.872 6.77395 24.872L0.00195312 24.906C3.98595 26.576 3.11995 32.274 4.56595 35.144C4.73995 35.49 5.00595 35.924 5.42395 35.982C6.24595 35.982 12.392 35.998 12.392 35.998C13.08 35.798 13.336 35.064 13.55 34.504C14.93 30.886 15.61 26.154 16.344 22.394C16.362 22.404 16.388 22.42 16.404 22.43C17.176 26.388 17.804 30.566 19.126 34.212C19.354 34.842 19.806 35.982 20.594 35.982C20.594 35.982 27.56 35.992 27.556 35.994H27.56C28.516 35.384 28.75 34.09 29.128 33.056C30.134 29.534 30.66 26.476 31.412 22.408C31.446 22.43 31.474 22.464 31.48 22.508C32.398 26.73 32.618 31.202 34.656 35.236C34.894 35.706 35.126 35.976 35.66 35.976C38.054 35.976 40.294 35.99 42.614 35.988C45.838 33.192 43.044 26.38 48 24.88C46.606 24.878 42.61 24.86 41.178 24.86Z" fill="#E27ED7"/>
<path d="M19.5478 12.0061C17.9558 12.0121 13.1858 12.0141 12.5678 12.0141C12.2918 12.1321 11.9858 12.3941 11.8398 12.7221C9.97176 16.8801 9.34576 21.7821 8.61976 25.6241C7.83176 29.3261 6.98976 34.4761 5.40576 35.9741C5.41176 35.9761 5.41776 35.9801 5.42376 35.9801C6.24576 35.9801 12.3918 35.9961 12.3918 35.9961C13.0798 35.7961 13.3358 35.0621 13.5498 34.5021C14.9298 30.8841 15.6098 26.1521 16.3438 22.3921C17.6878 15.3141 18.7038 12.4041 19.5478 12.0061Z" fill="#FF66DB"/>
<path d="M34.6442 12.0039L27.6862 12.0079C27.2422 12.1539 26.8962 12.6819 26.7662 12.9879C25.1342 16.8199 24.6442 21.1099 23.9122 24.6479C22.3142 31.9439 21.7862 34.8119 20.5742 35.9719C20.5802 35.9719 20.5862 35.9779 20.5922 35.9779C20.5922 35.9779 27.5582 35.9879 27.5542 35.9899H27.5582C28.5142 35.3799 28.7482 34.0859 29.1262 33.0519C30.1322 29.5299 30.6582 26.4719 31.4102 22.4039C32.5202 16.5019 33.4862 12.6559 34.6442 12.0039Z" fill="#FF66DB"/>
<path d="M48.0002 24.8781C46.6062 24.8781 42.6102 24.8601 41.1782 24.8601C40.2962 24.8601 39.6402 25.4901 39.2662 26.2441C39.2642 26.2481 39.2622 26.2501 39.2602 26.2541C37.6782 30.4101 38.1402 34.4041 35.6582 35.9761C38.0522 35.9761 40.2942 35.9901 42.6142 35.9881C45.8362 33.1901 43.0442 26.3761 48.0002 24.8781Z" fill="#FF66DB"/>
</g>
<defs>
<clipPath id="clip0_186_404">
<rect width="48" height="48" fill="white"/>
</clipPath>
</defs>
</svg>
