<svg width="40" height="42" viewBox="0 0 40 42" fill="none" xmlns="http://www.w3.org/2000/svg">
<path d="M26.4941 0.648118L0.927734 2.49968C0.919914 2.50024 0.912101 2.50089 0.904297 2.50163C0.891239 2.50333 0.878215 2.50528 0.865234 2.50749C0.841011 2.51052 0.816906 2.51442 0.792969 2.51921C0.783164 2.52167 0.773397 2.52427 0.763672 2.52702C0.752561 2.52944 0.741491 2.53204 0.730469 2.53484C0.706092 2.54173 0.681986 2.54955 0.658203 2.55827C0.642415 2.56439 0.626785 2.5709 0.611328 2.57781C0.602156 2.58158 0.59304 2.58548 0.583984 2.58952C0.531463 2.61377 0.481144 2.64252 0.433594 2.67546C0.425053 2.68054 0.416589 2.68575 0.408203 2.69109C0.387395 2.70657 0.367198 2.72286 0.347656 2.73991C0.343718 2.74379 0.339811 2.74769 0.335938 2.75163C0.319169 2.76606 0.302884 2.78105 0.287109 2.79656C0.2771 2.80741 0.267332 2.81848 0.257812 2.82976C0.24293 2.8462 0.2286 2.86314 0.214844 2.88054C0.209554 2.88698 0.204345 2.8935 0.199219 2.90007C0.184111 2.92035 0.169778 2.9412 0.15625 2.96257C0.15227 2.96904 0.148363 2.97555 0.144531 2.9821C0.131367 3.00312 0.118988 3.02462 0.107422 3.04656C0.102726 3.0556 0.0981677 3.06472 0.09375 3.0739C0.0830486 3.0976 0.0732756 3.1217 0.0644531 3.14616C0.0631397 3.14876 0.0618376 3.15137 0.0605469 3.15398C0.0403917 3.21046 0.0253572 3.26863 0.015625 3.32781C0.0135064 3.33819 0.011553 3.34861 0.00976562 3.35906C0.00608836 3.38563 0.00348209 3.41235 0.00195312 3.43913V3.44304C0.000803398 3.46125 0.000152096 3.47948 0 3.49773V29.236C0 30.2616 0.315154 31.2646 0.904297 32.1051C0.919697 32.1273 0.935987 32.1488 0.953125 32.1696L7.12695 39.5993C7.18653 39.7065 7.26531 39.8018 7.35938 39.8805L7.75 40.3493C7.79959 40.409 7.85596 40.4628 7.91797 40.5094C8.50508 41.0791 9.31717 41.4153 10.1934 41.3591L37.1934 39.6169C38.7624 39.5154 40 38.1948 40 36.6227V10.6305C40 9.70708 39.5655 8.8884 38.9043 8.33757C38.8575 8.28398 38.8051 8.23553 38.748 8.19304L38.2637 7.83562C38.2031 7.77792 38.1355 7.72805 38.0625 7.68718L29.8242 1.61101C28.8651 0.903215 27.6827 0.561881 26.4941 0.648118ZM26.6387 2.64226C27.3521 2.5905 28.0619 2.79618 28.6367 3.22038L34.7676 7.74382L9.74219 9.38249C8.88057 9.43873 8.03769 9.11992 7.42578 8.50945H7.42383L3.25391 4.33757L26.6387 2.64226ZM2 5.91179L6.01172 9.92351L7 10.9118V36.3161L2.53906 30.9469C2.18993 30.4452 2 29.849 2 29.236V5.91179ZM36.9355 9.63249C37.5267 9.59455 38 10.0389 38 10.6305V36.6227C38 37.1587 37.5994 37.5862 37.0645 37.6208L10.0645 39.363C9.77086 39.3818 9.50636 39.2812 9.31445 39.1032L9.3125 39.1012L9.31055 39.0993C9.30647 39.0955 9.3048 39.0895 9.30078 39.0856C9.29693 39.0804 9.29302 39.0752 9.28906 39.07C9.11224 38.8912 9 38.6472 9 38.3649V12.3727C9 11.8353 9.39999 11.4093 9.93555 11.3747L36.9355 9.63249ZM33.4961 14.4977L28.4219 14.779C27.6479 14.859 26.7461 15.4357 26.7461 16.3727L28.9961 16.5602V27.2516L21.2148 15.2497L15.3828 15.5778C14.2918 15.6578 13.9941 16.4687 13.9941 17.4997H16.2441V33.0641C16.2441 33.0641 15.1918 33.3481 14.8398 33.4391C14.0918 33.6321 13.9941 34.2826 13.9941 34.7516C13.9941 34.7516 17.7467 34.5633 19.4727 34.4333C21.4317 34.2833 21.4961 32.9704 21.4961 32.9704L19.2461 32.5016V20.9684C19.2461 20.9684 24.9658 30.1581 26.7148 32.8591C27.5378 34.1281 28.1524 34.3766 29.2344 34.3766C30.1224 34.3766 30.9621 34.1143 31.9941 33.5563V16.195C31.9941 16.195 32.1842 16.1849 32.7832 15.9919C33.4662 15.7709 33.4961 15.1537 33.4961 14.4977Z" fill="black"/>
</svg>
