<svg width="48" height="48" viewBox="0 0 48 48" fill="none" xmlns="http://www.w3.org/2000/svg">
<path fill-rule="evenodd" clip-rule="evenodd" d="M24.042 4.03198C35.065 4.03198 44 12.967 44 23.99C44 35.012 35.065 43.948 24.042 43.948C13.02 43.948 4.08398 35.013 4.08398 23.99C4.08498 12.967 13.02 4.03198 24.042 4.03198Z" fill="#F06292"/>
<path fill-rule="evenodd" clip-rule="evenodd" d="M36.5608 12.574C35.6568 9.02904 29.7798 7.86404 24.2178 9.84004C20.9078 11.016 17.3238 12.862 14.7468 15.272C11.6828 18.138 11.1948 20.632 11.3958 21.674C12.1058 25.351 17.1448 27.755 19.2158 29.539V29.55C18.6048 29.851 14.1348 32.113 13.0888 34.426C11.9848 36.866 13.2648 38.617 14.1118 38.853C16.7368 39.583 19.4298 38.27 20.8778 36.111C22.2748 34.027 22.1588 31.337 21.5518 29.998C22.3888 29.777 23.3658 29.678 24.6058 29.823C28.1068 30.232 28.7938 32.418 28.6618 33.333C28.5308 34.248 27.7958 34.751 27.5508 34.903C27.3048 35.055 27.2308 35.108 27.2508 35.22C27.2808 35.384 27.3938 35.378 27.6038 35.343C27.8918 35.294 29.4418 34.599 29.5088 32.91C29.5928 30.766 27.5388 28.368 23.9008 28.43C22.4028 28.456 21.4608 28.598 20.7798 28.852C20.7298 28.795 20.6778 28.738 20.6258 28.681C18.3768 26.281 14.2188 24.584 14.3948 21.358C14.4588 20.185 14.8668 17.097 22.3838 13.351C28.5418 10.282 33.4718 11.127 34.3238 12.998C35.5408 15.672 31.6888 20.641 25.2938 21.358C22.8568 21.631 21.5738 20.687 21.2548 20.335C20.9188 19.965 20.8688 19.948 20.7438 20.018C20.5398 20.131 20.6688 20.458 20.7438 20.653C20.9348 21.15 21.7188 22.031 23.0538 22.47C24.2288 22.856 27.0898 23.067 30.5498 21.729C34.4238 20.229 37.4498 16.059 36.5608 12.574ZM20.0758 30.638C20.3658 31.712 20.3338 32.714 20.0348 33.621C20.0018 33.722 19.9648 33.821 19.9248 33.92C19.8848 34.018 19.8418 34.116 19.7958 34.212C19.5648 34.692 19.2538 35.141 18.8738 35.556C17.7138 36.821 16.0938 37.299 15.3998 36.896C14.6498 36.461 15.0258 34.678 16.3698 33.256C17.8158 31.727 19.8968 30.744 19.8968 30.744L19.8938 30.738C19.9538 30.705 20.0148 30.672 20.0758 30.638Z" fill="white"/>
</svg>
