<svg width="66" height="80" viewBox="0 0 66 80" fill="none" xmlns="http://www.w3.org/2000/svg">
<path d="M48.6875 0.625H9.3125C7.86268 0.625 6.6875 1.80018 6.6875 3.25V29.5H51.3125V3.25C51.3125 1.80018 50.1373 0.625 48.6875 0.625Z" fill="#2387C3"/>
<path d="M38.1875 0.625H9.3125C7.86268 0.625 6.6875 1.80018 6.6875 3.25V29.5H40.8125V3.25C40.8125 1.80018 39.6373 0.625 38.1875 0.625Z" fill="#2387C3"/>
<path d="M35.5625 0.625H9.3125C7.86268 0.625 6.6875 1.80018 6.6875 3.25V29.5H38.1875V3.25C38.1875 1.80018 37.0123 0.625 35.5625 0.625Z" fill="#5AD7FF"/>
<path d="M48.6875 29.5H40.8125V3.25H47.375C48.0998 3.25 48.6875 3.83767 48.6875 4.5625V29.5Z" fill="#A5C3DC"/>
<path d="M30.3124 13.75C30.3124 9.29802 26.6182 5.70899 22.128 5.88093C18.1113 6.03482 14.8128 9.26111 14.5765 13.2738C14.4345 15.6878 15.3811 17.8824 16.9707 19.4156C17.9316 20.3425 18.4999 21.6024 18.4999 22.9375H26.3749V22.9365C26.3749 21.6204 26.9117 20.3603 27.8651 19.4532C29.3725 18.0191 30.3124 15.9949 30.3124 13.75Z" fill="#FAA019"/>
<path d="M22.4375 26.875C20.2629 26.875 18.5 25.1121 18.5 22.9375H26.375C26.375 25.1121 24.6121 26.875 22.4375 26.875Z" fill="#D7E6F0"/>
<path d="M19.8125 13.75C21.2622 13.75 22.4375 12.5747 22.4375 11.125C22.4375 9.67525 21.2622 8.5 19.8125 8.5C18.3628 8.5 17.1875 9.67525 17.1875 11.125C17.1875 12.5747 18.3628 13.75 19.8125 13.75Z" fill="#FFCD05"/>
<path d="M2.75 79.375H39.5V45.25H18.5L2.75 79.375Z" fill="#555A6E"/>
<path d="M0.125 34.75C0.125 50.6972 13.0528 63.625 29 63.625V34.75H0.125Z" fill="#555A6E"/>
<path d="M39.5 55.75H26.375V61C26.375 69.3237 31.9101 76.3535 39.5 78.6126V55.75Z" fill="#463C4B"/>
<path d="M29 58.375C23.201 58.375 18.5 53.674 18.5 47.875V45.25C18.5 39.451 23.201 34.75 29 34.75C34.799 34.75 39.5 39.451 39.5 45.25V47.875C39.5 53.674 34.799 58.375 29 58.375Z" fill="#463C4B"/>
<path d="M62.6 48.925L57.875 42.625V34.75V32.125C57.875 30.6752 56.6998 29.5 55.25 29.5H2.75C1.30018 29.5 0.125 30.6752 0.125 32.125V34.75H29C34.799 34.75 39.5 39.451 39.5 45.25H29V61C29 69.6984 36.0516 76.75 44.75 76.75H55.25C56.6998 76.75 57.875 75.5748 57.875 74.125V61H63.125C64.5748 61 65.75 59.8248 65.75 58.375C65.75 54.9671 64.6447 51.6512 62.6 48.925Z" fill="#D7E6F0"/>
<path d="M47.375 45.25H52.625V40C49.7255 40 47.375 42.3505 47.375 45.25Z" fill="#555A6E"/>
<path d="M53.9375 63.625H57.875V66.25H53.9375C53.2127 66.25 52.625 65.6623 52.625 64.9375C52.625 64.2127 53.2127 63.625 53.9375 63.625Z" fill="#A5C3DC"/>
<path d="M29 55.75C34.799 55.75 39.5 51.049 39.5 45.25C39.5 39.451 34.799 34.75 29 34.75C23.201 34.75 18.5 39.451 18.5 45.25C18.5 51.049 23.201 55.75 29 55.75Z" fill="#2387C3"/>
<path d="M21.125 47.875C19.6753 47.875 18.5 46.6998 18.5 45.25C18.5 39.4602 23.2102 34.75 29 34.75C30.4498 34.75 31.625 35.9252 31.625 37.375C31.625 38.8248 30.4498 40 29 40C26.1051 40 23.75 42.3551 23.75 45.25C23.75 46.6998 22.5747 47.875 21.125 47.875Z" fill="#5AD7FF"/>
<path d="M29 50.5C31.8995 50.5 34.25 48.1495 34.25 45.25C34.25 42.3505 31.8995 40 29 40C26.1005 40 23.75 42.3505 23.75 45.25C23.75 48.1495 26.1005 50.5 29 50.5Z" fill="#FFCD05"/>
</svg>
