<svg width="80" height="64" viewBox="0 0 80 64" fill="none" xmlns="http://www.w3.org/2000/svg">
<path d="M76.75 0.5H3.25C1.80018 0.5 0.625 1.67518 0.625 3.125V60.875C0.625 62.3248 1.80018 63.5 3.25 63.5H76.75C78.1998 63.5 79.375 62.3248 79.375 60.875V3.125C79.375 1.67518 78.1998 0.5 76.75 0.5Z" fill="#78D2F0"/>
<path d="M64.13 35.3553L58.375 29.6003V21.4615C58.375 20.0117 57.1996 18.8365 55.75 18.8365H47.6112L41.856 13.0815C40.831 12.0565 39.1688 12.0565 38.1438 13.0815L32.3886 18.8365H24.25C22.8003 18.8365 21.625 20.0117 21.625 21.4615V29.6003L15.87 35.3553C14.8448 36.3804 14.8448 38.0425 15.87 39.0676L21.625 44.8227V52.9615C21.625 54.4114 22.8003 55.5865 24.25 55.5865H32.3888L38.1438 61.3415C38.6361 61.8339 39.3037 62.1103 40 62.1103C40.6963 62.1103 41.3638 61.8337 41.856 61.3415L47.6112 55.5865H55.75C57.1996 55.5865 58.375 54.4114 58.375 52.9615V44.8227L64.13 39.0677C65.1552 38.0425 65.1552 36.3804 64.13 35.3553Z" fill="#FAA019"/>
<path d="M40 52.9614C48.6985 52.9614 55.75 45.9099 55.75 37.2114C55.75 28.5129 48.6985 21.4614 40 21.4614C31.3015 21.4614 24.25 28.5129 24.25 37.2114C24.25 45.9099 31.3015 52.9614 40 52.9614Z" fill="#F06423"/>
<path d="M40 24.0864C32.7512 24.0864 26.875 29.9627 26.875 37.2114H37.375C38.8248 37.2114 40 36.0362 40 34.5864V24.0864Z" fill="#FAA019"/>
<path d="M63.0403 30.294C62.0102 30.294 61.0329 29.6838 60.614 28.6729C60.0593 27.3335 60.6954 25.798 62.0346 25.2431L63.2116 24.7557C64.5514 24.2009 66.0867 24.8369 66.6413 26.1763C67.196 27.5157 66.56 29.0512 65.2207 29.6061L64.0437 30.0935C63.7153 30.2295 63.375 30.294 63.0403 30.294Z" fill="#FFD205"/>
<path d="M15.785 49.8677C14.7548 49.8677 13.7775 49.2576 13.3586 48.2466C12.804 46.9072 13.44 45.3717 14.7793 44.8169L15.9562 44.3294C17.296 43.7746 18.8313 44.4107 19.386 45.7501C19.9407 47.0895 19.3046 48.6249 17.9654 49.1798L16.7884 49.6672C16.4599 49.8032 16.1197 49.8677 15.785 49.8677Z" fill="#FFD205"/>
<path d="M49.5426 16.7979C49.2077 16.7979 48.8676 16.7336 48.5392 16.5974C47.1998 16.0427 46.5637 14.5071 47.1184 13.1677L47.6058 11.9907C48.1605 10.6513 49.696 10.015 51.0356 10.5699C52.375 11.1246 53.011 12.6602 52.4564 13.9996L51.9689 15.1766C51.5501 16.1876 50.5726 16.7979 49.5426 16.7979Z" fill="#FFD205"/>
<path d="M30.4579 16.7978C29.4278 16.7978 28.4505 16.1875 28.0316 15.1765L27.5442 13.9996C26.9895 12.6601 27.6256 11.1247 28.965 10.5698C30.3045 10.0151 31.8398 10.6512 32.3947 11.9906L32.8821 13.1676C33.4368 14.507 32.8008 16.0425 31.4613 16.5973C31.1331 16.7333 30.7926 16.7978 30.4579 16.7978Z" fill="#FFD205"/>
<path d="M16.9599 30.294C16.6251 30.294 16.285 30.2295 15.9563 30.0935L14.7794 29.6061C13.44 29.0514 12.8039 27.5157 13.3587 26.1763C13.9136 24.8369 15.4487 24.2009 16.7885 24.7557L17.9655 25.2431C19.3049 25.7978 19.9409 27.3335 19.3861 28.6729C18.9674 29.6837 17.9899 30.294 16.9599 30.294Z" fill="#FFD205"/>
<path d="M64.2153 49.8677C63.8804 49.8677 63.5403 49.8032 63.2117 49.6672L62.0347 49.1798C60.6953 48.6251 60.0593 47.0895 60.6141 45.7501C61.169 44.4107 62.7039 43.7746 64.0438 44.3294L65.2208 44.8169C66.5602 45.3716 67.1963 46.9072 66.6414 48.2466C66.2228 49.2574 65.2453 49.8677 64.2153 49.8677Z" fill="#FFD205"/>
<path d="M71.0562 58.25C61.0405 58.25 51.2133 55.528 42.625 50.375C34.0367 45.222 24.2093 42.5 14.1938 42.5H0.625V60.875C0.625 62.3248 1.80018 63.5 3.25 63.5H76.75C78.1998 63.5 79.375 62.3248 79.375 60.875V58.25H71.0562Z" fill="#5FAA46"/>
<path d="M53.6297 58.1891C49.3122 56.8261 45.1552 54.9545 41.2744 52.6259C33.0958 47.7188 23.7316 45.125 14.1938 45.125H0.625V42.5H14.1938C24.2072 42.5 34.0385 45.2231 42.625 50.375C46.3299 52.5979 50.2982 54.3847 54.4199 55.6859L53.6297 58.1891Z" fill="#91C83C"/>
<path d="M3.25 63.5H8.94379C18.9593 63.5 28.7867 60.778 37.375 55.625C45.9633 50.472 55.7907 47.75 65.8062 47.75H79.375V60.875C79.375 62.3248 78.1998 63.5 76.75 63.5H3.25Z" fill="#4B8C41"/>
<path d="M47.1062 6.5188L41.8562 1.2688C40.8311 0.243734 39.169 0.243734 38.144 1.2688L32.894 6.5188C32.1432 7.26955 31.9186 8.39863 32.3248 9.37956C32.7312 10.3605 33.6885 11 34.7502 11H37.3752V16.25C37.3752 17.6998 38.5505 18.875 40.0002 18.875C41.4498 18.875 42.6252 17.6998 42.6252 16.25V11H45.2502C46.3118 11 47.2691 10.3605 47.6753 9.37956C48.0817 8.39863 47.8571 7.26955 47.1062 6.5188Z" fill="#F04938"/>
<path d="M74.125 8.375C74.0504 8.375 73.9769 8.38009 73.9038 8.38616C73.3664 6.85119 71.9059 5.75 70.1875 5.75C68.3211 5.75 66.7591 7.04905 66.3535 8.79188C65.9447 8.52922 65.4595 8.375 64.9375 8.375C63.4877 8.375 62.3125 9.55018 62.3125 11C62.3125 11.4221 62.4145 11.8197 62.5916 12.1729L59.6875 13.625H74.125C75.5748 13.625 76.75 12.4498 76.75 11C76.75 9.55018 75.5748 8.375 74.125 8.375Z" fill="#D7E6F0"/>
<path d="M17.6875 8.375C17.6129 8.375 17.5394 8.38009 17.4663 8.38616C16.9289 6.85119 15.4684 5.75 13.75 5.75C11.8836 5.75 10.3216 7.04905 9.91602 8.79188C9.50718 8.52922 9.02205 8.375 8.5 8.375C7.05018 8.375 5.875 9.55018 5.875 11C5.875 11.4221 5.97705 11.8197 6.15407 12.1729L3.25 13.625H17.6875C19.1373 13.625 20.3125 12.4498 20.3125 11C20.3125 9.55018 19.1373 8.375 17.6875 8.375Z" fill="#D7E6F0"/>
</svg>
