<svg width="80" height="80" viewBox="0 0 80 80" fill="none" xmlns="http://www.w3.org/2000/svg">
<path d="M50.5 62.3125H32.125V43.9375H53.125V59.6875C53.125 61.1373 51.9498 62.3125 50.5 62.3125Z" fill="#F0915A"/>
<path d="M77.4062 51.8125H2.59375C1.50651 51.8125 0.625 50.931 0.625 49.8438V45.9062C0.625 44.819 1.50651 43.9375 2.59375 43.9375H77.4062C78.4935 43.9375 79.375 44.819 79.375 45.9062V49.8438C79.375 50.931 78.4935 51.8125 77.4062 51.8125Z" fill="#F06423"/>
<path d="M40 49.1875C38.5502 49.1875 37.375 48.0123 37.375 46.5625V41.3125C37.375 39.8627 38.5502 38.6875 40 38.6875C41.4498 38.6875 42.625 39.8627 42.625 41.3125V46.5625C42.625 48.0123 41.4498 49.1875 40 49.1875Z" fill="#FAB991"/>
<path d="M45.25 49.1875C43.8002 49.1875 42.625 48.0123 42.625 46.5625V41.3125C42.625 39.8627 43.8002 38.6875 45.25 38.6875C46.6998 38.6875 47.875 39.8627 47.875 41.3125V46.5625C47.875 48.0123 46.6998 49.1875 45.25 49.1875Z" fill="#FAB991"/>
<path d="M50.5 46.5625C49.0502 46.5625 47.875 45.3873 47.875 43.9375V41.3125C47.875 39.8627 49.0502 38.6875 50.5 38.6875C51.9498 38.6875 53.125 39.8627 53.125 41.3125V43.9375C53.125 45.3873 51.9498 46.5625 50.5 46.5625Z" fill="#FAB991"/>
<path d="M34.75 49.1875C33.3002 49.1875 32.125 48.0123 32.125 46.5625V41.3125C32.125 39.8627 33.3002 38.6875 34.75 38.6875C36.1998 38.6875 37.375 39.8627 37.375 41.3125V46.5625C37.375 48.0123 36.1998 49.1875 34.75 49.1875Z" fill="#FAB991"/>
<path d="M50.5 62.3125H32.125V79.375H50.5V62.3125Z" fill="#F0915A"/>
<path d="M32.125 62.3125V42.625C32.125 40.4504 30.3621 38.6875 28.1875 38.6875C27.4627 38.6875 26.875 39.2752 26.875 40V57.0625C26.875 59.962 29.2255 62.3125 32.125 62.3125Z" fill="#FAB991"/>
<path d="M32.125 51.8125V62.3125H42.625C42.625 56.5135 37.924 51.8125 32.125 51.8125Z" fill="#FAB991"/>
<path d="M50.5 74.125H32.125C31.4002 74.125 30.8125 73.5373 30.8125 72.8125V66.25C30.8125 65.5252 31.4002 64.9375 32.125 64.9375H50.5C51.2248 64.9375 51.8125 65.5252 51.8125 66.25V72.8125C51.8125 73.5373 51.2248 74.125 50.5 74.125Z" fill="#64AFE1"/>
<path d="M42.625 74.125H50.5C51.2248 74.125 51.8125 73.5373 51.8125 72.8125V67.5625H43.9375C43.2127 67.5625 42.625 68.1502 42.625 68.875V74.125Z" fill="#4182C3"/>
<path d="M2.59375 43.9375C1.50651 43.9375 0.625 44.819 0.625 45.9062C0.625 46.9935 1.50651 47.875 2.59375 47.875H24.25V43.9375H2.59375Z" fill="#FAA019"/>
<path d="M77.4062 43.9375H74.125V47.875H77.4062C78.4935 47.875 79.375 46.9935 79.375 45.9062C79.375 44.819 78.4935 43.9375 77.4062 43.9375Z" fill="#FAA019"/>
<path d="M16.375 29.5H21.625C23.0748 29.5 24.25 30.6752 24.25 32.125V63.625C24.25 65.0748 23.0748 66.25 21.625 66.25H16.375C14.9252 66.25 13.75 65.0748 13.75 63.625V32.125C13.75 30.6752 14.9252 29.5 16.375 29.5Z" fill="#463C4B"/>
<path d="M8.5 34.75H11.125C12.5748 34.75 13.75 35.9252 13.75 37.375V58.375C13.75 59.8248 12.5748 61 11.125 61H8.5C7.05018 61 5.875 59.8248 5.875 58.375V37.375C5.875 35.9252 7.05018 34.75 8.5 34.75Z" fill="#463C4B"/>
<path d="M16.375 29.5H21.625V47.875C21.625 49.3248 20.4498 50.5 19 50.5H16.375C14.9252 50.5 13.75 49.3248 13.75 47.875V32.125C13.75 30.6752 14.9252 29.5 16.375 29.5Z" fill="#555A6E"/>
<path d="M8.5 34.75H11.125V47.875C11.125 49.3248 9.94982 50.5 8.5 50.5C7.05018 50.5 5.875 49.3248 5.875 47.875V37.375C5.875 35.9252 7.05018 34.75 8.5 34.75Z" fill="#555A6E"/>
<path d="M63.625 29.5H58.375C56.9252 29.5 55.75 30.6752 55.75 32.125V63.625C55.75 65.0748 56.9252 66.25 58.375 66.25H63.625C65.0748 66.25 66.25 65.0748 66.25 63.625V32.125C66.25 30.6752 65.0748 29.5 63.625 29.5Z" fill="#463C4B"/>
<path d="M71.5 34.75H68.875C67.4252 34.75 66.25 35.9252 66.25 37.375V58.375C66.25 59.8248 67.4252 61 68.875 61H71.5C72.9498 61 74.125 59.8248 74.125 58.375V37.375C74.125 35.9252 72.9498 34.75 71.5 34.75Z" fill="#463C4B"/>
<path d="M63.625 29.5H58.375C56.9252 29.5 55.75 30.6752 55.75 32.125V47.875C55.75 49.3248 56.9252 50.5 58.375 50.5H61C62.4498 50.5 63.625 49.3248 63.625 47.875V29.5Z" fill="#555A6E"/>
<path d="M68.875 34.75H71.5V47.875C71.5 49.3248 70.3248 50.5 68.875 50.5C67.4252 50.5 66.25 49.3248 66.25 47.875V37.375C66.25 35.9252 67.4252 34.75 68.875 34.75Z" fill="#555A6E"/>
<path d="M61.7688 13.75H59.6875V3.25C59.6875 1.80034 58.5122 0.625 57.0625 0.625H46.5625C45.1128 0.625 43.9375 1.80034 43.9375 3.25V13.75H41.8562C40.831 13.75 40 14.581 40 15.606C40 16.0984 40.1956 16.5704 40.5437 16.9185L46.9471 23.3219C47.5411 23.9161 48.3472 24.25 49.1875 24.25H54.4375C55.2778 24.25 56.0839 23.9161 56.6781 23.3219L63.0815 16.9185C63.4296 16.5704 63.6252 16.0984 63.6252 15.606C63.625 14.581 62.794 13.75 61.7688 13.75Z" fill="#F06423"/>
<path d="M56.5188 13.75H54.4375V3.25C54.4375 1.80034 53.2622 0.625 51.8125 0.625H46.5625C45.1128 0.625 43.9375 1.80034 43.9375 3.25V13.75H41.8562C40.831 13.75 40 14.581 40 15.606C40 16.0984 40.1956 16.5704 40.5437 16.9185L46.9471 23.3219C47.5411 23.9161 48.3472 24.25 49.1875 24.25C50.0278 24.25 50.8339 23.9161 51.4281 23.3219L57.8315 16.9185C58.1796 16.5704 58.3752 16.0984 58.3752 15.606C58.375 14.581 57.544 13.75 56.5188 13.75Z" fill="#FAA019"/>
<path d="M39.4565 7.95646L33.0531 1.5531C32.459 0.958867 31.653 0.625 30.8127 0.625H25.5627C24.7223 0.625 23.9163 0.958867 23.3221 1.5531L16.9187 7.95646C16.5706 8.3046 16.375 8.77661 16.375 9.26896C16.3752 10.294 17.2061 11.125 18.2314 11.125H20.3127V21.625C20.3127 23.0747 21.488 24.25 22.9377 24.25H33.4377C34.8873 24.25 36.0627 23.0747 36.0627 21.625V11.125H38.144C39.1692 11.125 40.0002 10.294 40.0002 9.26896C40.0002 8.77661 39.8046 8.30444 39.4565 7.95646Z" fill="#E1322D"/>
<path d="M34.2065 7.95646L27.8031 1.5531C27.209 0.958867 26.403 0.625 25.5627 0.625C24.7223 0.625 23.9163 0.958867 23.3221 1.5531L16.9187 7.95646C16.5706 8.3046 16.375 8.77661 16.375 9.26896C16.3752 10.294 17.2061 11.125 18.2314 11.125H20.3127V21.625C20.3127 23.0747 21.488 24.25 22.9377 24.25H28.1877C29.6373 24.25 30.8127 23.0747 30.8127 21.625V11.125H32.894C33.9192 11.125 34.7502 10.294 34.7502 9.26896C34.7502 8.77661 34.5546 8.30444 34.2065 7.95646Z" fill="#F04B37"/>
</svg>
