<?xml version="1.0" encoding="UTF-8" standalone="no"?>
<!-- Created with Inkscape (http://www.inkscape.org/) -->

<svg
   width="37.382679mm"
   height="43.603542mm"
   viewBox="0 0 37.382679 43.603542"
   version="1.1"
   id="svg1"
   xml:space="preserve"
   inkscape:version="1.4 (86a8ad7, 2024-10-11)"
   sodipodi:docname="crypto-nest-icon.svg"
   inkscape:export-filename="crypto-nest-logo.svg"
   inkscape:export-xdpi="96"
   inkscape:export-ydpi="96"
   xmlns:inkscape="http://www.inkscape.org/namespaces/inkscape"
   xmlns:sodipodi="http://sodipodi.sourceforge.net/DTD/sodipodi-0.dtd"
   xmlns="http://www.w3.org/2000/svg"
   xmlns:svg="http://www.w3.org/2000/svg"><sodipodi:namedview
     id="namedview1"
     pagecolor="#ffffff"
     bordercolor="#000000"
     borderopacity="0.25"
     inkscape:showpageshadow="2"
     inkscape:pageopacity="0.0"
     inkscape:pagecheckerboard="0"
     inkscape:deskcolor="#d1d1d1"
     inkscape:document-units="mm"
     showguides="true"
     inkscape:zoom="0.69670057"
     inkscape:cx="302.13841"
     inkscape:cy="306.44442"
     inkscape:window-width="1304"
     inkscape:window-height="745"
     inkscape:window-x="1912"
     inkscape:window-y="293"
     inkscape:window-maximized="1"
     inkscape:current-layer="g4"><sodipodi:guide
       position="5.9813985,-64.202527"
       orientation="1,0"
       id="guide5"
       inkscape:locked="false" /></sodipodi:namedview><defs
     id="defs1"><rect
       x="235.39523"
       y="47.366116"
       width="170.80508"
       height="272.71399"
       id="rect4" /><rect
       x="134.92166"
       y="104.77959"
       width="25.118395"
       height="14.353369"
       id="rect2" /></defs><g
     inkscape:label="Capa 1"
     inkscape:groupmode="layer"
     id="layer1"
     transform="translate(-1.5375886,-1.7551707)"><g
       id="g4"
       transform="matrix(0.11457152,0,0,0.11457152,2.3087294,79.923043)"
       inkscape:transform-center-x="-1.074141"
       inkscape:transform-center-y="-14.769439"
       style="display:inline"><g
         id="g5"><path
           d="m 231.31005,-629.96015 c 4.16332,3.49735 8.09093,7.22326 12,11 l 2.36328,2.20703 c 44.30465,42.41601 72.46025,117.14001 73.8164,177.48047 0.17306,12.55573 0.13588,24.9362 -2.17968,37.3125 l -0.3584,1.99707 c -2.96971,16.04249 -8.9421,31.79784 -18.6416,45.00293 l -1.79297,2.46094 c -22.52119,29.44006 -56.08904,43.74627 -92.0044,48.88159 -28.17978,3.73093 -58.00727,2.29686 -85.20263,-6.34253 -0.6969,-0.22027 -1.3938,-0.44054 -2.11182,-0.66748 -15.67834,-5.10742 -30.188969,-12.80192 -42.888182,-23.33252 -0.8598,-0.7077 -1.71961,-1.41539 -2.60547,-2.14453 -20.05809,-17.25929 -31.70879,-41.01789 -36.39453,-66.85547 -0.20367,-0.99902 -0.40734,-1.99805 -0.61719,-3.02734 -8.95895,-50.62421 9.04025,-108.85279 32.68311,-153.20605 0.95116,-1.79892 1.86863,-3.61218 2.78174,-5.43067 17.450003,-34.3212 45.396852,-69.81978 82.777342,-83.08594 1.45286,-0.43534 2.91133,-0.85249 4.375,-1.25 l 2.10937,-0.62109 c 26.24514,-6.56129 51.38324,3.59323 71.89063,19.62109 z"
           fill="#fe9f00"
           id="path2"
           sodipodi:nodetypes="ccccccccccccccccccccc" /><path
           d="m 176.31005,-650.96015 v 348 c -23.20511,0 -23.20511,0 -30.75,-1.25 l -2.62573,-0.40894 c -25.09861,-4.07872 -48.896659,-12.98228 -68.624272,-29.34106 -0.8598,-0.7077 -1.71961,-1.41539 -2.60547,-2.14453 -20.05809,-17.25929 -31.70879,-41.01789 -36.39453,-66.85547 -0.20367,-0.99902 -0.40734,-1.99805 -0.61719,-3.02734 -8.95895,-50.62421 9.04025,-108.85279 32.68311,-153.20605 0.95116,-1.79892 1.86863,-3.61218 2.78174,-5.43067 17.450003,-34.3212 45.396842,-69.81978 82.777342,-83.08594 8.04798,-2.45507 14.85065,-3.25 23.375,-3.25 z"
           fill="#fec300"
           id="path4"
           sodipodi:nodetypes="cccccccccccc" /><path
           d="m 169.31005,-649.96015 -2,1.5625 -3,2.4375 -1.79688,1.36719 c -38.33959,30.82503 -46.26774,103.25471 -52.51562,149.32031 l -0.44605,3.27856 c -2.62713,20.75112 -3.65046,41.50262 -3.61645,62.40894 l -3.7e-4,3.49664 c 0.0254,17.03726 0.57257,33.45685 4.37537,50.12836 0.24025,1.11883 0.24025,1.11883 0.48535,2.26025 0.94733,4.33139 2.12902,8.52958 3.51465,12.73975 0.2085,0.63374 0.41701,1.26747 0.63183,1.92041 6.95582,20.73117 16.88674,38.84856 36.36817,50.07959 2.59974,1.22485 5.16715,2.29949 7.8789,3.24609 2.14588,0.76272 4.09477,1.71995 6.1211,2.75391 -6.49059,0.13099 -12.64466,-0.30016 -19.0625,-1.25 l -2.77613,-0.40894 c -25.30267,-3.89119 -49.304389,-12.875 -69.161372,-29.34106 -0.859805,-0.7077 -1.719609,-1.41539 -2.605469,-2.14453 -20.058091,-17.25929 -31.708791,-41.01789 -36.394531,-66.85547 -0.20367,-0.99902 -0.40734,-1.99805 -0.61719,-3.02734 -8.95895,-50.62421 9.04025,-108.85279 32.68311,-153.20605 0.95116,-1.79892 1.86863,-3.61218 2.781736,-5.43067 17.452647,-34.3264 45.546826,-70.15991 83.089846,-83.14844 5.49975,-1.67856 10.27499,-2.30098 16.0625,-2.1875 z"
           fill="#fee300"
           id="path7"
           sodipodi:nodetypes="ccccccccccscccccccccccccc" /><path
           d="m 230.06396,-604.07343 c 9.34144,4.29279 14.88145,11.39057 19.93359,20.11328 l 1.53613,2.61304 c 18.42745,31.70304 39.75318,72.47274 37.77637,110.38696 -2,2 -2,2 -4.38672,2.06641 -3.8603,-1.57528 -4.77424,-4.53139 -6.42578,-8.12891 -12.05847,-24.39388 -29.69926,-46.35631 -46.43799,-67.6997 -27.93925,-35.73698 -27.93925,-35.73698 -26.74951,-47.2378 1.56944,-4.67266 4.0205,-9.15915 8.04688,-12.14843 5.31552,-2.31757 11.30815,-1.70321 16.70703,0.0352 z"
           fill="#ffc200"
           id="path9"
           sodipodi:nodetypes="cccccccccc" /><path
           d="m 292.57958,-433.46406 c 7.34003,2.9327 11.60324,7.74742 14.80859,14.76172 2.25349,6.70319 1.75248,12.64373 -1.14062,19.05469 -3.60699,6.41922 -8.94653,11.2201 -15.9375,13.6875 -7.49478,0.92401 -14.55459,-0.17989 -20.97657,-4.25391 -5.39625,-4.21367 -7.89449,-9.35925 -10.02343,-15.74609 -0.90845,-8.17603 1.28051,-14.26061 6,-21 8.01253,-7.08646 16.73675,-8.80625 27.26953,-6.50391 z"
           fill="#ffc200"
           id="path10"
           sodipodi:nodetypes="cccccccc" /><path
           d="m 17.686558,-682.26268 c 2.296239,0 4.59248,0 6.9583,0 0.19061,0.52472 0.38121,1.04945 0.5776,1.59007 1.87776,4.73258 3.38579,7.34992 8.12028,9.71717 1.14812,0.28703 2.29624,0.57406 3.47915,0.86978 0,2.58327 0,5.16654 0,7.82809 -0.9149,0.19733 -1.82982,0.39467 -2.77245,0.59798 -3.49593,1.01404 -5.41319,2.57644 -7.665,5.49054 -0.76533,2.76724 -0.76533,2.76724 -0.86979,5.21872 -2.8703,0 -5.7406,0 -8.697878,0 -0.179394,-1.07636 -0.358788,-2.15272 -0.543617,-3.2617 -0.761056,-3.04964 -1.129463,-3.63897 -3.642236,-5.8167 -2.467109,-1.20937 -4.409676,-1.90981 -7.121387,-2.22884 0,-2.58326 0,-5.16654 0,-7.82809 1.076362,-0.34085 2.152725,-0.68169 3.261704,-1.03287 3.474106,-1.31354 5.213786,-2.68064 7.175748,-5.92543 1.09208,-2.76524 1.09208,-2.76524 1.739576,-5.21872 z"
           fill="#fcfbfe"
           id="path12"
           style="fill:#ffb700;fill-opacity:1;stroke-width:0.869788" /><path
           d="m 57.864958,-645.03972 c 2.64001,0 5.28001,0 8.00001,0 0.21914,0.60328 0.43828,1.20656 0.66407,1.82812 2.15887,5.44107 3.89266,8.45023 9.33593,11.17187 1.32,0.33 2.64,0.66 4.000003,1 0,2.97 0,5.94 0,9 -1.051873,0.22687 -2.103753,0.45375 -3.187503,0.6875 -4.01929,1.16584 -6.22358,2.96214 -8.8125,6.3125 -0.8799,3.18151 -0.8799,3.18151 -1,6 -3.3,0 -6.6,0 -10.00001,0 -0.20625,-1.2375 -0.4125,-2.475 -0.625,-3.75 -0.87499,-3.50619 -1.29855,-4.18374 -4.1875,-6.6875 -2.83645,-1.39042 -5.06983,-2.19572 -8.1875,-2.5625 0,-2.97 0,-5.94 0,-9 1.2375,-0.39188 2.475,-0.78375 3.75,-1.1875 3.9942,-1.51018 5.99432,-3.08195 8.25,-6.81249 1.25557,-3.17922 1.25557,-3.17922 2,-6 z"
           fill="#fcfbfe"
           id="path12-8"
           style="fill:#ffb700;fill-opacity:1" /><path
           d="m 12.738274,-608.77135 h 11.125094 l 0.92347,2.54225 c 3.0022,7.56654 5.41328,11.75122 12.9829,15.53603 l 5.56255,1.39064 v 12.51573 l -4.43266,0.95606 c -5.58938,1.62126 -8.65475,4.11927 -12.25498,8.7784 -1.22363,4.42433 -1.22363,4.42433 -1.39064,8.34382 H 12.738274 l -0.972362,-2.59114 c -2.835162,-7.1548 -2.835162,-7.1548 -7.97987,-12.70586 -3.51643004,-1.37227 -6.782864,-2.24787 -10.516692,-2.78128 v -12.51573 l 5.214889,-1.65138 c 5.554483,-2.10012 8.335916,-4.28588 11.472755,-9.47372 1.746034,-4.42114 1.746034,-4.42114 2.78128,-8.34382 z"
           fill="#fcfbfe"
           id="path13"
           sodipodi:nodetypes="ccccccccccccccccc"
           style="fill:#ffb700;fill-opacity:1;stroke-width:1.39064" /></g><g
         id="g6"
         style="display:none"><text
           xml:space="preserve"
           style="font-style:normal;font-variant:normal;font-weight:normal;font-stretch:normal;font-size:31.3807px;font-family:'Leelawadee UI';-inkscape-font-specification:'Leelawadee UI';text-align:start;writing-mode:lr-tb;direction:ltr;text-anchor:start;fill:#ffb700;fill-opacity:1;stroke-width:0.259039;stroke-dasharray:none"
           x="88.67054"
           y="41.755325"
           id="text3"
           transform="matrix(6.3204804,0,0,12.053039,-172.62558,-863.31536)"><tspan
             sodipodi:role="line"
             id="tspan3"
             style="font-weight:bold;stroke-width:0.25904"
             x="88.67054"
             y="41.755325">CryptoNest</tspan></text><path
           d="m 1230.7643,-620.32696 h 11.1251 l 0.9234,2.54225 c 3.0022,7.56654 5.4133,11.75122 12.9829,15.53603 l 5.5626,1.39064 v 12.51573 l -4.4327,0.95606 c -5.5894,1.62126 -8.6547,4.11927 -12.255,8.7784 -1.2236,4.42433 -1.2236,4.42433 -1.3906,8.34382 h -12.5157 l -0.9724,-2.59114 c -2.8351,-7.1548 -2.8351,-7.1548 -7.9799,-12.70586 -3.5164,-1.37227 -6.7828,-2.24787 -10.5166,-2.78128 v -12.51573 l 5.2148,-1.65138 c 5.5545,-2.10012 8.336,-4.28588 11.4728,-9.47372 1.746,-4.42114 1.746,-4.42114 2.7813,-8.34382 z"
           fill="#fcfbfe"
           id="path13-5"
           sodipodi:nodetypes="ccccccccccccccccc"
           style="fill:#ffb700;fill-opacity:1;stroke-width:1.39064" /></g></g></g></svg>
