<svg width="24" height="24" viewBox="0 0 24 24" fill="none" xmlns="http://www.w3.org/2000/svg">
<path d="M18.0001 9C18.6298 8.52776 19.0949 7.86939 19.3296 7.11813C19.5642 6.36687 19.5566 5.56082 19.3077 4.81415C19.0588 4.06748 18.5813 3.41804 17.9428 2.95784C17.3043 2.49764 16.5372 2.25 15.7501 2.25H9.00013C8.21307 2.25 7.44596 2.49764 6.80747 2.95784C6.16897 3.41804 5.69146 4.06748 5.44257 4.81415C5.19368 5.56082 5.18603 6.36687 5.4207 7.11813C5.65538 7.86939 6.12048 8.52776 6.75013 9C6.27339 9.35728 5.88864 9.823 5.62774 10.3586C5.36684 10.8942 5.2373 11.4842 5.24986 12.0798C5.26241 12.6755 5.41669 13.2595 5.69993 13.7837C5.98316 14.3078 6.3872 14.7569 6.87857 15.0938C6.31966 15.5187 5.87847 16.0792 5.59675 16.7223C5.31504 17.3654 5.20213 18.0698 5.26873 18.7687C5.33532 19.4676 5.5792 20.138 5.97729 20.7163C6.37537 21.2947 6.91448 21.7618 7.54357 22.0735C8.17266 22.3853 8.87091 22.5313 9.5722 22.4978C10.2735 22.4642 10.9546 22.2522 11.5511 21.8819C12.1476 21.5115 12.6396 20.995 12.9807 20.3814C13.3218 19.7677 13.5005 19.0771 13.5001 18.375V15C14.2958 15.5967 15.2959 15.853 16.2805 15.7123C17.265 15.5717 18.1534 15.0456 18.7501 14.25C19.3469 13.4544 19.6031 12.4542 19.4624 11.4697C19.3218 10.4851 18.7958 9.59674 18.0001 9ZM18.0001 6C18.0001 6.59674 17.7631 7.16903 17.3411 7.59099C16.9192 8.01295 16.3469 8.25 15.7501 8.25H13.5001V3.75H15.7501C16.3469 3.75 16.9192 3.98705 17.3411 4.40901C17.7631 4.83097 18.0001 5.40326 18.0001 6ZM6.75013 6C6.75013 5.40326 6.98718 4.83097 7.40914 4.40901C7.8311 3.98705 8.40339 3.75 9.00013 3.75H12.0001V8.25H9.00013C8.40339 8.25 7.8311 8.01295 7.40914 7.59099C6.98718 7.16903 6.75013 6.59674 6.75013 6ZM9.00013 14.25C8.40339 14.25 7.8311 14.0129 7.40914 13.591C6.98718 13.169 6.75013 12.5967 6.75013 12C6.75013 11.4033 6.98718 10.831 7.40914 10.409C7.8311 9.98705 8.40339 9.75 9.00013 9.75H12.0001V14.25H9.00013ZM12.0001 18.375C12.0001 18.8942 11.8462 19.4017 11.5577 19.8334C11.2693 20.2651 10.8593 20.6015 10.3797 20.8002C9.90002 20.9989 9.37222 21.0508 8.86302 20.9496C8.35382 20.8483 7.88609 20.5983 7.51897 20.2312C7.15186 19.864 6.90185 19.3963 6.80057 18.8871C6.69928 18.3779 6.75127 17.8501 6.94994 17.3705C7.14863 16.8908 7.48508 16.4808 7.91676 16.1924C8.34844 15.904 8.85595 15.75 9.37513 15.75H12.0001V18.375ZM15.7501 14.25C15.3051 14.25 14.8701 14.118 14.5001 13.8708C14.1301 13.6236 13.8417 13.2722 13.6714 12.861C13.5011 12.4499 13.4565 11.9975 13.5434 11.561C13.6302 11.1246 13.8445 10.7237 14.1591 10.409C14.4738 10.0943 14.8747 9.88005 15.3112 9.79323C15.7476 9.70642 16.2 9.75097 16.6112 9.92127C17.0223 10.0916 17.3737 10.38 17.6209 10.75C17.8682 11.12 18.0001 11.555 18.0001 12C18.0001 12.5967 17.7631 13.169 17.3411 13.591C16.9192 14.0129 16.3469 14.25 15.7501 14.25Z" fill="#1E90FF"/>
</svg>
