<svg width="48" height="48" viewBox="0 0 48 48" fill="none" xmlns="http://www.w3.org/2000/svg">
<path d="M24 7.5C33.1125 7.5 40.5 14.8875 40.5 24C40.5 31.326 35.7232 37.5338 29.1157 39.687C29.1172 39.681 29.1203 39.6712 29.1203 39.6712C29.1203 39.6712 28.0065 39.1493 28.0305 38.2178C28.0568 37.1925 28.0305 34.8007 28.0305 33.9225C28.0305 32.415 27.0765 31.347 27.0765 31.347C27.0765 31.347 34.5592 31.431 34.5592 23.4473C34.5592 20.367 32.949 18.7635 32.949 18.7635C32.949 18.7635 33.795 15.4748 32.6565 14.0798C31.3808 13.9418 29.0948 15.2993 28.119 15.9338C28.119 15.9338 26.5725 15.2993 24 15.2993C21.4275 15.2993 19.881 15.9338 19.881 15.9338C18.9052 15.2993 16.62 13.9418 15.3435 14.0798C14.205 15.4748 15.051 18.7635 15.051 18.7635C15.051 18.7635 13.4407 20.3663 13.4407 23.4473C13.4407 31.431 20.9235 31.347 20.9235 31.347C20.9235 31.347 20.1698 32.199 20.0048 33.4515C19.4827 33.6285 18.714 33.8475 18.093 33.8475C16.4693 33.8475 15.234 32.2687 14.781 31.539C14.3348 30.819 13.4197 30.2145 12.5662 30.2145C12.0045 30.2145 11.73 30.4958 11.73 30.8167C11.73 31.1378 12.5175 31.362 13.0372 31.9575C14.133 33.213 14.1135 36.036 18.018 36.036C18.4418 36.036 19.3073 35.9317 19.959 35.844C19.9552 36.7327 19.9538 37.671 19.968 38.2192C19.9913 39.1507 18.8783 39.6727 18.8783 39.6727C18.8783 39.6727 18.8813 39.6818 18.8827 39.6885C12.2768 37.5337 7.5 31.326 7.5 24C7.5 14.8875 14.8875 7.5 24 7.5Z" fill="white"/>
</svg>
