<svg width="48" height="48" viewBox="0 0 48 48" fill="none" xmlns="http://www.w3.org/2000/svg">
<path d="M20.1001 16.1999L20.2001 18.4999L18.6001 21.4999L16.1001 26.3999L15.6001 30.4999L17.4001 36.2999L21.5001 38.5999H27.7001L33.5001 34.1999L36.1001 27.2999L30.1001 19.9999L28.4001 15.8999L20.1001 16.1999Z" fill="#ECEFF1"/>
<path d="M34.3 21.9001C32.7 19.6001 31.4 18.2001 30.7 15.3001C30 12.4001 30.9 13.2001 30.3 10.7001C30 9.40005 29.5 8.50005 29 7.80005C28.4 7.10005 27.7 6.70005 27.3 6.60005C26.4 6.10005 24.3 5.30005 21.7 6.70005C19 8.10005 19.3 11.1001 19.8 17.2001C19.8 17.6001 19.7 18.1001 19.5 18.5001C19.1 19.4001 18.4 20.2001 17.8 20.9001C17.1 21.9001 16.4 22.9001 15.9 24.0001C14.7 26.3001 13.6 29.2001 13.9 30.3001C14.4 30.2001 20.7 39.8 20.7 40C21.1 39.9001 22.8 39.9001 24.3 39.9001C26.4 39.8001 27.6 39.7 29.3 40.1C29.3 39.8 29.2 39.5 29.2 39.2001C29.2 38.6001 29.3 38.1001 29.4 37.4001C29.5 36.9001 29.6 36.4001 29.7 35.8001C28.7 36.7001 26.9 37.7001 25.2 38C23.7 38.3 21.2 37.8001 20 36.3001C20.1 36.3001 20.3 36.3001 20.4 36.2001C20.7 36.1001 21 36.0001 21.1 35.8001C21.4 35.3001 21.2 34.8001 21 34.5001C20.8 34.2001 19.3 33.1001 18.6 32.5001C17.9 31.9001 17.5 31.6001 17.1 31.2001C17.1 31.2001 16.5 30.6001 16.3 30.4001C16.1 30.2001 16 30.0001 15.9 29.9001C15.7 29.4001 15.6 28.8001 15.7 28.0001C15.8 26.9001 16.2 26.0001 16.7 25.0001C16.9 24.6001 17.4 23.8001 17.4 23.8001C17.4 23.8001 15.7 28.0001 16.6 29.3001C16.6 29.3001 16.7 28.0001 17.1 26.7001C17.4 25.8001 17.9 24.5001 18.5 23.8001C19.1 23.1 20.6 20.5001 20.7 18.9001C20.7 18.2001 20.8 17.5001 20.8 17.0001C20.4 16.6001 27.4 15.6001 27.8 16.7001C27.9 17.1001 29.3 20.7001 30.1 22.6001C30.5 23.5001 31 24.3001 31.3 25.3001C31.6 26.4001 31.8 27.9001 31.8 29.4001C31.8 29.7001 31.8 30.2001 31.7 30.7001C31.9 30.7001 35.8 26.5001 31.2 23.0001C31.2 23.0001 34 24.3001 34.1 26.9001C34.2 29.0001 33.3 30.7001 33.1 31.0001C33.2 31.0001 35.2 31.9001 35.3 31.9001C35.7 31.9001 36.5 31.6001 36.5 31.6001C36.6 31.3001 36.9 30.5001 36.9 30.2001C37.6 27.9001 35.9 24.2001 34.3 21.9001Z" fill="#263238"/>
<path d="M21.5998 11.2999C20.8818 11.2989 20.2998 12.1939 20.2988 13.2989C20.2988 14.4039 20.8798 15.2999 21.5978 15.2999H21.5998C22.3178 15.3009 22.8998 14.4059 22.9008 13.3009C22.9018 12.1959 22.3198 11.2999 21.6018 11.2999H21.5998ZM26.0998 10.8999C25.1608 10.8999 24.3998 11.9299 24.3998 13.1999C24.3998 14.4699 25.1608 15.4999 26.0998 15.4999C27.0388 15.4999 27.7998 14.4699 27.7998 13.1999C27.7998 11.9299 27.0388 10.8999 26.0998 10.8999Z" fill="#ECEFF1"/>
<path d="M20.9381 13.612C21.0211 14.27 21.3991 14.763 21.7831 14.715C22.1671 14.667 22.4101 14.094 22.3271 13.437C22.2441 12.779 21.8661 12.286 21.4821 12.334C21.0981 12.382 20.8551 12.955 20.9381 13.612Z" fill="#212121"/>
<path d="M26 12.3C25.448 12.3 25 12.881 24.999 13.599C24.999 14.317 25.446 14.899 25.998 14.9H25.999C26.551 14.9 26.999 14.319 27 13.601C27 12.883 26.552 12.301 26 12.3Z" fill="#212121"/>
<path d="M39.3002 35.6C38.9002 35.4 38.2002 35.1 37.6002 34.2C37.3002 33.7 37.4002 32.3 36.9002 31.7C36.6002 31.3 36.2002 31.5 36.1002 31.5C35.2002 31.7 33.1002 33.1 31.7002 31.5C31.5002 31.3 31.2002 31 30.7002 31C30.2002 31 30.0002 31.2 29.8002 31.6C29.6002 32 29.6002 32.3 29.6002 33.3C29.6002 34.1 29.6002 35 29.5002 35.7C29.3002 37.4 29.0002 38.4 29.0002 39.4C29.0002 40.5 29.3002 41.2 29.7002 41.5C30.0002 41.8 30.5002 42 31.6002 42C32.7002 42 33.4002 41.6 34.1002 40.9C34.6002 40.4 35.0002 40.2 36.4002 39.2C37.5002 38.5 39.2002 37.6 39.5002 37.3C39.7002 37.1 40.0002 37 40.0002 36.4C40.0002 35.9 39.6002 35.7 39.3002 35.6ZM19.2002 35.9C18.2002 34.3 18.1002 34 17.4002 33C16.8002 32 15.5002 30.1 14.7002 30.1C14.1002 30.1 13.8002 30.4 13.4002 30.8C13.0002 31.2 12.6002 32.1 11.9002 32.6C11.3002 33.1 9.60024 33 9.20024 33.6C8.80024 34.2 9.60024 35.1 9.60024 36.6C9.60024 37.2 9.10024 37.6 9.00024 38C8.90024 38.5 8.80024 38.8 9.00024 39.2C9.40024 39.8 9.90024 40 13.3002 40.7C15.1002 41.1 16.8002 42.1 17.9002 42.2C19.0002 42.3 20.9002 42.2 20.9002 39.5C21.0002 37.9 20.1002 37.5 19.2002 35.9ZM21.1002 17.8C20.5002 17.4 20.0002 17 20.0002 16.4C20.0002 15.8 20.4002 15.6 21.0002 15.1C21.1002 15 22.2002 14 23.3002 14C24.4002 14 25.7002 14.7 26.2002 14.9C27.1002 15.1 28.0002 15.3 27.9002 16C27.8002 17 27.7002 17.2 26.7002 17.7C26.0002 17.9 24.7002 19 23.8002 19C23.4002 19 22.8002 19 22.4002 18.9C22.1002 18.8 21.6002 18.3 21.1002 17.8Z" fill="#FFC107"/>
<path d="M20.9 17C21.1 17.2 21.4 17.4 21.7 17.5C21.9 17.6 22.2 17.7 22.2 17.7C22.6 17.7 22.9 17.7 23.1 17.7C23.6 17.7 24.3 17.5 25 17.1C25.7 16.8 25.8 16.6 26.3 16.4C26.8 16.1 27.3 15.8 27.1 15.7C26.9 15.6 26.7 15.7 26 16.1C25.4 16.5 24.9 16.7 24.3 17C24 17.1 23.6 17.3 23.3 17.3C23 17.3 22.7 17.3 22.4 17.3C22.1 17.3 21.9 17.2 21.6 17.1C21.4 17 21.3 16.9 21.2 16.9C21 16.8 20.6 16.4 20.4 16.3C20.4 16.3 20.2 16.3 20.3 16.4C20.6 16.7 20.7 16.8 20.9 17ZM23.9 14.8C24 15 24.2 15 24.3 15.1C24.4 15.2 24.5 15.2 24.5 15.2C24.6 15.1 24.5 14.9 24.4 14.9C24.4 14.7 23.9 14.7 23.9 14.8ZM22.3 15C22.3 15.1 22.5 15.2 22.5 15.1C22.6 15 22.7 14.9 22.8 14.9C23 14.8 22.9 14.7 22.6 14.7C22.4 14.8 22.4 14.9 22.3 15Z" fill="#634703"/>
<path d="M32.0001 32.7C32.0001 32.8 32.0001 32.9 32.0001 33C32.2001 33.4 32.7001 33.5 33.1001 33.5C33.7001 33.5 34.3001 33.1 34.6001 32.7C34.6001 32.6 34.7001 32.5 34.8001 32.4C35.0001 32.1 35.1001 31.9 35.2001 31.8C35.2001 31.8 35.1001 31.7 35.1001 31.6C35.0001 31.4 34.7001 31.2 34.3001 31.1C34.0001 31 33.5001 30.9 33.3001 30.9C32.4001 30.8 31.9001 31.1 31.6001 31.4C31.6001 31.4 31.7001 31.4 31.7001 31.5C31.9001 31.7 32.0001 31.9 32.0001 32.2C32.1001 32.4 32.0001 32.5 32.0001 32.7Z" fill="#455A64"/>
</svg>
