<svg width="48" height="48" viewBox="0 0 48 48" fill="none" xmlns="http://www.w3.org/2000/svg">
<path d="M24 34C11.1 34 1 29.6 1 24C1 18.4 11.1 14 24 14C36.9 14 47 18.4 47 24C47 29.6 36.9 34 24 34ZM24 16C11.4 16 3 20.1 3 24C3 27.9 11.4 32 24 32C36.6 32 45 27.9 45 24C45 20.1 36.6 16 24 16Z" fill="#80DEEA"/>
<path d="M15.1001 44.6C14.1001 44.6 13.3001 44.4 12.5001 43.9C7.60008 41.1 8.90008 30.2 15.3001 19C18.3001 13.8 22.0001 9.39996 25.6001 6.59996C29.5001 3.59996 33.0001 2.69996 35.4001 4.09996C37.9001 5.49996 38.8001 8.99996 38.2001 13.9C37.6001 18.5 35.6001 23.9 32.6001 29.1C29.6001 34.3 25.9001 38.7 22.3001 41.5C19.7001 43.5 17.2001 44.6 15.1001 44.6ZM32.9001 5.39996C31.3001 5.39996 29.2001 6.29996 26.9001 8.09996C23.5001 10.8 20.0001 15 17.1001 20C10.8001 30.9 10.2001 40.3 13.5001 42.2C15.2001 43.2 18.0001 42.3 21.1001 39.9C24.5001 37.2 28.0001 33 30.9001 28C33.8001 23 35.7001 17.9 36.3001 13.6C36.8001 9.59996 36.2001 6.79996 34.5001 5.79996C34.0001 5.59996 33.5001 5.39996 32.9001 5.39996Z" fill="#80DEEA"/>
<path d="M33.0001 44.6001C28.0001 44.6001 20.8001 38.5001 15.4001 29.0001C8.90006 17.8001 7.60006 6.90007 12.5001 4.10007C17.4001 1.30007 26.2001 7.80007 32.7001 19.0001C35.7001 24.2001 37.7001 29.6001 38.3001 34.2001C39.0001 39.1001 38.0001 42.5001 35.5001 44.0001C34.7001 44.4001 33.9001 44.6001 33.0001 44.6001ZM13.5001 5.80007C10.2001 7.70007 10.8001 17.1001 17.1001 28.0001C23.4001 38.9001 31.2001 44.1001 34.5001 42.2001C36.2001 41.2001 36.8001 38.4001 36.3001 34.4001C35.7001 30.1001 33.8001 25.0001 30.9001 20.0001C24.6001 9.10007 16.8001 3.90007 13.5001 5.80007Z" fill="#80DEEA"/>
<path d="M24 28C26.2091 28 28 26.2091 28 24C28 21.7909 26.2091 20 24 20C21.7909 20 20 21.7909 20 24C20 26.2091 21.7909 28 24 28Z" fill="#80DEEA"/>
</svg>
