<svg width="48" height="48" viewBox="0 0 48 48" fill="none" xmlns="http://www.w3.org/2000/svg">
<path d="M44.0002 11.1099V36.8899C44.0002 38.1599 43.2102 39.2899 42.0202 39.7099L33.2002 43.8499L34.0002 32.9999V14.9999L33.2002 4.1499L42.0202 8.2899C43.2102 8.7099 44.0002 9.8399 44.0002 11.1099Z" fill="#29B6F6"/>
<path d="M8.99992 33.8961L33.9999 15.0001V5.35309C33.9999 4.15509 32.5179 3.59509 31.7249 4.49309L4.65792 29.2391C3.75792 30.0691 3.80892 31.5061 4.76492 32.2711C4.76492 32.2711 6.08892 33.5031 6.56792 33.8451C7.30392 34.3701 8.27092 34.4301 8.99992 33.8961Z" fill="#0277BD"/>
<path d="M8.99992 14.1039L33.9999 32.9999V42.6469C33.9999 43.8449 32.5179 44.4049 31.7249 43.5069L4.65792 18.7609C3.75792 17.9309 3.80892 16.4939 4.76492 15.7289C4.76492 15.7289 6.08892 14.4969 6.56792 14.1549C7.30392 13.6299 8.27092 13.5699 8.99992 14.1039Z" fill="#0288D1"/>
</svg>
