<?xml version="1.0" encoding="UTF-8"?>
<svg version="1.1" xmlns="http://www.w3.org/2000/svg" width="512" height="181">
<path d="M0 0 C1.38616312 1.1744501 2.76589408 2.35684153 4.125 3.5625 C0.00880164 8.48185902 -4.27910362 13.08897956 -8.875 17.5625 C-9.55304688 17.10359375 -10.23109375 16.6446875 -10.9296875 16.171875 C-23.29105024 8.02227851 -34.99331611 3.63778845 -49.9375 6.05859375 C-62.44085142 8.88141671 -73.12453878 15.31838163 -80.1875 26.25 C-86.98902909 38.65947508 -89.08209176 51.59425555 -85.25 65.3125 C-80.58812166 78.75833858 -72.71281255 88.31400717 -59.875 94.5625 C-49.40133735 98.87518462 -35.89813935 99.45800726 -25.17578125 95.6015625 C-13.59072422 90.36960126 -6.49036382 84.336772 -1.8203125 72.4296875 C-0.70757774 69.24879489 -0.70757774 69.24879489 0.125 64.5625 C-13.735 64.5625 -27.595 64.5625 -41.875 64.5625 C-41.875 58.2925 -41.875 52.0225 -41.875 45.5625 C-21.745 45.5625 -1.615 45.5625 19.125 45.5625 C23.23111211 61.98694842 18.63132285 79.37307353 10.125 93.5625 C8.34665201 96.22035704 6.47119653 98.39388257 4.125 100.5625 C3.41859375 101.21605469 2.7121875 101.86960937 1.984375 102.54296875 C-12.13459704 114.68073019 -29.35658804 118.85328183 -47.61279297 117.77392578 C-66.66086572 115.99369364 -82.44064774 106.49703065 -94.83984375 92.1953125 C-103.93617407 80.42769899 -108.05055512 67.13772472 -108.125 52.5 C-108.1559375 51.01983398 -108.1559375 51.01983398 -108.1875 49.50976562 C-108.27232712 33.31839004 -101.51486081 17.39440722 -90.36083984 5.6640625 C-65.75585146 -18.51511849 -27.08968501 -21.45868307 0 0 Z " fill="#0F8CF7" transform="translate(107.875,19.4375)"/>
<path d="M0 0 C3.125 2.25 3.125 2.25 5 4 C5.33 2.02 5.66 0.04 6 -2 C11.94 -2 17.88 -2 24 -2 C24.06800994 9.00575166 24.12295063 20.01136178 24.15543652 31.01727676 C24.17103486 36.12878532 24.19216564 41.24014157 24.22631836 46.3515625 C24.25912099 51.29233021 24.27689677 56.23295222 24.28463173 61.1738205 C24.29013794 63.05070028 24.30088934 64.92757288 24.31719017 66.80438995 C24.44332439 81.94087803 24.00070538 96.29116459 13.11328125 108.03515625 C4.16604974 116.31442156 -6.23681247 119.56931691 -18.3671875 119.24609375 C-31.2911412 118.0380684 -40.9156395 113.07583767 -49.30859375 103.24609375 C-53.93685039 97.10002546 -53.93685039 97.10002546 -54.12109375 93.890625 C-52.30408548 90.82640199 -49.24629048 89.98691365 -46.0625 88.75 C-45.09280273 88.3478125 -45.09280273 88.3478125 -44.10351562 87.9375 C-39.34378986 86 -39.34378986 86 -37 86 C-36.04791518 87.37949132 -35.16284822 88.80557288 -34.3125 90.25 C-31.37997851 94.83251516 -28.90200783 96.73753485 -24 99 C-23.01 99.495 -23.01 99.495 -22 100 C-13.71085873 100.71481815 -7.81526778 100.12158273 -1.25 94.75 C4.26715974 88.00680476 4.59679643 81.46727495 5 73 C4.43152344 73.40992188 3.86304688 73.81984375 3.27734375 74.2421875 C-5.25607491 80.19706062 -12.61408781 81.99521026 -23 81 C-34.05591884 78.76619543 -44.35270014 72.71794152 -50.72265625 63.24609375 C-57.12243661 51.99265733 -59.65096116 40.5603957 -56.8515625 27.7578125 C-53.13215022 15.71237639 -46.59378967 6.35423545 -35.5234375 0.25390625 C-24.06649833 -5.43909294 -11.46260509 -6.41385842 0 0 Z M-31.49609375 20.25 C-37.46482654 27.19543451 -38.6571566 35.1283859 -38 44 C-36.60142271 50.83880592 -32.77550845 56.13669494 -27.25390625 60.32421875 C-21.54099184 63.70920961 -15.4732547 63.98581911 -9 63 C-2.59357612 60.6752609 1.62971988 55.77603929 5 50 C8.01482065 42.46294838 7.92302866 34.78531541 5.109375 27.20703125 C2.06721065 21.15483809 -2.53924933 16.24148493 -9 14 C-17.74395819 11.99318992 -24.89764932 14.12615366 -31.49609375 20.25 Z " fill="#0F8CF7" transform="translate(374,56)"/>
<path d="M0 0 C9.64651479 8.02946896 15.09345236 18.59813761 16.24609375 31.05078125 C16.70280396 42.98233548 12.96714517 54.16472203 5.40234375 63.3125 C-2.43968868 71.71985455 -11.95166236 75.9302733 -23.32421875 77.00390625 C-36.07670024 77.44218444 -47.35773934 74.26696432 -56.97265625 65.6875 C-65.7572447 56.76589024 -69.7499377 46.4910586 -70.22265625 34.0625 C-70.02551181 22.10837778 -65.97444587 12.09874744 -57.796875 3.36328125 C-41.82226603 -11.56290778 -17.7711676 -12.85437078 0 0 Z M-44.2421875 16.6875 C-49.61093381 22.89246188 -50.70108561 29.39048215 -50.41796875 37.46875 C-49.35917261 45.12180282 -45.7525309 50.71514887 -39.81640625 55.53125 C-33.80396039 59.30176689 -27.88777997 59.39789633 -20.97265625 58.6875 C-13.3358636 56.56546277 -9.03405521 51.12316493 -5.09765625 44.5625 C-2.78348552 38.35884956 -2.92091033 31.09983119 -4.8515625 24.8359375 C-7.80616775 18.38066135 -11.7270137 13.57684685 -18.28125 10.66015625 C-28.25608625 7.10590425 -36.64035521 9.40430739 -44.2421875 16.6875 Z " fill="#FEC010" transform="translate(294.97265625,60.3125)"/>
<path d="M0 0 C8.31619011 6.9408202 13.80201293 15.97292801 15.515625 26.73828125 C16.69072366 40.64937571 14.04870462 52.40374036 5.21875 63.5703125 C-3.3428941 72.63947674 -14.62039145 76.78324269 -26.96875 77.1953125 C-39.45980466 76.76506506 -49.62982298 72.54928839 -58.7421875 64.0390625 C-67.30580593 54.82339191 -70.53266571 43.21398973 -70.28125 30.87890625 C-69.01311839 17.95981549 -63.26773777 7.79172599 -53.47265625 -0.51171875 C-37.53489001 -11.92425339 -15.7640933 -11.36613974 0 0 Z M-44.30859375 16.92578125 C-50.0262995 23.02018291 -50.39000962 29.24061003 -50.30859375 37.30078125 C-49.6155049 44.22370324 -46.58681175 49.54761967 -41.46875 54.1953125 C-35.27639901 59.21929538 -28.65860845 59.48529796 -20.96875 58.6953125 C-14.72828993 56.96127451 -10.47988327 53.03311012 -6.96875 47.6953125 C-3.17554166 40.93910745 -2.85958566 33.48076369 -4.58984375 26.015625 C-6.79005656 19.58122486 -10.2214185 15.33158551 -15.96875 11.6953125 C-26.76701632 6.73059235 -35.78831664 8.87979392 -44.30859375 16.92578125 Z " fill="#FE4D3E" transform="translate(203.96875,60.3046875)"/>
<path d="M0 0 C1.010625 0.53625 2.02125 1.0725 3.0625 1.625 C10.91018362 7.96993569 16.91214433 15.28644397 20 25 C20 26.32 20 27.64 20 29 C15.18452941 31.00854436 10.36884369 33.01657183 5.55297852 35.02416992 C3.92303997 35.70372375 2.29315503 36.38340618 0.66333008 37.06323242 C-4.09162601 39.04654384 -8.84801024 41.02637445 -13.60565186 43.00323486 C-16.04340825 44.01807082 -18.4790219 45.03793688 -20.91455078 46.05810547 C-22.46510516 46.70425543 -24.01572111 47.35025766 -25.56640625 47.99609375 C-26.28674545 48.29927017 -27.00708466 48.60244659 -27.74925232 48.91481018 C-32.77290549 51 -32.77290549 51 -35 51 C-30.77533574 57.6279412 -30.77533574 57.6279412 -24.1796875 61.59375 C-17.26758145 62.88202783 -10.40262799 63.41190703 -4.3125 59.5 C-3.71050781 59.0359375 -3.10851562 58.571875 -2.48828125 58.09375 C-1 57 -1 57 1 57 C1.268125 56.360625 1.53625 55.72125 1.8125 55.0625 C3 53 3 53 6 52 C8.50973885 53.39949349 10.82169398 54.82628407 13.1875 56.4375 C13.84169922 56.87126953 14.49589844 57.30503906 15.16992188 57.75195312 C16.78608033 58.82545983 18.39386099 59.9115597 20 61 C18.22538483 64.80618818 16.08933065 67.11662473 13 70 C12.24203125 70.74830078 12.24203125 70.74830078 11.46875 71.51171875 C2.8186076 79.61102661 -7.73467151 81.38575782 -19.2265625 81.27734375 C-28.82542302 80.57183744 -36.91245995 77.49300026 -44 71 C-44.61488281 70.47535156 -45.22976563 69.95070313 -45.86328125 69.41015625 C-53.65886577 62.31567355 -57.52048159 52.79440702 -58.25390625 42.40234375 C-58.70773319 31.06080856 -57.32735815 19.83581132 -49.7578125 10.83984375 C-36.56532991 -2.96828803 -17.89560153 -9.86154535 0 0 Z M-32.90234375 19.90234375 C-36.8639659 24.94881108 -39 29.49168425 -39 36 C-31.13674867 33.51463577 -23.55960875 30.45292227 -15.9375 27.3125 C-14.67784451 26.79595529 -13.41807962 26.2796773 -12.15820312 25.76367188 C-9.1043863 24.51172398 -6.05169618 23.25710616 -3 22 C-4.56702097 17.6008402 -5.71675412 16.0396409 -10 14 C-18.301049 10.95628203 -26.80972 13.80972 -32.90234375 19.90234375 Z " fill="#FE4E3F" transform="translate(492,56)"/>
<path d="M0 0 C6.27 0 12.54 0 19 0 C19 40.92 19 81.84 19 124 C12.73 124 6.46 124 0 124 C0 83.08 0 42.16 0 0 Z " fill="#0DAD54" transform="translate(408,10)"/>
<path d="M0 0 C0.66 0.33 1.32 0.66 2 1 C-3.28 6.28 -8.56 11.56 -14 17 C-14 12.76251447 -12.09797742 11.56198728 -9.25 8.5 C-7.92742188 7.06140625 -7.92742188 7.06140625 -6.578125 5.59375 C-4.47126074 3.47411686 -2.44936235 1.69395153 0 0 Z " fill="#6CB8FA" transform="translate(26,18)"/>
<path d="M0 0 C0.66 0.33 1.32 0.66 2 1 C-2.29 5.29 -6.58 9.58 -11 14 C-11 10.30159372 -10.17133056 9.68584567 -7.75 7 C-7.14671875 6.319375 -6.5434375 5.63875 -5.921875 4.9375 C-4.06233388 3.06284066 -2.15205789 1.52358081 0 0 Z " fill="#FED563" transform="translate(244,58)"/>
<path d="M0 0 C0.66 0.33 1.32 0.66 2 1 C-1.63 4.63 -5.26 8.26 -9 12 C-9.66 11.67 -10.32 11.34 -11 11 C-9.92173635 9.72486237 -8.83714481 8.45507431 -7.75 7.1875 C-7.14671875 6.47980469 -6.5434375 5.77210937 -5.921875 5.04296875 C-4.07629602 3.08110329 -2.20054668 1.54330375 0 0 Z " fill="#72BBFA" transform="translate(335,58)"/>
</svg>
