<?xml version="1.0" encoding="UTF-8"?>
<svg version="1.1" xmlns="http://www.w3.org/2000/svg" width="128" height="128">
<path d="M0 0 C1.21640671 -0.00095673 2.43281342 -0.00191345 3.68608093 -0.00289917 C6.24506685 -0.00357592 8.80405454 -0.00175709 11.36303711 0.00244141 C15.24011168 0.00778273 19.11706968 0.00248628 22.99414062 -0.00390625 C25.496094 -0.00324511 27.99804731 -0.0019632 30.5 0 C32.21005974 -0.00303635 32.21005974 -0.00303635 33.95466614 -0.00613403 C62.66795118 0.07580258 62.66795118 0.07580258 69.7890625 6.89453125 C76.22037193 14.89828797 78.0913299 23.95070378 78.15234375 34.01953125 C78.15922211 34.78622131 78.16610046 35.55291138 78.17318726 36.34283447 C78.19041159 38.83537516 78.19665512 41.32771527 78.19921875 43.8203125 C78.2008905 44.66796173 78.20256226 45.51561096 78.20428467 46.38894653 C78.20959585 91.35922788 78.20959585 91.35922788 70.38671875 99.9453125 C64.12116815 104.58080116 55.85527117 104.33984114 48.38671875 104.4453125 C41.62100568 104.64133791 35.71918928 105.46332423 29.32421875 107.6953125 C17.93149279 111.64464187 10.23362188 110.21684793 -1.05078125 106.1328125 C-2.04078125 105.6378125 -2.04078125 105.6378125 -3.05078125 105.1328125 C-4.46535247 105.00493454 -5.885033 104.93082769 -7.3046875 104.88671875 C-8.58762695 104.83741211 -8.58762695 104.83741211 -9.89648438 104.78710938 C-11.68024037 104.72683868 -13.46409668 104.66945377 -15.24804688 104.61523438 C-23.46087671 104.2906408 -31.6477481 103.7735798 -38.05078125 98.1328125 C-41.33633411 92.04632582 -41.95490778 85.94565348 -42.67578125 79.1328125 C-42.80057861 78.0092334 -42.92537598 76.8856543 -43.05395508 75.72802734 C-43.40152026 72.53098116 -43.73057926 69.33270123 -44.05078125 66.1328125 C-44.12570801 65.4099707 -44.20063477 64.68712891 -44.27783203 63.94238281 C-44.70400089 59.67614841 -44.91684119 55.41616111 -45.05078125 51.1328125 C-45.10758057 49.61953369 -45.10758057 49.61953369 -45.16552734 48.07568359 C-45.28503503 44.53230604 -45.35997806 40.9900706 -45.42578125 37.4453125 C-45.46405029 36.31625488 -45.50231934 35.18719727 -45.54174805 34.02392578 C-45.63963505 23.95407618 -42.97377128 14.00092707 -35.83203125 6.53125 C-25.90910985 -1.25911373 -11.90884571 -0.02103306 0 0 Z " fill="#EECC50" transform="translate(47.05078125,11.8671875)"/>
<path d="M0 0 C0 0.33 0 0.66 0 1 C-1.05058594 1.15855469 -2.10117188 1.31710938 -3.18359375 1.48046875 C-12.48549587 2.98702906 -21.47294516 4.54321933 -28 12 C-29.53048507 15.89381763 -29.53048507 15.89381763 -30 20 C-29.55011719 19.40832031 -29.10023437 18.81664063 -28.63671875 18.20703125 C-22.81233563 11.05202754 -17.04870905 6.96838938 -7.828125 5.4921875 C0.58079162 5.02949592 7.1094364 7.1987035 14 12 C16.62553174 14.48313002 18.88819176 17.07023786 21 20 C20.63118644 13.85310727 19.09949571 11.30972626 15 7 C22.16110632 10.21864779 26.06721093 16.80500228 29.09375 23.828125 C32.15821307 34.55374576 30.63780492 46.70623633 25.4375 56.4375 C25.10814453 57.07365234 24.77878906 57.70980469 24.43945312 58.36523438 C23.63546752 59.91494576 22.81902334 61.45818322 22 63 C25.20932655 62.91852902 28.41683439 62.80574254 31.625 62.6875 C32.52863281 62.66494141 33.43226562 62.64238281 34.36328125 62.61914062 C40.50588965 62.37253956 45.13951771 61.57443406 49.875 57.3125 C50.24625 56.879375 50.6175 56.44625 51 56 C50.65833158 58.47709607 50.21099798 59.77141885 48.5 61.625 C42.03337763 65.1816423 34.64664704 65.21069198 27.4375 65.3125 C20.67178693 65.50852541 14.76997053 66.33051173 8.375 68.5625 C-3.01772596 72.51182937 -10.71559687 71.08403543 -22 67 C-22.99 66.505 -22.99 66.505 -24 66 C-25.41457122 65.87212204 -26.83425175 65.79801519 -28.25390625 65.75390625 C-29.5368457 65.70459961 -29.5368457 65.70459961 -30.84570312 65.65429688 C-32.62945912 65.59402618 -34.41331543 65.53664127 -36.19726562 65.48242188 C-44.41009546 65.1578283 -52.59696685 64.6407673 -59 59 C-62.45995914 53.3487334 -62.80172088 47.53871055 -62 41 C-61.34 40.01 -60.68 39.02 -60 38 C-60 39.32 -60 40.64 -60 42 C-59.34 42.33 -58.68 42.66 -58 43 C-58.33 43.66 -58.66 44.32 -59 45 C-58.34 45.33 -57.68 45.66 -57 46 C-56.59270772 48.32156597 -56.25561323 50.6568787 -56 53 C-54.68 53 -53.36 53 -52 53 C-52 53.66 -52 54.32 -52 55 C-50.02 54.505 -50.02 54.505 -48 54 C-48 54.66 -48 55.32 -48 56 C-45.36 56.33 -42.72 56.66 -40 57 C-40 55.68 -40 54.36 -40 53 C-40.66 52.67 -41.32 52.34 -42 52 C-42.19840395 48.79224458 -42.38175425 45.58379499 -42.5625 42.375 C-42.61857422 41.47136719 -42.67464844 40.56773438 -42.73242188 39.63671875 C-43.10699272 32.79455796 -42.64666688 27.12850183 -40.125 20.6875 C-39.79757813 19.82511719 -39.47015625 18.96273437 -39.1328125 18.07421875 C-38 16 -38 16 -35 15 C-34.26676204 12.98491642 -34.26676204 12.98491642 -34 11 C-33.34 11 -32.68 11 -32 11 C-32 10.34 -32 9.68 -32 9 C-31.34 9 -30.68 9 -30 9 C-30 8.34 -30 7.68 -30 7 C-21.8328822 1.07300594 -9.8808628 -0.8369672 0 0 Z " fill="#C53826" transform="translate(68,51)"/>
<path d="M0 0 C0.08732726 3.89569135 0.14050185 7.79112982 0.1875 11.6875 C0.21263672 12.79029297 0.23777344 13.89308594 0.26367188 15.02929688 C0.27333984 16.09599609 0.28300781 17.16269531 0.29296875 18.26171875 C0.3086792 19.24100342 0.32438965 20.22028809 0.34057617 21.22924805 C-0.0575066 24.46784405 -1.26610332 26.27473382 -3 29 C-3 29.99 -3 30.98 -3 32 C-1.02 32.33 0.96 32.66 3 33 C3 32.01 3 31.02 3 30 C3.66 29.67 4.32 29.34 5 29 C5.556875 27.7315625 5.556875 27.7315625 6.125 26.4375 C8.29989782 22.45018733 10.95388905 19.89996017 14.2578125 16.83203125 C16.22995007 15.01781081 16.22995007 15.01781081 17 12 C12.3788131 14.31059345 9.20175508 17.67298108 5.671875 21.35546875 C4 23 4 23 3 23 C3 15.41 3 7.82 3 0 C13.43351481 2.31855885 19.96756931 4.23952741 26 13 C28.19034865 16.75911188 28.16702875 19.65725239 28 24 C26.02 24 24.04 24 22 24 C22 24.99 22 25.98 22 27 C23.98 27 25.96 27 28 27 C28.31817394 32.30289895 27.6853161 35.42501701 25 40 C24.5771875 40.80566406 24.154375 41.61132812 23.71875 42.44140625 C20.6219905 47.05135505 15.93821789 49.62482455 11 52 C8.04254779 52.52679617 6.01017111 52.39756977 3 52 C3 50.35 3 48.7 3 47 C2.01 47 1.02 47 0 47 C0 48.65 0 50.3 0 52 C-6.8910267 51.97466534 -11.9361029 51.36901884 -17.28125 46.8125 C-21.76975097 42.0791717 -25.83008768 35.82302711 -26.125 29.1875 C-26.08375 28.465625 -26.0425 27.74375 -26 27 C-24.02 27 -22.04 27 -20 27 C-20 26.01 -20 25.02 -20 24 C-21.65 24 -23.3 24 -25 24 C-25.66648281 17.60176502 -24.02258194 13.967353 -20 9 C-14.01307764 2.48970063 -8.9518834 0 0 0 Z " fill="#D8D9D8" transform="translate(62,60)"/>
<path d="M0 0 C1.21640671 -0.00095673 2.43281342 -0.00191345 3.68608093 -0.00289917 C6.24506685 -0.00357592 8.80405454 -0.00175709 11.36303711 0.00244141 C15.24011168 0.00778273 19.11706968 0.00248628 22.99414062 -0.00390625 C25.496094 -0.00324511 27.99804731 -0.0019632 30.5 0 C32.21005974 -0.00303635 32.21005974 -0.00303635 33.95466614 -0.00613403 C62.66795118 0.07580258 62.66795118 0.07580258 69.7890625 6.89453125 C73.70594343 11.76908478 77.30479968 17.71923555 76.63671875 24.1328125 C76.40984375 24.7928125 76.18296875 25.4528125 75.94921875 26.1328125 C73.96921875 25.1428125 71.98921875 24.1528125 69.94921875 23.1328125 C69.94921875 22.4728125 69.94921875 21.8128125 69.94921875 21.1328125 C69.14484375 21.1534375 68.34046875 21.1740625 67.51171875 21.1953125 C64.94921875 21.1328125 64.94921875 21.1328125 63.94921875 20.1328125 C61.5280433 19.92022149 59.12518097 19.75616651 56.69921875 19.6328125 C52.37625399 19.40791838 48.17938798 19.11657279 43.94921875 18.1328125 C43.94921875 17.8028125 43.94921875 17.4728125 43.94921875 17.1328125 C46.47012653 17.1055758 48.99073332 17.08586043 51.51171875 17.0703125 C52.21619141 17.06193359 52.92066406 17.05355469 53.64648438 17.04492188 C58.18946673 17.02398647 62.46706767 17.38480568 66.94921875 18.1328125 C64.80453226 15.98812601 60.36476981 16.3932337 57.38671875 16.0703125 C56.58041016 15.97943359 55.77410156 15.88855469 54.94335938 15.79492188 C52.94574498 15.57033801 50.94753315 15.35108014 48.94921875 15.1328125 C48.94921875 14.4728125 48.94921875 13.8128125 48.94921875 13.1328125 C43.66921875 13.1328125 38.38921875 13.1328125 32.94921875 13.1328125 C32.94921875 12.4728125 32.94921875 11.8128125 32.94921875 11.1328125 C26.35121231 11.25160923 19.7533376 11.376396 13.15551758 11.50512695 C10.91628515 11.54813645 8.67702705 11.58983137 6.43774414 11.63012695 C-17.64883667 10.41360125 -17.64883667 10.41360125 -39.05078125 18.6953125 C-41.26222012 20.8650037 -41.26222012 20.8650037 -41.05078125 23.1328125 C-40.39078125 22.1428125 -39.73078125 21.1528125 -39.05078125 20.1328125 C-31.53250466 16.35814058 -23.23643962 16.81435029 -15.05078125 17.1328125 C-15.71078125 18.1228125 -16.37078125 19.1128125 -17.05078125 20.1328125 C-20.62330879 20.30740971 -24.0989759 20.0600076 -27.66796875 19.84765625 C-31.12163031 19.80891204 -31.12163031 19.80891204 -33.35546875 22.08984375 C-33.91492187 22.76402344 -34.474375 23.43820313 -35.05078125 24.1328125 C-37.30078125 24.8828125 -37.30078125 24.8828125 -39.05078125 25.1328125 C-39.20546875 26.091875 -39.20546875 26.091875 -39.36328125 27.0703125 C-39.59015625 27.7509375 -39.81703125 28.4315625 -40.05078125 29.1328125 C-41.04078125 29.4628125 -42.03078125 29.7928125 -43.05078125 30.1328125 C-44.4982098 26.75045343 -45.20615661 24.80286873 -44.36328125 21.16796875 C-40.21789463 11.77916156 -36.86451321 5.73757649 -27.1015625 1.859375 C-18.27364122 -0.24304927 -9.02207977 -0.01593454 0 0 Z " fill="#F3DA7A" transform="translate(47.05078125,11.8671875)"/>
<path d="M0 0 C0 0.33 0 0.66 0 1 C-1.05058594 1.15855469 -2.10117188 1.31710938 -3.18359375 1.48046875 C-12.52243795 2.99301229 -21.41351026 4.56612561 -28 12 C-29.1552144 14.71138905 -29.1552144 14.71138905 -30 18 C-30.18691406 18.60328125 -30.37382813 19.2065625 -30.56640625 19.828125 C-32.63926931 27.42379104 -32.17230245 35.19852791 -32 43 C-31.34 43 -30.68 43 -30 43 C-28.33333333 46.33333333 -26.66666667 49.66666667 -25 53 C-24.61585937 53.70640625 -24.23171875 54.4128125 -23.8359375 55.140625 C-23 57 -23 57 -23 60 C-22.21625 60.28875 -21.4325 60.5775 -20.625 60.875 C-18 62 -18 62 -16 64 C-18.31 64 -20.62 64 -23 64 C-22.01 64.99 -21.02 65.98 -20 67 C-20.85235229 66.76011353 -20.85235229 66.76011353 -21.72192383 66.51538086 C-24.01957736 65.99557091 -26.0974287 65.82798427 -28.44921875 65.75390625 C-29.29806641 65.72103516 -30.14691406 65.68816406 -31.02148438 65.65429688 C-32.77918863 65.59377519 -34.53700482 65.53641034 -36.29492188 65.48242188 C-44.47383913 65.15575826 -52.62604493 64.6151509 -59 59 C-62.45995914 53.3487334 -62.80172088 47.53871055 -62 41 C-61.34 40.01 -60.68 39.02 -60 38 C-60 39.32 -60 40.64 -60 42 C-59.34 42.33 -58.68 42.66 -58 43 C-58.33 43.66 -58.66 44.32 -59 45 C-58.34 45.33 -57.68 45.66 -57 46 C-56.59270772 48.32156597 -56.25561323 50.6568787 -56 53 C-54.68 53 -53.36 53 -52 53 C-52 53.66 -52 54.32 -52 55 C-50.02 54.505 -50.02 54.505 -48 54 C-48 54.66 -48 55.32 -48 56 C-45.36 56.33 -42.72 56.66 -40 57 C-40 55.68 -40 54.36 -40 53 C-40.66 52.67 -41.32 52.34 -42 52 C-42.19840395 48.79224458 -42.38175425 45.58379499 -42.5625 42.375 C-42.61857422 41.47136719 -42.67464844 40.56773438 -42.73242188 39.63671875 C-43.10699272 32.79455796 -42.64666688 27.12850183 -40.125 20.6875 C-39.79757813 19.82511719 -39.47015625 18.96273437 -39.1328125 18.07421875 C-38 16 -38 16 -35 15 C-34.26676204 12.98491642 -34.26676204 12.98491642 -34 11 C-33.34 11 -32.68 11 -32 11 C-32 10.34 -32 9.68 -32 9 C-31.34 9 -30.68 9 -30 9 C-30 8.34 -30 7.68 -30 7 C-21.8328822 1.07300594 -9.8808628 -0.8369672 0 0 Z " fill="#D52C2F" transform="translate(68,51)"/>
<path d="M0 0 C0.0580966 3.9166043 0.09362893 7.83309763 0.125 11.75 C0.14175781 12.86117187 0.15851562 13.97234375 0.17578125 15.1171875 C0.18222656 16.18710938 0.18867187 17.25703125 0.1953125 18.359375 C0.20578613 19.34389648 0.21625977 20.32841797 0.22705078 21.34277344 C-0.0103428 24.12104412 -0.42087685 25.71156579 -2 28 C-5.2578125 29.265625 -5.2578125 29.265625 -9.125 30.25 C-9.78371094 30.42273438 -10.44242188 30.59546875 -11.12109375 30.7734375 C-12.74369882 31.19672578 -14.37142454 31.60029741 -16 32 C-16 32.66 -16 33.32 -16 34 C-18.97 34.495 -18.97 34.495 -22 35 C-24.62386487 31.93882432 -25 31.26826873 -25 27 C-23.35 27 -21.7 27 -20 27 C-20 26.01 -20 25.02 -20 24 C-21.65 24 -23.3 24 -25 24 C-25.66648281 17.60176502 -24.02258194 13.967353 -20 9 C-14.01307764 2.48970063 -8.9518834 0 0 0 Z " fill="#F0EFEF" transform="translate(62,60)"/>
<path d="M0 0 C2.25325421 0.00502488 4.50650951 0.00958604 6.75976562 0.01367188 C12.23570106 0.02459953 17.71159536 0.04125932 23.1875 0.0625 C23.1875 0.7225 23.1875 1.3825 23.1875 2.0625 C28.4675 2.0625 33.7475 2.0625 39.1875 2.0625 C39.1875 2.7225 39.1875 3.3825 39.1875 4.0625 C40.0228125 4.04509766 40.0228125 4.04509766 40.875 4.02734375 C55.33547688 3.85635838 55.33547688 3.85635838 61.1875 8.0625 C58.63986998 9.33631501 57.83571458 8.86418211 55.12705994 8.14216614 C50.40178997 7.02100328 45.99521814 6.77254828 41.15454102 6.7878418 C40.30122192 6.78273087 39.44790283 6.77761993 38.56872559 6.77235413 C35.77621245 6.75856859 32.98394915 6.75940637 30.19140625 6.76171875 C28.23282278 6.75782608 26.27424014 6.75349024 24.31565857 6.74873352 C20.22139747 6.74129527 16.12722264 6.7415454 12.03295898 6.74682617 C6.80682882 6.75262101 1.58105304 6.73567766 -3.64501858 6.7124815 C-7.68669166 6.69769495 -11.72828032 6.69687909 -15.76997566 6.69999123 C-17.6959408 6.6994806 -19.62191099 6.6942919 -21.54784966 6.68417931 C-37.42443018 6.02006256 -37.42443018 6.02006256 -51.4375 12.25 C-52.118125 13.1471875 -52.118125 13.1471875 -52.8125 14.0625 C-51.40542256 9.58543541 -49.42758525 7.04887477 -45.8125 4.0625 C-32.46587906 -2.61081047 -14.50109858 -0.05644937 0 0 Z " fill="#FBF6A7" transform="translate(56.8125,22.9375)"/>
<path d="M0 0 C2.87570562 0.00532538 5.75125242 0.00003842 8.62695312 -0.00634766 C18.28124656 -0.01190758 27.93139792 0.11362481 37.58007812 0.45068359 C38.45713409 0.47266815 39.33419006 0.49465271 40.23782349 0.51730347 C48.22433598 0.8481374 57.06372573 2.05021168 62.77539062 8.13037109 C63.39648438 10.25927734 63.39648438 10.25927734 63.77539062 12.13037109 C62.68226562 11.51162109 61.58914062 10.89287109 60.46289062 10.25537109 C55.99049747 8.31187488 51.63636651 7.50724424 46.81835938 7.00927734 C46.00841522 6.92554367 45.19847107 6.84181 44.36398315 6.75553894 C32.0828558 5.63972047 19.73386533 5.87217632 7.41479492 5.93475342 C4.71910343 5.94561655 2.02346267 5.94522007 -0.67224693 5.94461536 C-3.94752794 5.94495579 -7.22277866 5.9538071 -10.49804688 5.96240234 C-11.68377289 5.96351517 -12.8694989 5.96462799 -14.09115601 5.96577454 C-32.31294838 6.03478991 -32.31294838 6.03478991 -49.22460938 12.13037109 C-47.7214647 8.07188048 -44.82530296 5.39234527 -41.22460938 3.13037109 C-28.75554158 -1.681693 -13.19184696 -0.02890998 0 0 Z " fill="#6D3700" transform="translate(56.224609375,17.86962890625)"/>
<path d="M0 0 C0.66 0 1.32 0 2 0 C5 3.46153846 5 3.46153846 5 6 C5.598125 6.165 6.19625 6.33 6.8125 6.5 C10.36313057 8.9347181 11.20756476 11.94725975 12 16 C12.95594691 26.43229016 12.57103753 34.78789152 7 44 C10.63508033 44.88420873 13.60410083 45.0075079 17.3125 44.5625 C18.63701172 44.40974609 18.63701172 44.40974609 19.98828125 44.25390625 C20.65214844 44.17011719 21.31601563 44.08632812 22 44 C22 43.01 22 42.02 22 41 C23.98 40.34 25.96 39.68 28 39 C27.95875 38.2575 27.9175 37.515 27.875 36.75 C28 34 28 34 29.0078125 32.0703125 C30.33900167 29.29263432 30.01586516 26.80493564 29.9453125 23.78125 C30.07481227 17.19526157 30.29961599 9.55057601 34 4 C34.30157634 14.49932451 34.18673109 24.71854753 32.625 35.125 C32.49891357 35.98319336 32.37282715 36.84138672 32.24291992 37.72558594 C31.26611417 43.73388583 31.26611417 43.73388583 29 46 C27.85166896 46.7177069 26.68292619 47.40336952 25.5 48.0625 C24.8915625 48.40410156 24.283125 48.74570313 23.65625 49.09765625 C20.63850562 50.74175755 18.87769256 51.11947907 15.4296875 51.09765625 C14.53378906 51.09443359 13.63789062 51.09121094 12.71484375 51.08789062 C11.30912109 51.07532227 11.30912109 51.07532227 9.875 51.0625 C8.93011719 51.05798828 7.98523438 51.05347656 7.01171875 51.04882812 C4.67441613 51.03702357 2.33723939 51.02055759 0 51 C0.70758275 46.41679358 2.41487554 43.35993737 4.84375 39.4765625 C8.27460907 32.12803328 8.80442261 20.61588307 6.30859375 12.84814453 C4.51287496 8.40213002 2.32836423 4.18749179 0 0 Z " fill="#ECAB09" transform="translate(90,63)"/>
<path d="M0 0 C1.6875 1.4375 1.6875 1.4375 3 4 C2.35087445 7.14284955 1.23221253 10.04268993 0 13 C0.99 13.33 1.98 13.66 3 14 C-3.69928261 23.6092835 -10.43949445 28.60240319 -22 31 C-28.82939218 31.66090892 -35.58440232 30.4562574 -42 28 C-44.359375 25.890625 -44.359375 25.890625 -46 24 C-44.02 24 -42.04 24 -40 24 C-40.804375 23.608125 -41.60875 23.21625 -42.4375 22.8125 C-45 21 -45 21 -45.8125 18.3125 C-45.874375 17.549375 -45.93625 16.78625 -46 16 C-45.071875 16.61875 -44.14375 17.2375 -43.1875 17.875 C-38.44165819 20.62876006 -33.37010661 21.2619745 -28 22 C-28 20.35 -28 18.7 -28 17 C-27.01 17 -26.02 17 -25 17 C-25 18.65 -25 20.3 -25 22 C-17.59037764 21.10280147 -11.46772353 19.28438764 -6 14 C-3.11187504 9.62990161 -1.13107958 5.11342226 0 0 Z " fill="#D7434C" transform="translate(90,90)"/>
<path d="M0 0 C0 0.33 0 0.66 0 1 C-1.02738281 1.15855469 -2.05476563 1.31710938 -3.11328125 1.48046875 C-11.75193134 2.90248166 -19.19288812 4.86441451 -27 9 C-27.71671875 9.29777344 -28.4334375 9.59554687 -29.171875 9.90234375 C-31.48387009 11.29052884 -31.85720733 12.58655358 -33 15 C-33.34812744 15.55921143 -33.69625488 16.11842285 -34.05493164 16.69458008 C-37.69228827 22.84257294 -37.56425496 28.69144416 -37.4375 35.6875 C-37.44458984 36.80189453 -37.45167969 37.91628906 -37.45898438 39.06445312 C-37.41438946 44.78975373 -37.21915447 48.15055269 -34 53 C-32.51762012 56.30684742 -31.14585539 59.56243383 -30 63 C-50.26566125 63.28190255 -50.26566125 63.28190255 -54.875 59.875 C-58.31222485 55.22463697 -60.53418789 50.87606678 -60 45 C-59.01 45.33 -58.02 45.66 -57 46 C-56.67 48.31 -56.34 50.62 -56 53 C-54.68 53 -53.36 53 -52 53 C-52 53.66 -52 54.32 -52 55 C-50.02 54.505 -50.02 54.505 -48 54 C-48 54.66 -48 55.32 -48 56 C-45.36 56.33 -42.72 56.66 -40 57 C-40 55.68 -40 54.36 -40 53 C-40.66 52.67 -41.32 52.34 -42 52 C-42.19840395 48.79224458 -42.38175425 45.58379499 -42.5625 42.375 C-42.61857422 41.47136719 -42.67464844 40.56773438 -42.73242188 39.63671875 C-43.10699272 32.79455796 -42.64666688 27.12850183 -40.125 20.6875 C-39.79757813 19.82511719 -39.47015625 18.96273437 -39.1328125 18.07421875 C-38 16 -38 16 -35 15 C-34.26676204 12.98491642 -34.26676204 12.98491642 -34 11 C-33.34 11 -32.68 11 -32 11 C-32 10.34 -32 9.68 -32 9 C-31.34 9 -30.68 9 -30 9 C-30 8.34 -30 7.68 -30 7 C-21.8328822 1.07300594 -9.8808628 -0.8369672 0 0 Z " fill="#CC8F15" transform="translate(68,51)"/>
<path d="M0 0 C0.55816406 0.495 1.11632812 0.99 1.69140625 1.5 C2.52285156 2.20576172 2.52285156 2.20576172 3.37109375 2.92578125 C5.72397945 5.73114496 5.39962413 8.94025817 5.69140625 12.5 C5.03140625 11.79875 4.37140625 11.0975 3.69140625 10.375 C-3.27949919 3.44347821 -10.44405381 -1.52399786 -20.49609375 -2.0625 C-28.48103222 -1.86011677 -35.41590351 0.8534878 -41.28515625 6.3515625 C-42.72297079 8.01602761 -44.00866034 9.72814358 -45.30859375 11.5 C-46.29218436 12.51614444 -47.28810252 13.52092 -48.30859375 14.5 C-47.33730735 8.08950976 -45.43843468 2.649699 -40.1171875 -1.37109375 C-26.94048905 -9.59585801 -12.32308473 -9.87904913 0 0 Z " fill="#FCB8C8" transform="translate(84.30859375,59.5)"/>
<path d="M0 0 C11.38235294 2.52941176 11.38235294 2.52941176 15 5 C15.71408334 6.98356483 16.38617742 8.98315437 17 11 C19.03243548 11.96877057 19.03243548 11.96877057 21 12 C21.3125 14.1875 21.3125 14.1875 21 17 C18.5 19.8125 18.5 19.8125 16 22 C15.01 21.67 14.02 21.34 13 21 C13.165 20.071875 13.33 19.14375 13.5 18.1875 C14.07748388 15.04378647 14.07748388 15.04378647 14 12 C9.3788131 14.31059345 6.20175508 17.67298108 2.671875 21.35546875 C1 23 1 23 0 23 C0 15.41 0 7.82 0 0 Z " fill="#F7F6F6" transform="translate(65,60)"/>
<path d="M0 0 C8.92739557 -0.02317125 17.85478078 -0.04093952 26.78219986 -0.05181217 C30.92756462 -0.05703051 35.0729088 -0.06410917 39.21826172 -0.07543945 C43.21882072 -0.08630554 47.21935993 -0.09228475 51.21993256 -0.09487724 C52.74614524 -0.09672477 54.27235684 -0.1003325 55.7985611 -0.10573006 C57.93636923 -0.11298985 60.07409559 -0.11398885 62.21191406 -0.11352539 C64.03725677 -0.11685631 64.03725677 -0.11685631 65.8994751 -0.12025452 C68.47196667 -0.02047988 70.55904871 0.23645225 73 1 C73 1.66 73 2.32 73 3 C74.65 3 76.3 3 78 3 C78 3.66 78 4.32 78 5 C79.65 5.33 81.3 5.66 83 6 C83 6.99 83 7.98 83 9 C82.46117188 8.79503906 81.92234375 8.59007812 81.3671875 8.37890625 C73.45029591 5.78544176 65.70243249 5.54008592 57.44287109 5.37915039 C56.04609131 5.34422485 56.04609131 5.34422485 54.62109375 5.30859375 C53.7798999 5.29626709 52.93870605 5.28394043 52.07202148 5.27124023 C50 5 50 5 48 3 C45.85780118 2.70806254 45.85780118 2.70806254 43.36669922 2.77294922 C42.40585419 2.77310028 41.44500916 2.77325134 40.45504761 2.77340698 C39.41542877 2.78372955 38.37580994 2.79405212 37.3046875 2.8046875 C35.71081711 2.80893234 35.71081711 2.80893234 34.08474731 2.81326294 C30.68138501 2.82448361 27.27828314 2.84959163 23.875 2.875 C21.57161838 2.88502736 19.26823264 2.89415363 16.96484375 2.90234375 C11.30980655 2.92442907 5.65492187 2.95792511 0 3 C0 2.01 0 1.02 0 0 Z " fill="#F6DB5F" transform="translate(32,14)"/>
<path d="M0 0 C3.52357966 0.9803135 6.82318609 2.1751635 10 4 C10.33 4.66 10.66 5.32 11 6 C6 4.33333333 1 2.66666667 -4 1 C-3.67 8.26 -3.34 15.52 -3 23 C-1.411875 21.35 0.17625 19.7 1.8125 18 C4.51953125 15.1875 4.51953125 15.1875 7 13 C7.99 13 8.98 13 10 13 C9.45314625 16.87137737 7.75412356 18.51204764 4.9375 21.125 C3.59001493 22.38012669 2.26847218 23.66507028 1 25 C1 25.66 1 26.32 1 27 C0.34 27 -0.32 27 -1 27 C-1.33 28.32 -1.66 29.64 -2 31 C-2.66 31 -3.32 31 -4 31 C-4 31.99 -4 32.98 -4 34 C-5.98 33.67 -7.96 33.34 -10 33 C-10 32.01 -10 31.02 -10 30 C-10.66 29.67 -11.32 29.34 -12 29 C-11.01 29 -10.02 29 -9 29 C-8.05533244 25.75921875 -7.80901172 22.72774345 -7.68359375 19.359375 C-7.64169922 18.28945312 -7.59980469 17.21953125 -7.55664062 16.1171875 C-7.51732422 15.00601563 -7.47800781 13.89484375 -7.4375 12.75 C-7.39431641 11.62335938 -7.35113281 10.49671875 -7.30664062 9.3359375 C-7.20067985 6.55741046 -7.09860858 3.77879609 -7 1 C-9.64 1.33 -12.28 1.66 -15 2 C-10.29521823 -1.13652118 -5.50827238 -0.56016329 0 0 Z " fill="#9E9594" transform="translate(69,59)"/>
<path d="M0 0 C5.76098472 3.97280205 11.31176376 9.74488247 12.66796875 16.83984375 C12.89443879 21.51850892 12.84321086 26.16023026 12.66796875 30.83984375 C12.00796875 30.17984375 11.34796875 29.51984375 10.66796875 28.83984375 C10.66796875 27.84984375 10.66796875 26.85984375 10.66796875 25.83984375 C8.68796875 25.83984375 6.70796875 25.83984375 4.66796875 25.83984375 C4.66796875 24.84984375 4.66796875 23.85984375 4.66796875 22.83984375 C6.64796875 22.83984375 8.62796875 22.83984375 10.66796875 22.83984375 C9.2326956 14.34151591 6.37156555 8.64245026 -0.4296875 3.1640625 C-7.09256089 -1.47395409 -14.36893354 -2.22875259 -22.33203125 -1.16015625 C-30.44386609 1.33224251 -36.29604008 6.52169595 -40.48046875 13.8515625 C-41.72744577 16.76308225 -41.9711074 19.71183705 -42.33203125 22.83984375 C-40.68203125 22.83984375 -39.03203125 22.83984375 -37.33203125 22.83984375 C-37.33203125 23.82984375 -37.33203125 24.81984375 -37.33203125 25.83984375 C-39.31203125 25.83984375 -41.29203125 25.83984375 -43.33203125 25.83984375 C-43.00203125 28.80984375 -42.67203125 31.77984375 -42.33203125 34.83984375 C-45.17696415 31.99491085 -44.75909601 29.15522827 -44.76953125 25.33984375 C-44.74738015 17.07102142 -43.14764901 11.12826632 -37.53515625 4.8203125 C-26.60193839 -5.56624446 -13.28658996 -7.45944614 0 0 Z " fill="#A44A4B" transform="translate(79.33203125,61.16015625)"/>
<path d="M0 0 C2.87570562 0.00532538 5.75125242 0.00003842 8.62695312 -0.00634766 C18.28124656 -0.01190758 27.93139792 0.11362481 37.58007812 0.45068359 C38.45713409 0.47266815 39.33419006 0.49465271 40.23782349 0.51730347 C48.22433598 0.8481374 57.06372573 2.05021168 62.77539062 8.13037109 C63.58789062 10.38037109 63.58789062 10.38037109 63.77539062 12.13037109 C61.79539062 11.14037109 59.81539063 10.15037109 57.77539062 9.13037109 C57.77539062 8.47037109 57.77539062 7.81037109 57.77539062 7.13037109 C46.25102546 2.6059907 34.39195128 2.96870682 22.17773438 2.96240234 C20.69283518 2.95917963 19.20793629 2.95581484 17.72303772 2.95231628 C14.62939722 2.94636981 11.53578448 2.94447192 8.44213867 2.94506836 C4.50304102 2.94517017 0.56412282 2.93147784 -3.37493229 2.91429615 C-6.4352244 2.90311559 -9.49547379 2.90115094 -12.55578423 2.90167809 C-14.00726379 2.90050863 -15.45874485 2.89614597 -16.91020393 2.88834572 C-30.47399144 2.45399693 -30.47399144 2.45399693 -42.95117188 6.85693359 C-43.57765625 7.48341797 -44.20414063 8.10990234 -44.84960938 8.75537109 C-45.501875 9.38701172 -46.15414062 10.01865234 -46.82617188 10.66943359 C-47.28765625 11.15154297 -47.74914062 11.63365234 -48.22460938 12.13037109 C-48.22460938 9.13037109 -48.22460938 9.13037109 -46.90429688 7.59521484 C-46.01097656 6.83917969 -46.01097656 6.83917969 -45.09960938 6.06787109 C-44.51953125 5.56126953 -43.93945312 5.05466797 -43.34179688 4.53271484 C-32.22320818 -2.83181162 -12.83841998 -0.02813545 0 0 Z " fill="#B27513" transform="translate(56.224609375,17.86962890625)"/>
<path d="M0 0 C7.29027218 -0.26192595 14.49312725 0.08275021 21.75 0.75 C22.54124268 0.81171387 23.33248535 0.87342773 24.14770508 0.93701172 C29.64346063 1.4894009 34.4121301 2.81697513 39 6 C39.66 6.99 40.32 7.98 41 9 C41.66 8.01 42.32 7.02 43 6 C43.495 9.96 43.495 9.96 44 14 C40.89448334 14 39.64738916 13.4606285 37 12 C37 11.34 37 10.68 37 10 C36.195625 10.020625 35.39125 10.04125 34.5625 10.0625 C32 10 32 10 31 9 C28.57882455 8.78740899 26.17596222 8.62335401 23.75 8.5 C19.42703524 8.27510588 15.23016923 7.98376029 11 7 C11 6.67 11 6.34 11 6 C13.52090778 5.9727633 16.04151457 5.95304793 18.5625 5.9375 C19.61920898 5.92493164 19.61920898 5.92493164 20.69726562 5.91210938 C25.24024798 5.89117397 29.51784892 6.25199318 34 7 C31.85531351 4.85531351 27.41555106 5.2604212 24.4375 4.9375 C23.63119141 4.84662109 22.82488281 4.75574219 21.99414062 4.66210938 C19.99652623 4.43752551 17.9983144 4.21826764 16 4 C16 3.34 16 2.68 16 2 C10.72 2 5.44 2 0 2 C0 1.34 0 0.68 0 0 Z " fill="#F5E888" transform="translate(80,23)"/>
<path d="M0 0 C0 0.33 0 0.66 0 1 C-1.02738281 1.15855469 -2.05476563 1.31710938 -3.11328125 1.48046875 C-11.75193134 2.90248166 -19.19288812 4.86441451 -27 9 C-27.71671875 9.29777344 -28.4334375 9.59554687 -29.171875 9.90234375 C-31.4869038 11.29235036 -31.97663614 12.53296212 -33 15 C-33.495 15.92039062 -33.495 15.92039062 -34 16.859375 C-36.46069258 21.51162191 -37.89719747 25.85358819 -39 31 C-39.66 31 -40.32 31 -41 31 C-40.67 37.6 -40.34 44.2 -40 51 C-42.95688751 48.04311249 -42.50372914 44.72613309 -42.6875 40.75 C-42.73455078 39.99847656 -42.78160156 39.24695313 -42.83007812 38.47265625 C-43.16933101 32.0991513 -42.46819799 26.67264527 -40.125 20.6875 C-39.79757813 19.82511719 -39.47015625 18.96273437 -39.1328125 18.07421875 C-38 16 -38 16 -35 15 C-34.26676204 12.98491642 -34.26676204 12.98491642 -34 11 C-33.34 11 -32.68 11 -32 11 C-32 10.34 -32 9.68 -32 9 C-31.34 9 -30.68 9 -30 9 C-30 8.34 -30 7.68 -30 7 C-21.8328822 1.07300594 -9.8808628 -0.8369672 0 0 Z " fill="#DEAD43" transform="translate(68,51)"/>
<path d="M0 0 C1 3 1 3 0.22265625 5.04296875 C-0.35162109 6.10451172 -0.35162109 6.10451172 -0.9375 7.1875 C-1.50791016 8.26064453 -1.50791016 8.26064453 -2.08984375 9.35546875 C-2.39019531 9.89816406 -2.69054687 10.44085938 -3 11 C0.20932655 10.91852902 3.41683439 10.80574254 6.625 10.6875 C7.52863281 10.66494141 8.43226562 10.64238281 9.36328125 10.61914062 C15.50588965 10.37253956 20.13951771 9.57443406 24.875 5.3125 C25.431875 4.6628125 25.431875 4.6628125 26 4 C25.65833158 6.47709607 25.21099798 7.77141885 23.5 9.625 C17.03337763 13.1816423 9.64664704 13.21069198 2.4375 13.3125 C-4.32778024 13.50851287 -10.23063429 14.32941212 -16.625 16.5625 C-27.09953772 20.21314662 -34.51688831 19.34821818 -45 16 C-41.27148607 14.82040378 -38.88148042 15.50263849 -35.125 16.50390625 C-26.56548447 18.5021755 -18.12500255 15.92977905 -10.62890625 11.64453125 C-6.023124 8.3969759 -3.02636995 4.72870305 0 0 Z " fill="#976A42" transform="translate(93,103)"/>
<path d="M0 0 C0.12375 0.639375 0.2475 1.27875 0.375 1.9375 C0.58125 2.618125 0.7875 3.29875 1 4 C1.66 4.33 2.32 4.66 3 5 C2.67 5.33 2.34 5.66 2 6 C1.8659565 11.17024923 2.09103379 14.9319647 5.5 18.9375 C6.325 19.618125 7.15 20.29875 8 21 C8.33 21.99 8.66 22.98 9 24 C16.26 24.33 23.52 24.66 31 25 C30.01 23.02 29.02 21.04 28 19 C33.10957698 21.16174411 37.21827349 25.00817758 41 29 C40.43176514 28.84007568 39.86353027 28.68015137 39.27807617 28.51538086 C36.98042264 27.99557091 34.9025713 27.82798427 32.55078125 27.75390625 C31.70193359 27.72103516 30.85308594 27.68816406 29.97851562 27.65429688 C28.22081137 27.59377519 26.46299518 27.53641034 24.70507812 27.48242188 C16.52616087 27.15575826 8.37395507 26.6151509 2 21 C-1.52330661 15.24526587 -1.54954671 9.63683329 -1 3 C-0.67 2.01 -0.34 1.02 0 0 Z " fill="#A97220" transform="translate(7,89)"/>
<path d="M0 0 C4.52108028 3.49299901 8.07141297 6.4411315 10 12 C10.1875 15.875 10.1875 15.875 10 19 C8.02 19 6.04 19 4 19 C3.67 19.66 3.34 20.32 3 21 C-1.04916379 22.34972126 -3.91257012 21.88376862 -8 21 C-7.45912682 17.21388773 -5.88277668 15.44599233 -3 13 C-2.34 13 -1.68 13 -1 13 C-0.67 12.01 -0.34 11.02 0 10 C-0.33 11.98 -0.66 13.96 -1 16 C1.46800047 14.84826645 3.04783565 13.95216435 5 12 C5.16687448 9.41645782 5.16687448 9.41645782 5 7 C3.68 6.67 2.36 6.34 1 6 C0.67 4.02 0.34 2.04 0 0 Z " fill="#E9ECE9" transform="translate(80,65)"/>
<path d="M0 0 C2.96875 1.57421875 2.96875 1.57421875 5 3 C0.77000206 4.24389154 -2.96360202 3.65943478 -7.26953125 3.1015625 C-18.73001365 1.7586607 -30.16017312 1.55344447 -41.6875 1.375 C-43.76889414 1.33668715 -45.85027469 1.29762852 -47.93164062 1.2578125 C-52.95431267 1.16331433 -57.97705783 1.07877869 -63 1 C-63 0.67 -63 0.34 -63 0 C-62.07662842 -0.02505615 -61.15325684 -0.0501123 -60.2019043 -0.07592773 C-56.77453584 -0.17109045 -53.34733539 -0.27032214 -49.92016602 -0.37231445 C-48.43713985 -0.4156133 -46.95406546 -0.45729199 -45.47094727 -0.49731445 C-43.33855661 -0.55513958 -41.20640758 -0.61879832 -39.07421875 -0.68359375 C-37.79119873 -0.72025146 -36.50817871 -0.75690918 -35.1862793 -0.79467773 C-11.28672229 -2.33475339 -11.28672229 -2.33475339 0 0 Z " fill="#865819" transform="translate(110,22)"/>
<path d="M0 0 C0.928125 0.61875 1.85625 1.2375 2.8125 1.875 C7.55834181 4.62876006 12.62989339 5.2619745 18 6 C18 4.35 18 2.7 18 1 C18.99 1 19.98 1 21 1 C21 2.65 21 4.3 21 6 C28.68636026 4.64774477 28.68636026 4.64774477 36 2 C36 2.66 36 3.32 36 4 C35.01 4 34.02 4 33 4 C33 4.66 33 5.32 33 6 C26.06387984 9.92346191 19.92045987 10.9376589 12 10 C9.36587117 9.25885623 7.4368393 8.31995462 5 7 C4.21625 6.71125 3.4325 6.4225 2.625 6.125 C1 5 1 5 0.25 2.375 C0.1675 1.59125 0.085 0.8075 0 0 Z " fill="#D25167" transform="translate(44,106)"/>
<path d="M0 0 C0.99 0.33 1.98 0.66 3 1 C3.33 3.31 3.66 5.62 4 8 C5.32 8 6.64 8 8 8 C8 8.66 8 9.32 8 10 C9.32 9.67 10.64 9.34 12 9 C12 9.66 12 10.32 12 11 C13.01320313 11.07347656 13.01320313 11.07347656 14.046875 11.1484375 C14.93890625 11.22320312 15.8309375 11.29796875 16.75 11.375 C17.63171875 11.44460937 18.5134375 11.51421875 19.421875 11.5859375 C21.99066382 11.99850055 23.75841015 12.71160957 26 14 C26 14.66 26 15.32 26 16 C23.12340174 16.1356886 20.25326537 16.23440753 17.375 16.3125 C16.56675781 16.35439453 15.75851563 16.39628906 14.92578125 16.43945312 C10.6911582 16.5255227 7.87792358 16.37741904 4.5 13.66796875 C1.08100179 10.0192566 0.09014982 7.07344593 -0.125 2.125 C-0.08375 1.42375 -0.0425 0.7225 0 0 Z " fill="#E7A509" transform="translate(8,96)"/>
<path d="M0 0 C-0.33 0.66 -0.66 1.32 -1 2 C-2.99609375 2.37890625 -2.99609375 2.37890625 -5.4375 2.5625 C-8.84628205 2.8061175 -8.84628205 2.8061175 -12 4 C-13.54855015 4.14051391 -15.10233008 4.22571066 -16.65625 4.28125 C-17.59726562 4.31863281 -18.53828125 4.35601563 -19.5078125 4.39453125 C-20.49523437 4.42933594 -21.48265625 4.46414062 -22.5 4.5 C-29.70322436 4.76211194 -36.83572189 5.19176271 -44 6 C-38.66885288 0.22721939 -30.58795847 0.40654297 -23.15771484 0.06591797 C-15.44295898 -0.16976704 -7.71694203 -0.07113902 0 0 Z " fill="#F6F295" transform="translate(53,23)"/>
<path d="M0 0 C1.12591553 0.00523682 2.25183105 0.01047363 3.41186523 0.01586914 C4.62680664 0.0190918 5.84174805 0.02231445 7.09350586 0.02563477 C8.37290039 0.03401367 9.65229492 0.04239258 10.97045898 0.05102539 C12.2537207 0.05553711 13.53698242 0.06004883 14.85913086 0.06469727 C18.04211921 0.07652994 21.22501661 0.09301471 24.40795898 0.11352539 C24.40795898 0.77352539 24.40795898 1.43352539 24.40795898 2.11352539 C29.68795898 2.11352539 34.96795898 2.11352539 40.40795898 2.11352539 C40.40795898 2.77352539 40.40795898 3.43352539 40.40795898 4.11352539 C22.91795898 3.78352539 5.42795898 3.45352539 -12.59204102 3.11352539 C-12.59204102 2.78352539 -12.59204102 2.45352539 -12.59204102 2.11352539 C-11.63491211 2.02264648 -11.63491211 2.02264648 -10.65844727 1.92993164 C-9.41901367 1.80424805 -9.41901367 1.80424805 -8.15454102 1.67602539 C-7.33083008 1.59481445 -6.50711914 1.51360352 -5.65844727 1.42993164 C-2.97468726 1.01899674 -2.88505619 0.12635878 0 0 Z " fill="#F6F29B" transform="translate(55.592041015625,22.886474609375)"/>
<path d="M0 0 C2 3.75 2 3.75 2 6 C4.97 6.495 4.97 6.495 8 7 C7.67 6.34 7.34 5.68 7 5 C17.37357631 1.55580866 17.37357631 1.55580866 23 2 C23 2.99 23 3.98 23 5 C25.97 5.495 25.97 5.495 29 6 C29 5.01 29 4.02 29 3 C29.99 2.67 30.98 2.34 32 2 C32.495 4.475 32.495 4.475 33 7 C28.98195309 7.84098656 25.98196457 8.05404945 22 7 C22 6.34 22 5.68 22 5 C20.86820313 5.3609375 19.73640625 5.721875 18.5703125 6.09375 C17.08858907 6.56264982 15.60681563 7.03139164 14.125 7.5 C13.37863281 7.73847656 12.63226563 7.97695312 11.86328125 8.22265625 C6.2265625 10 6.2265625 10 4 10 C3.67 10.66 3.34 11.32 3 12 C-0.42857143 4.71428571 -0.42857143 4.71428571 0 0 Z " fill="#C8AFAF" transform="translate(36,87)"/>
<path d="M0 0 C0.66 0 1.32 0 2 0 C5 3.46153846 5 3.46153846 5 6 C5.598125 6.165 6.19625 6.33 6.8125 6.5 C10.35946879 8.93220717 11.22397143 11.94553187 12 16 C12.25602317 18.87628285 12.34160862 21.73819178 12.375 24.625 C12.38885742 25.35340088 12.40271484 26.08180176 12.41699219 26.83227539 C12.375649 31.61013328 11.50178638 34.8038821 9 39 C8.67 39 8.34 39 8 39 C8.06960937 37.02580078 8.06960937 37.02580078 8.140625 35.01171875 C8.38170364 25.26843277 8.51229703 16.88739585 4 8 C3.6184375 7.19691406 3.236875 6.39382812 2.84375 5.56640625 C1.93410114 3.69187985 0.97328457 1.84228864 0 0 Z " fill="#DCAA36" transform="translate(90,63)"/>
<path d="M0 0 C0.33 0 0.66 0 1 0 C1.30157634 10.49932451 1.18673109 20.71854753 -0.375 31.125 C-0.50108643 31.98319336 -0.62717285 32.84138672 -0.75708008 33.72558594 C-1.73388583 39.73388583 -1.73388583 39.73388583 -4 42 C-4.22281874 40.08496326 -4.42771076 38.16783494 -4.625 36.25 C-4.74101563 35.18265625 -4.85703125 34.1153125 -4.9765625 33.015625 C-5.0009805 29.87384289 -4.47827629 28.67443878 -3 26 C-3 23.92699132 -3.00678472 21.85361117 -3.05859375 19.78125 C-2.92027655 13.2157938 -2.07956107 6.2386832 0 0 Z " fill="#D0A642" transform="translate(123,67)"/>
<path d="M0 0 C2.095051 0.00502916 4.19010319 0.00958954 6.28515625 0.01367188 C11.35680062 0.02455578 16.42838683 0.04174088 21.5 0.0625 C21.5 0.3925 21.5 0.7225 21.5 1.0625 C20.44312988 1.08755615 19.38625977 1.1126123 18.29736328 1.13842773 C14.28264232 1.23437252 10.26802171 1.33409365 6.25341797 1.43481445 C4.53339017 1.47747165 2.81333841 1.51917619 1.09326172 1.55981445 C-8.08009122 1.7772052 -17.24366124 2.05402353 -26.40625 2.55859375 C-27.13979706 2.59883163 -27.87334412 2.63906952 -28.62911987 2.68052673 C-39.11721629 3.29210409 -45.06352936 4.29367313 -52.5 12.0625 C-52.5 9.0625 -52.5 9.0625 -51.1796875 7.52734375 C-50.28636719 6.77130859 -50.28636719 6.77130859 -49.375 6 C-48.79492188 5.49339844 -48.21484375 4.98679687 -47.6171875 4.46484375 C-35.5836886 -3.50568412 -13.81839098 -0.05830081 0 0 Z " fill="#C38B24" transform="translate(60.5,17.9375)"/>
<path d="M0 0 C6.6 0 13.2 0 20 0 C20 0.66 20 1.32 20 2 C21.65 2 23.3 2 25 2 C25 2.66 25 3.32 25 4 C27.475 4.495 27.475 4.495 30 5 C30 5.99 30 6.98 30 8 C29.46117187 7.79503906 28.92234375 7.59007812 28.3671875 7.37890625 C18.20905349 4.05124166 7.58856888 4.25361003 -3 4 C-3 3.67 -3 3.34 -3 3 C-0.36 2.67 2.28 2.34 5 2 C3.35 1.67 1.7 1.34 0 1 C0 0.67 0 0.34 0 0 Z " fill="#F7D152" transform="translate(85,15)"/>
<path d="M0 0 C2.475 0.99 2.475 0.99 5 2 C5 2.66 5 3.32 5 4 C6.66611905 4.042721 8.33382885 4.04063832 10 4 C10.33 3.67 10.66 3.34 11 3 C13.33297433 2.95907063 15.66705225 2.95758277 18 3 C14.98509443 5.00993705 12.7850073 5.72623341 9.3125 6.625 C8.31863281 6.88539062 7.32476562 7.14578125 6.30078125 7.4140625 C5.54152344 7.60742188 4.78226563 7.80078125 4 8 C4 8.66 4 9.32 4 10 C2.02 10.33 0.04 10.66 -2 11 C-4.62386487 7.93882432 -5 7.26826873 -5 3 C-3.35 3 -1.7 3 0 3 C0 2.01 0 1.02 0 0 Z " fill="#DEE0DD" transform="translate(42,84)"/>
<path d="M0 0 C1.85309794 2.7796469 3.50128708 5.58202315 5.125 8.5 C5.66382813 9.4590625 6.20265625 10.418125 6.7578125 11.40625 C8 14 8 14 8 17 C8.78375 17.28875 9.5675 17.5775 10.375 17.875 C13 19 13 19 15 21 C11.89441326 21.43478214 9.09038203 21.59797636 6 21 C3.5001159 18.9849419 1.74467257 16.68200647 0 14 C1.32 13.67 2.64 13.34 4 13 C3.525625 12.54625 3.05125 12.0925 2.5625 11.625 C-0.84728137 8.07882737 -0.07564839 4.69020027 0 0 Z " fill="#CC4036" transform="translate(37,94)"/>
<path d="M0 0 C5.58182571 2.47678413 8.91234451 6.63553154 11.4375 12.125 C12.26454229 17.82240245 11.63425428 23.30028252 11 29 C10.67 29 10.34 29 10 29 C8.30036027 23.24388678 6.90055986 17.6458878 6.125 11.6875 C5.31676213 6.32944033 3.91186392 3.70597635 0 0 Z " fill="#D74843" transform="translate(83,58)"/>
<path d="M0 0 C-0.99 1.485 -0.99 1.485 -2 3 C-5.57252754 3.17459721 -9.04819465 2.9271951 -12.6171875 2.71484375 C-16.07084906 2.67609954 -16.07084906 2.67609954 -18.3046875 4.95703125 C-18.86414062 5.63121094 -19.42359375 6.30539063 -20 7 C-22.25 7.75 -22.25 7.75 -24 8 C-24.103125 8.639375 -24.20625 9.27875 -24.3125 9.9375 C-24.539375 10.618125 -24.76625 11.29875 -25 12 C-25.99 12.33 -26.98 12.66 -28 13 C-28.33 12.01 -28.66 11.02 -29 10 C-26.57637078 5.3198884 -24.59834676 2.79928543 -19.5625 1.0625 C-13.12504838 -0.53468921 -6.58415628 -0.25615594 0 0 Z " fill="#F5E382" transform="translate(32,29)"/>
<path d="M0 0 C0.55945312 0.2165625 1.11890625 0.433125 1.6953125 0.65625 C13.13661668 4.62943602 25.32231045 3.55449459 37 1 C32.77007675 5.88699871 26.30541021 6.77689579 20.125 7.375 C13.8533066 7.09341377 6.40002496 6.14571768 1.640625 1.890625 C1.09921875 1.26671875 0.5578125 0.6428125 0 0 Z " fill="#D2726D" transform="translate(44,114)"/>
<path d="M0 0 C0.33 0 0.66 0 1 0 C1.36018833 22.57180225 1.36018833 22.57180225 -2.5 26.625 C-3.7375 27.305625 -3.7375 27.305625 -5 28 C-5.33 28.66 -5.66 29.32 -6 30 C0.6 30 7.2 30 14 30 C12 32 12 32 9.93701172 32.22705078 C8.69588623 32.21134033 8.69588623 32.21134033 7.4296875 32.1953125 C6.53378906 32.18886719 5.63789062 32.18242188 4.71484375 32.17578125 C3.77769531 32.15902344 2.84054688 32.14226562 1.875 32.125 C0.93011719 32.11597656 -0.01476562 32.10695312 -0.98828125 32.09765625 C-3.32577292 32.07404522 -5.66276123 32.04111516 -8 32 C-7.45537916 28.44466618 -6.62358863 26.22982722 -4.5625 23.3125 C-0.44598447 16.34059797 -0.57063791 7.8952439 0 0 Z " fill="#CB8F10" transform="translate(98,82)"/>
<path d="M0 0 C5.27952121 1.48486534 9.53874047 4.81899258 13 9 C13.93885688 11.86151593 14 13.94274733 14 17 C13.34 16.29875 12.68 15.5975 12 14.875 C9.16260701 12.02134687 6.02282685 9.68958198 2.76953125 7.33203125 C1 6 1 6 -1 4 C-0.625 1.875 -0.625 1.875 0 0 Z " fill="#ED6C7C" transform="translate(76,55)"/>
<path d="M0 0 C7.07753717 -0.4566153 12.8537037 0.22888261 19 4 C22.6479077 7.73652084 25.95591373 11.79568674 26.0625 17.125 C26.041875 18.07375 26.02125 19.0225 26 20 C23.22386015 18.61193007 22.915617 16.60807431 21.78125 13.8515625 C20.73075313 11.36188493 19.60300861 9.1800917 18 7 C15.91466367 6.12177688 15.91466367 6.12177688 14 6 C14 5.34 14 4.68 14 4 C12.35 4 10.7 4 9 4 C9 3.34 9 2.68 9 2 C6.03 1.67 3.06 1.34 0 1 C0 0.67 0 0.34 0 0 Z " fill="#EBD385" transform="translate(96,13)"/>
<path d="M0 0 C1.6875 1.4375 1.6875 1.4375 3 4 C2.35087445 7.14284955 1.23221253 10.04268993 0 13 C0.99 13.33 1.98 13.66 3 14 C-0.31181407 19.76500968 -0.31181407 19.76500968 -3.5625 20.875 C-5.37309963 20.96785126 -7.18702114 21 -9 21 C-8.566875 20.608125 -8.13375 20.21625 -7.6875 19.8125 C-3.2663455 15.06385257 -2.21427675 10.17073366 -1 4 C-0.67475672 2.66467019 -0.34397199 1.33062848 0 0 Z " fill="#DF313E" transform="translate(90,90)"/>
<path d="M0 0 C5.38439527 -0.18892615 9.93732999 -0.1263214 15 2 C16.4375 4.625 16.4375 4.625 17 7 C12.8547173 6.45931095 8.73780199 5.81296818 4.625 5.0625 C3.77164063 4.90910156 2.91828125 4.75570312 2.0390625 4.59765625 C1.36617187 4.40042969 0.69328125 4.20320313 0 4 C-0.33 3.34 -0.66 2.68 -1 2 C-0.67 1.34 -0.34 0.68 0 0 Z " fill="#FAC5D3" transform="translate(60,52)"/>
<path d="M0 0 C5.10957698 2.16174411 9.21827349 6.00817758 13 10 C12.149823 9.76120117 12.149823 9.76120117 11.2824707 9.51757812 C8.96686371 8.99248594 6.85077844 8.81171302 4.48046875 8.71875 C3.62259766 8.68136719 2.76472656 8.64398438 1.88085938 8.60546875 C0.99205078 8.57066406 0.10324219 8.53585938 -0.8125 8.5 C-6.60992762 8.26997716 -12.2703919 7.9379986 -18 7 C-18 6.67 -18 6.34 -18 6 C-11.07 6 -4.14 6 3 6 C2.01 4.02 1.02 2.04 0 0 Z " fill="#8A5B29" transform="translate(35,108)"/>
<path d="M0 0 C0 3 0 3 -1.75 4.97265625 C-2.4925 5.66230469 -3.235 6.35195312 -4 7.0625 C-5.36847481 8.33831766 -6.71055602 9.64435689 -8 11 C-8 11.66 -8 12.32 -8 13 C-8.66 13 -9.32 13 -10 13 C-10.33 14.32 -10.66 15.64 -11 17 C-11.66 17 -12.32 17 -13 17 C-13 17.99 -13 18.98 -13 20 C-14.98 19.67 -16.96 19.34 -19 19 C-18.34 18.67 -17.68 18.34 -17 18 C-16.67 17.01 -16.34 16.02 -16 15 C-15.01 14.67 -14.02 14.34 -13 14 C-11.98812105 12.34051852 -10.9873454 10.67419438 -10 9 C-9.34 9 -8.68 9 -8 9 C-8 8.34 -8 7.68 -8 7 C-6.25 5.2734375 -6.25 5.2734375 -4 3.375 C-3.2575 2.74335937 -2.515 2.11171875 -1.75 1.4609375 C-0.88375 0.73777344 -0.88375 0.73777344 0 0 Z " fill="#473F40" transform="translate(78,73)"/>
<path d="M0 0 C1.125 5.625 1.125 5.625 0 9 C1.32 9.33 2.64 9.66 4 10 C4 10.99 4 11.98 4 13 C-1.02949844 11.56300045 -3.07827585 9.17389165 -6 5 C-6 3.68 -6 2.36 -6 1 C-4 0 -4 0 0 0 Z " fill="#D3CCCD" transform="translate(46,96)"/>
<path d="M0 0 C4.24124386 3.81711948 5.87919974 6.80385123 6.1953125 12.55078125 C6.17210938 13.79214844 6.14890625 15.03351563 6.125 16.3125 C6.10695313 17.56675781 6.08890625 18.82101563 6.0703125 20.11328125 C6.04710938 21.06589844 6.02390625 22.01851562 6 23 C5.34 22.34 4.68 21.68 4 21 C4 20.01 4 19.02 4 18 C2.02 18 0.04 18 -2 18 C-2 17.01 -2 16.02 -2 15 C-0.02 15 1.96 15 4 15 C2.9318153 9.88634986 1.76892524 4.92772031 0 0 Z " fill="#A72C34" transform="translate(86,69)"/>
<path d="M0 0 C0.33 0.99 0.66 1.98 1 3 C0.33333333 4.33333333 -0.33333333 5.66666667 -1 7 C-1.38749213 9.32495277 -1.72982839 11.65851268 -2 14 C-0.35 14 1.3 14 3 14 C3 14.99 3 15.98 3 17 C1.02 17 -0.96 17 -3 17 C-2.67 19.97 -2.34 22.94 -2 26 C-4.48526813 23.51473187 -4.30747214 21.94192375 -4.37890625 18.5390625 C-4.37761719 17.82492188 -4.37632813 17.11078125 -4.375 16.375 C-4.37693359 15.2921875 -4.37693359 15.2921875 -4.37890625 14.1875 C-4.26661004 8.53185474 -3.17674752 4.76512127 0 0 Z " fill="#AD2E36" transform="translate(39,70)"/>
<path d="M0 0 C0 0.33 0 0.66 0 1 C-0.89460938 1.03738281 -1.78921875 1.07476563 -2.7109375 1.11328125 C-15.4996976 1.59665785 -15.4996976 1.59665785 -26.625 7.1875 C-27.305625 8.0846875 -27.305625 8.0846875 -28 9 C-26.87548273 6.0280615 -25.77706209 3.66559313 -24 1 C-16.37566337 -1.40025412 -7.76580144 -1.94145036 0 0 Z " fill="#FDFBA6" transform="translate(32,28)"/>
<path d="M0 0 C0 3 0 3 -1.875 4.9375 C-2.57625 5.618125 -3.2775 6.29875 -4 7 C-4.67001464 8.33165409 -5.33626319 9.66520576 -6 11 C-7.01260441 12.43758346 -8.05512648 13.8545128 -9.125 15.25 C-9.66382813 15.95640625 -10.20265625 16.6628125 -10.7578125 17.390625 C-11.16773438 17.92171875 -11.57765625 18.4528125 -12 19 C-12.33 18.01 -12.66 17.02 -13 16 C-12.34 15.01 -11.68 14.02 -11 13 C-10.62875 11.576875 -10.62875 11.576875 -10.25 10.125 C-8.23203502 5.08008755 -4.47116513 2.98077675 0 0 Z " fill="#F27F8D" transform="translate(49,55)"/>
<path d="M0 0 C-0.33 0.66 -0.66 1.32 -1 2 C-2.19238281 2.04898437 -3.38476562 2.09796875 -4.61328125 2.1484375 C-6.17971068 2.22347604 -7.74611579 2.2990234 -9.3125 2.375 C-10.09818359 2.4059375 -10.88386719 2.436875 -11.69335938 2.46875 C-12.8293457 2.52675781 -12.8293457 2.52675781 -13.98828125 2.5859375 C-14.68477783 2.6173584 -15.38127441 2.6487793 -16.09887695 2.68115234 C-18.32532739 2.92118253 -18.32532739 2.92118253 -21 5 C-23.48046875 5.4140625 -23.48046875 5.4140625 -26.1875 5.625 C-27.08855469 5.69976563 -27.98960938 5.77453125 -28.91796875 5.8515625 C-29.60503906 5.90054687 -30.29210938 5.94953125 -31 6 C-23.8857781 -1.70356573 -9.71038033 -0.19039961 0 0 Z " fill="#F3E67F" transform="translate(40,23)"/>
<path d="M0 0 C1.91635217 -0.05423638 3.83314925 -0.09289963 5.75 -0.125 C7.35101563 -0.15980469 7.35101563 -0.15980469 8.984375 -0.1953125 C11.92470106 -0.00487687 13.52361878 0.47329896 16 2 C16 2.66 16 3.32 16 4 C11.38 4 6.76 4 2 4 C1.34 2.68 0.68 1.36 0 0 Z " fill="#EFAF08" transform="translate(18,108)"/>
<path d="M0 0 C2.1379796 3.20696941 2.569638 5.17922665 3.1875 8.9375 C3.36667969 9.97777344 3.54585938 11.01804687 3.73046875 12.08984375 C3.98224494 14.80829683 3.97610817 16.47791704 3 19 C2.34 19.66 1.68 20.32 1 21 C0 20 0 20 -0.11352539 18.05053711 C-0.10567017 16.8015564 -0.10567017 16.8015564 -0.09765625 15.52734375 C-0.09443359 14.62822266 -0.09121094 13.72910156 -0.08789062 12.80273438 C-0.07951172 11.85720703 -0.07113281 10.91167969 -0.0625 9.9375 C-0.05798828 8.98810547 -0.05347656 8.03871094 -0.04882812 7.06054688 C-0.0370011 4.70696935 -0.02052025 2.35351523 0 0 Z " fill="#D2A644" transform="translate(4,69)"/>
<path d="M0 0 C0.33 0 0.66 0 1 0 C1.33 3.96 1.66 7.92 2 12 C3.98 11.34 5.96 10.68 8 10 C8 13 8 13 6.50390625 14.82421875 C5.54291016 15.74654297 5.54291016 15.74654297 4.5625 16.6875 C3.92441406 17.31011719 3.28632812 17.93273437 2.62890625 18.57421875 C1 20 1 20 0 20 C0 13.4 0 6.8 0 0 Z " fill="#E6E6E6" transform="translate(65,63)"/>
<path d="M0 0 C0 0.33 0 0.66 0 1 C-1.98 1.33 -3.96 1.66 -6 2 C-4.68 2.66 -3.36 3.32 -2 4 C-2.85722656 4.06058594 -3.71445312 4.12117188 -4.59765625 4.18359375 C-10.43604873 4.61143536 -16.22057272 5.059163 -22 6 C-18.88944286 1.75833118 -15.54484271 1.13814847 -10.6171875 0.3046875 C-7.03442846 -0.11240982 -3.60329838 -0.1334555 0 0 Z " fill="#915813" transform="translate(34,20)"/>
<path d="M0 0 C0.98120464 3.05263664 0.98120464 4.94736336 0 8 C-0.66 8 -1.32 8 -2 8 C-1.67 14.6 -1.34 21.2 -1 28 C-3.95688751 25.04311249 -3.50372914 21.72613309 -3.6875 17.75 C-3.73455078 16.99847656 -3.78160156 16.24695313 -3.83007812 15.47265625 C-4.40428278 4.68513933 -4.40428278 4.68513933 -1.4375 1.125 C-0.963125 0.75375 -0.48875 0.3825 0 0 Z " fill="#D7AC28" transform="translate(29,74)"/>
<path d="M0 0 C0.33 0 0.66 0 1 0 C1.02187378 0.91495239 1.02187378 0.91495239 1.04418945 1.84838867 C1.11894775 4.62871064 1.21551482 7.40786824 1.3125 10.1875 C1.33505859 11.14720703 1.35761719 12.10691406 1.38085938 13.09570312 C1.57959522 18.31703579 1.92515977 21.62268053 5 26 C5 27.32 5 28.64 5 30 C4.34 30 3.68 30 3 30 C-0.74595838 20.55367018 -3.02694796 10.04177974 0 0 Z " fill="#B54B15" transform="translate(29,78)"/>
<path d="M0 0 C0.625 1.8125 0.625 1.8125 1 4 C0.01 5.485 0.01 5.485 -1 7 C-1.27059523 8.55592259 -1.52855042 10.1153426 -1.71484375 11.68359375 C-2.09594307 14.77937314 -2.58293204 17.85552132 -3.0625 20.9375 C-3.23910156 22.08089844 -3.41570313 23.22429687 -3.59765625 24.40234375 C-3.73042969 25.25957031 -3.86320312 26.11679688 -4 27 C-4.33 27 -4.66 27 -5 27 C-5.08164159 24.3118751 -5.14079668 21.626277 -5.1875 18.9375 C-5.22520508 17.80924805 -5.22520508 17.80924805 -5.26367188 16.65820312 C-5.35057603 9.96658357 -3.74710708 5.62066063 0 0 Z " fill="#E3434E" transform="translate(38,64)"/>
<path d="M0 0 C0.639375 0.474375 1.27875 0.94875 1.9375 1.4375 C-1.10155386 2.36071855 -3.46244788 2.45912761 -6.609375 2.09765625 C-7.45371094 2.00419922 -8.29804687 1.91074219 -9.16796875 1.81445312 C-10.47701172 1.65879883 -10.47701172 1.65879883 -11.8125 1.5 C-12.70066406 1.40009766 -13.58882813 1.30019531 -14.50390625 1.19726562 C-16.69090871 0.95034599 -18.87694667 0.69688365 -21.0625 0.4375 C-21.0625 0.1075 -21.0625 -0.2225 -21.0625 -0.5625 C-13.70570543 -2.66692587 -7.01447174 -3.57881211 0 0 Z " fill="#7D490B" transform="translate(113.0625,23.5625)"/>
<path d="M0 0 C2.97 0 5.94 0 9 0 C9 0.66 9 1.32 9 2 C10.65 2 12.3 2 14 2 C14 2.66 14 3.32 14 4 C15.65 4.33 17.3 4.66 19 5 C19 5.99 19 6.98 19 8 C17.20620902 7.55005243 15.41501072 7.08975857 13.625 6.625 C12.62726563 6.36976562 11.62953125 6.11453125 10.6015625 5.8515625 C8 5 8 5 6 3 C4.01643517 2.28591666 2.01684563 1.61382258 0 1 C0 0.67 0 0.34 0 0 Z " fill="#F4CE47" transform="translate(96,15)"/>
<path d="M0 0 C0.99 0.33 1.98 0.66 3 1 C3.3125 3.1875 3.3125 3.1875 3 6 C0.5 8.8125 0.5 8.8125 -2 11 C-2.99 10.67 -3.98 10.34 -5 10 C-4.67 7.69 -4.34 5.38 -4 3 C-3.01 3 -2.02 3 -1 3 C-0.67 2.01 -0.34 1.02 0 0 Z " fill="#F0F0F2" transform="translate(83,71)"/>
<path d="M0 0 C0.99 0 1.98 0 3 0 C3 1.65 3 3.3 3 5 C4.98 5 6.96 5 9 5 C6.31874409 7.68125591 4.85875084 7.29880654 1.125 7.3125 C0.07570313 7.32925781 -0.97359375 7.34601563 -2.0546875 7.36328125 C-5.28698414 6.96460275 -6.62995258 6.16968109 -9 4 C-6.03 4.33 -3.06 4.66 0 5 C0 3.35 0 1.7 0 0 Z " fill="#B48998" transform="translate(62,107)"/>
<path d="M0 0 C0.66 0 1.32 0 2 0 C0.46182507 4.61452479 -3.03724637 6.05039722 -7.0546875 8.546875 C-11.08232274 10.53398417 -13.60159428 10.58092151 -18 10 C-18 8.35 -18 6.7 -18 5 C-17.67 5.66 -17.34 6.32 -17 7 C-14.30114269 7.57422496 -11.76207303 8 -9 8 C-8.79375 7.401875 -8.5875 6.80375 -8.375 6.1875 C-6.48963772 3.18806001 -4.18033026 2.42099863 -1 1 C-0.67 0.67 -0.34 0.34 0 0 Z " fill="#C8BFBF" transform="translate(83,102)"/>
<path d="M0 0 C2.59736956 1.29868478 2.90391639 2.33483404 4 5 C4.4085633 6.86390318 4.76033628 8.74092035 5.0625 10.625 C5.6380335 14.43970721 5.6380335 14.43970721 7 18 C6.01 18 5.02 18 4 18 C3.79503906 17.43410156 3.59007812 16.86820313 3.37890625 16.28515625 C3.10949219 15.55167969 2.84007812 14.81820312 2.5625 14.0625 C2.29566406 13.33160156 2.02882812 12.60070312 1.75390625 11.84765625 C1.14613052 10.01694322 1.14613052 10.01694322 0 9 C-0.07179964 7.48071962 -0.08392007 5.95832518 -0.0625 4.4375 C-0.05347656 3.61121094 -0.04445313 2.78492187 -0.03515625 1.93359375 C-0.02355469 1.29550781 -0.01195313 0.65742187 0 0 Z " fill="#BA371E" transform="translate(30,90)"/>
<path d="M0 0 C1.134375 0.020625 2.26875 0.04125 3.4375 0.0625 C0.42259443 2.07243705 -1.7774927 2.78873341 -5.25 3.6875 C-6.74080078 4.07808594 -6.74080078 4.07808594 -8.26171875 4.4765625 C-9.02097656 4.66992188 -9.78023437 4.86328125 -10.5625 5.0625 C-10.5625 5.7225 -10.5625 6.3825 -10.5625 7.0625 C-12.5425 7.3925 -14.5225 7.7225 -16.5625 8.0625 C-17.2225 7.0725 -17.8825 6.0825 -18.5625 5.0625 C-13.79746378 2.82585035 -9.84060598 1.69587272 -4.5625 1.0625 C-3.5625 0.0625 -3.5625 0.0625 0 0 Z " fill="#F0D1D4" transform="translate(56.5625,86.9375)"/>
<path d="M0 0 C0.68707555 2.49064888 1 4.37886292 1 7 C0.01 7.495 0.01 7.495 -1 8 C-0.67 8.99 -0.34 9.98 0 11 C-2.6666419 12.33332095 -4.16680303 11.67102033 -7 11 C-6.45912682 7.21388773 -4.88277668 5.44599233 -2 3 C-1.34 3 -0.68 3 0 3 C0 2.01 0 1.02 0 0 Z " fill="#E8E1E2" transform="translate(79,75)"/>
<path d="M0 0 C1.86718689 2.80078034 3.54204238 5.62725376 5.1875 8.5625 C5.73792969 9.53316406 6.28835937 10.50382812 6.85546875 11.50390625 C7.23316406 12.32761719 7.61085938 13.15132812 8 14 C7.67 14.66 7.34 15.32 7 16 C1.125 11.375 1.125 11.375 0 8 C-0.12781786 5.32605036 -0.04391871 2.67904143 0 0 Z " fill="#D23744" transform="translate(37,94)"/>
<path d="M0 0 C2.92823675 0.65071928 4.58437978 1.34934854 6.22265625 3.9140625 C7.21209415 5.92130928 8.14005307 7.9342057 9 10 C5.00499382 8.6302836 2.19990508 6.74277578 -1 4 C-0.67 2.68 -0.34 1.36 0 0 Z " fill="#F38C99" transform="translate(76,55)"/>
<path d="M0 0 C0 0.33 0 0.66 0 1 C-1.08539063 1.18175781 -2.17078125 1.36351562 -3.2890625 1.55078125 C-4.73446137 1.80419534 -6.17976918 2.05812925 -7.625 2.3125 C-8.33785156 2.43044922 -9.05070312 2.54839844 -9.78515625 2.66992188 C-14.33544336 3.48396406 -17.87154278 4.83891609 -22 7 C-22.99 7 -23.98 7 -25 7 C-25 6.01 -25 5.02 -25 4 C-16.59186659 1.48877082 -8.8795045 -0.75214626 0 0 Z " fill="#C5845C" transform="translate(68,51)"/>
<path d="M0 0 C0 0.66 0 1.32 0 2 C0.99 2.33 1.98 2.66 3 3 C-3.93 4.485 -3.93 4.485 -11 6 C-9 2 -9 2 -5.5 0.75 C-2 0 -2 0 0 0 Z " fill="#EBC960" transform="translate(55,49)"/>
<path d="M0 0 C0.66 0.33 1.32 0.66 2 1 C1.48050781 1.53367188 0.96101563 2.06734375 0.42578125 2.6171875 C-4.60910909 7.99642339 -8.06761469 13.24705498 -11 20 C-11.91881757 17.49877439 -12.13154862 16.3501699 -11.1796875 13.81640625 C-8.5430075 9.26142314 -5.97091807 5.54162963 -2 2 C-1.34 1.34 -0.68 0.68 0 0 Z " fill="#C24728" transform="translate(42,58)"/>
<path d="M0 0 C1.71090684 2.18977479 2.98315027 3.95682256 4 6.5625 C5.01257108 9.03064201 6.00366422 10.27589183 8 12 C7.01 12.33 6.02 12.66 5 13 C2.859375 11.88671875 2.859375 11.88671875 1 10 C0.390625 7.51953125 0.390625 7.51953125 0.25 4.8125 C0.19328125 3.91144531 0.1365625 3.01039062 0.078125 2.08203125 C0.05234375 1.39496094 0.0265625 0.70789063 0 0 Z " fill="#CC302B" transform="translate(34,96)"/>
<path d="M0 0 C0.33 0 0.66 0 1 0 C1.5817757 18.81074766 1.5817757 18.81074766 -3.125 24.625 C-4.053125 25.305625 -4.053125 25.305625 -5 26 C-3.125 19.125 -3.125 19.125 -2 18 C-1.77486899 16.66197814 -1.60639193 15.31426977 -1.46484375 13.96484375 C-1.37783203 13.15595703 -1.29082031 12.34707031 -1.20117188 11.51367188 C-1.11416016 10.66353516 -1.02714844 9.81339844 -0.9375 8.9375 C-0.84662109 8.08349609 -0.75574219 7.22949219 -0.66210938 6.34960938 C-0.43749278 4.23348465 -0.21824773 2.11679106 0 0 Z " fill="#B97A1A" transform="translate(98,82)"/>
<path d="M0 0 C0 0.66 0 1.32 0 2 C-0.99 2.66 -1.98 3.32 -3 4 C-2.01 4.66 -1.02 5.32 0 6 C-1.43725871 6.16873478 -2.87481838 6.33490737 -4.3125 6.5 C-5.11300781 6.5928125 -5.91351563 6.685625 -6.73828125 6.78125 C-9 7 -9 7 -12 7 C-3.89473684 0 -3.89473684 0 0 0 Z " fill="#EED87D" transform="translate(21,14)"/>
<path d="M0 0 C0.99 0.33 1.98 0.66 3 1 C-0.31181407 6.76500968 -0.31181407 6.76500968 -3.5625 7.875 C-5.37309963 7.96785126 -7.18702114 8 -9 8 C-8.07213211 6.99105628 -7.13231567 5.99309093 -6.1875 5 C-5.66542969 4.443125 -5.14335938 3.88625 -4.60546875 3.3125 C-3 2 -3 2 0 2 C0 1.34 0 0.68 0 0 Z " fill="#CA443A" transform="translate(90,103)"/>
<path d="M0 0 C1.55952523 3.11905047 0.6359489 5.64681487 0 9 C-1.0625 11.4375 -1.0625 11.4375 -2 13 C-3.32 13 -4.64 13 -6 13 C-5.6875 10.625 -5.6875 10.625 -5 8 C-4.01 7.34 -3.02 6.68 -2 6 C-0.78715124 2.94570927 -0.78715124 2.94570927 0 0 Z " fill="#C73A28" transform="translate(96,90)"/>
<path d="M0 0 C0.33 0 0.66 0 1 0 C1.06058594 0.61488281 1.12117188 1.22976562 1.18359375 1.86328125 C1.26738281 2.67152344 1.35117188 3.47976562 1.4375 4.3125 C1.51871094 5.11300781 1.59992188 5.91351563 1.68359375 6.73828125 C1.95265693 9.16087179 1.95265693 9.16087179 3 12 C1.5625 15.1875 1.5625 15.1875 0 18 C-0.33 18 -0.66 18 -1 18 C-0.505 9.09 -0.505 9.09 0 0 Z " fill="#CEA121" transform="translate(99,84)"/>
<path d="M0 0 C0.12375 0.639375 0.2475 1.27875 0.375 1.9375 C0.58125 2.618125 0.7875 3.29875 1 4 C1.66 4.33 2.32 4.66 3 5 C2.67 5.33 2.34 5.66 2 6 C1.76636119 7.84891946 1.58696365 9.70488031 1.4375 11.5625 C1.35371094 12.57441406 1.26992187 13.58632812 1.18359375 14.62890625 C1.12300781 15.41136719 1.06242188 16.19382812 1 17 C-1.24666134 13.63000798 -1.2457371 12.43894538 -1.1875 8.5 C-1.18105469 7.5409375 -1.17460938 6.581875 -1.16796875 5.59375 C-1 3 -1 3 0 0 Z " fill="#C59532" transform="translate(7,89)"/>
<path d="M0 0 C0.33 0.66 0.66 1.32 1 2 C0.67 2.66 0.34 3.32 0 4 C0.66 4.33 1.32 4.66 2 5 C0.71349294 5.69710731 -0.57940665 6.38242876 -1.875 7.0625 C-2.95394531 7.63677734 -2.95394531 7.63677734 -4.0546875 8.22265625 C-4.69664063 8.47917969 -5.33859375 8.73570313 -6 9 C-6.66 8.67 -7.32 8.34 -8 8 C-7.04578192 6.85073734 -6.08647955 5.70569459 -5.125 4.5625 C-4.59132812 3.92441406 -4.05765625 3.28632812 -3.5078125 2.62890625 C-2 1 -2 1 0 0 Z " fill="#F6A0AD" transform="translate(52,54)"/>
<path d="M0 0 C0.66 0.33 1.32 0.66 2 1 C1.38461538 6.53846154 1.38461538 6.53846154 -0.5625 8.875 C-1.2740625 9.431875 -1.2740625 9.431875 -2 10 C-2.99 9.67 -3.98 9.34 -5 9 C-4.01 8.34 -3.02 7.68 -2 7 C-1.27617533 4.94074861 -1.27617533 4.94074861 -1 3 C-2.32 3.33 -3.64 3.66 -5 4 C-5 3.34 -5 2.68 -5 2 C-2.625 0.9375 -2.625 0.9375 0 0 Z " fill="#DA9712" transform="translate(117,102)"/>
<path d="M0 0 C3.317124 4.422832 3.30466674 5.71910976 3 11 C1.68 11 0.36 11 -1 11 C-0.67 7.37 -0.34 3.74 0 0 Z " fill="#DEC8CA" transform="translate(87,73)"/>
<path d="M0 0 C3.375 -0.1875 3.375 -0.1875 7 0 C7.66 0.99 8.32 1.98 9 3 C2.565 3.495 2.565 3.495 -4 4 C-2.68 3.34 -1.36 2.68 0 2 C0 1.34 0 0.68 0 0 Z " fill="#EDCC56" transform="translate(21,14)"/>
<path d="M0 0 C2.375 0.1875 2.375 0.1875 5 1 C6.3125 3.5625 6.3125 3.5625 7 6 C4.69 5.67 2.38 5.34 0 5 C-0.33 4.01 -0.66 3.02 -1 2 C-0.67 1.34 -0.34 0.68 0 0 Z " fill="#F7B4C0" transform="translate(70,53)"/>
<path d="M0 0 C0.33 0 0.66 0 1 0 C1 2.97 1 5.94 1 9 C0.67 8.01 0.34 7.02 0 6 C-1.98 6 -3.96 6 -6 6 C-6 5.01 -6 4.02 -6 3 C-4.02 3 -2.04 3 0 3 C0 2.01 0 1.02 0 0 Z " fill="#745C5C" transform="translate(90,81)"/>
<path d="M0 0 C0 5.71653979 -3.17712102 10.20110574 -6 15 C-6.33 14.01 -6.66 13.02 -7 12 C-6.34 11.01 -5.68 10.02 -5 9 C-4.5359375 7.515 -4.5359375 7.515 -4.0625 6 C-3.04603735 3.12998783 -2.30842724 1.88871319 0 0 Z " fill="#F06377" transform="translate(43,59)"/>
<path d="M0 0 C-0.33 0.99 -0.66 1.98 -1 3 C-2.6635479 3.67441131 -4.33066942 4.3400321 -6 5 C-8.27191416 7.02040748 -8.27191416 7.02040748 -10 9 C-8.87548273 6.0280615 -7.77706209 3.66559313 -6 1 C-3.88864324 0.27422112 -2.22998296 0 0 0 Z " fill="#FCF593" transform="translate(14,28)"/>
<path d="M0 0 C0.66 1.32 1.32 2.64 2 4 C-1.8503105 6.56687367 -3.58569763 5.83288724 -8 5 C-8 4.34 -8 3.68 -8 3 C-5.03 3.495 -5.03 3.495 -2 4 C-2 3.01 -2 2.02 -2 1 C-1.34 0.67 -0.68 0.34 0 0 Z " fill="#A0A0A1" transform="translate(67,89)"/>
<path d="M0 0 C2.10388569 -0.05402274 4.20816714 -0.09280256 6.3125 -0.125 C8.07013672 -0.15980469 8.07013672 -0.15980469 9.86328125 -0.1953125 C13 0 13 0 16 2 C12.34606463 3.26823485 9.50929974 2.75715321 5.75 2.0625 C4.67234375 1.86785156 3.5946875 1.67320313 2.484375 1.47265625 C1.66453125 1.31667969 0.8446875 1.16070312 0 1 C0 0.67 0 0.34 0 0 Z " fill="#AA575A" transform="translate(57,57)"/>
<path d="M0 0 C1.953125 0.13020833 3.90625 0.26041667 5.859375 0.390625 C5.859375 1.050625 5.859375 1.710625 5.859375 2.390625 C1.899375 3.050625 -2.060625 3.710625 -6.140625 4.390625 C-2.140625 0.390625 -2.140625 0.390625 0 0 Z " fill="#7A4206" transform="translate(18.140625,21.609375)"/>
<path d="M0 0 C-1.36983503 3.16115776 -1.9890638 3.9927092 -5 6 C-7.1875 5.625 -7.1875 5.625 -9 5 C-7.87926138 4.16094435 -6.75325453 3.32892169 -5.625 2.5 C-4.99851562 2.0359375 -4.37203125 1.571875 -3.7265625 1.09375 C-2 0 -2 0 0 0 Z " fill="#CC5E4B" transform="translate(88,109)"/>
<path d="M0 0 C0.66 0 1.32 0 2 0 C5 3.46153846 5 3.46153846 5 6 C5.66 6 6.32 6 7 6 C7 6.66 7 7.32 7 8 C5.02 7.34 3.04 6.68 1 6 C1 4.68 1 3.36 1 2 C0.34 1.67 -0.32 1.34 -1 1 C-0.67 0.67 -0.34 0.34 0 0 Z " fill="#DA9F11" transform="translate(27,102)"/>
<path d="M0 0 C0.33 0.99 0.66 1.98 1 3 C-1.97 5.475 -1.97 5.475 -5 8 C-4.67 8.66 -4.34 9.32 -4 10 C-5.32 10.33 -6.64 10.66 -8 11 C-8 8 -8 8 -6.25 5.95703125 C-5.5075 5.24933594 -4.765 4.54164062 -4 3.8125 C-2.88625 2.73935547 -2.88625 2.73935547 -1.75 1.64453125 C-1.1725 1.10183594 -0.595 0.55914062 0 0 Z " fill="#A19495" transform="translate(78,75)"/>
<path d="M0 0 C0 3 0 3 -1.53125 4.82421875 C-2.1809375 5.43910156 -2.830625 6.05398437 -3.5 6.6875 C-4.1496875 7.31011719 -4.799375 7.93273437 -5.46875 8.57421875 C-5.9740625 9.04472656 -6.479375 9.51523438 -7 10 C-7.99 9.67 -8.98 9.34 -10 9 C-9.34 9 -8.68 9 -8 9 C-8 8.34 -8 7.68 -8 7 C-6.25 5.2734375 -6.25 5.2734375 -4 3.375 C-3.2575 2.74335937 -2.515 2.11171875 -1.75 1.4609375 C-1.1725 0.97882813 -0.595 0.49671875 0 0 Z " fill="#595A58" transform="translate(78,73)"/>
<path d="M0 0 C0.6875 1.625 0.6875 1.625 1 4 C-0.3125 7 -0.3125 7 -2 10 C-2.391875 10.78375 -2.78375 11.5675 -3.1875 12.375 C-3.455625 12.91125 -3.72375 13.4475 -4 14 C-4.49940808 7.88225104 -3.24900602 4.97504047 0 0 Z " fill="#D5BBBA" transform="translate(41,70)"/>
<path d="M0 0 C3.3 0.33 6.6 0.66 10 1 C10 1.66 10 2.32 10 3 C10.66 3 11.32 3 12 3 C12.33 3.99 12.66 4.98 13 6 C12.34 5.731875 11.68 5.46375 11 5.1875 C7.35060933 3.74294953 3.67754567 2.37128822 0 1 C0 0.67 0 0.34 0 0 Z " fill="#D69059" transform="translate(70,52)"/>
<path d="M0 0 C4.875 3.75 4.875 3.75 6 6 C6.039992 7.99960012 6.04346799 10.00047242 6 12 C2.77304197 10.38652099 2.33776685 7.23293656 1 4 C0.34 3.01 -0.32 2.02 -1 1 C-0.67 0.67 -0.34 0.34 0 0 Z " fill="#E6C465" transform="translate(116,21)"/>
<path d="M0 0 C1.32 0.66 2.64 1.32 4 2 C4 2.66 4 3.32 4 4 C3.01 4 2.02 4 1 4 C0.67 5.32 0.34 6.64 0 8 C-0.33 8 -0.66 8 -1 8 C-1.04241723 5.66705225 -1.04092937 3.33297433 -1 1 C-0.67 0.67 -0.34 0.34 0 0 Z " fill="#F5DA63" transform="translate(119,36)"/>
<path d="M0 0 C3.24745514 4.13312472 5 6.63932628 5 12 C4.34 12 3.68 12 3 12 C2.49166409 10.75336669 1.99368855 9.50250613 1.5 8.25 C1.2215625 7.55390625 0.943125 6.8578125 0.65625 6.140625 C0 4 0 4 0 0 Z " fill="#AC6813" transform="translate(29,96)"/>
<path d="M0 0 C0.6875 1.75 0.6875 1.75 1 4 C-0.125 6.1875 -0.125 6.1875 -2 8 C-4.6875 8.75 -4.6875 8.75 -7 9 C-6.401875 8.443125 -5.80375 7.88625 -5.1875 7.3125 C-3.0136554 5.01443571 -1.53101917 2.75583451 0 0 Z " fill="#C04A5B" transform="translate(87,99)"/>
<path d="M0 0 C2.31 1.98 4.62 3.96 7 6 C6.67 6.66 6.34 7.32 6 8 C3.5625 7.375 3.5625 7.375 1 6 C0.1875 2.875 0.1875 2.875 0 0 Z " fill="#E5CDCE" transform="translate(80,65)"/>
<path d="M0 0 C0.33 0.99 0.66 1.98 1 3 C2.65 3 4.3 3 6 3 C6 3.99 6 4.98 6 6 C4.02 6 2.04 6 0 6 C0 4.02 0 2.04 0 0 Z " fill="#5B5150" transform="translate(36,81)"/>
<path d="M0 0 C0.66 0 1.32 0 2 0 C1.67 0.598125 1.34 1.19625 1 1.8125 C-0.20787988 4.05386471 -0.20787988 4.05386471 0 7 C-0.99 7.33 -1.98 7.66 -3 8 C-3.33 7.01 -3.66 6.02 -4 5 C-2.1875 2.3125 -2.1875 2.3125 0 0 Z " fill="#F3DC6D" transform="translate(7,34)"/>
<path d="M0 0 C3.63 0 7.26 0 11 0 C11.33 0.99 11.66 1.98 12 3 C10.18674449 2.88648483 8.37436643 2.75887039 6.5625 2.625 C5.04849609 2.52058594 5.04849609 2.52058594 3.50390625 2.4140625 C2.67761719 2.27742188 1.85132813 2.14078125 1 2 C0.67 1.34 0.34 0.68 0 0 Z " fill="#CAC0C2" transform="translate(50,109)"/>
<path d="M0 0 C0.99 0.33 1.98 0.66 3 1 C3 4.3 3 7.6 3 11 C0.60236815 8.60236815 0.65719414 7.66726502 0.375 4.375 C0.30023438 3.55773437 0.22546875 2.74046875 0.1484375 1.8984375 C0.09945313 1.27195312 0.05046875 0.64546875 0 0 Z " fill="#DE9D12" transform="translate(8,96)"/>
<path d="M0 0 C2.15502531 3.23253796 2.46856135 4.25150923 2 8 C0.5 9.8125 0.5 9.8125 -1 11 C-1.125 3.375 -1.125 3.375 0 0 Z " fill="#C99727" transform="translate(6,79)"/>
<path d="M0 0 C0.99 0 1.98 0 3 0 C1.54744301 3.82946843 -0.42895561 5.12050295 -4 7 C-4 6.01 -4 5.02 -4 4 C-3.34 4 -2.68 4 -2 4 C-2 3.34 -2 2.68 -2 2 C-1.34 1.34 -0.68 0.68 0 0 Z " fill="#E4B353" transform="translate(40,56)"/>
<path d="M0 0 C0.33 0.66 0.66 1.32 1 2 C0.25 4.0625 0.25 4.0625 -1 6 C-1.99 6.33 -2.98 6.66 -4 7 C-4.66 6.34 -5.32 5.68 -6 5 C-4.02 3.35 -2.04 1.7 0 0 Z " fill="#844618" transform="translate(88,110)"/>
<path d="M0 0 C0.98120464 3.05263664 0.98120464 4.94736336 0 8 C-0.66 8 -1.32 8 -2 8 C-2.6875 5.6875 -2.6875 5.6875 -3 3 C-1.5625 1.1875 -1.5625 1.1875 0 0 Z " fill="#D39732" transform="translate(29,74)"/>
<path d="M0 0 C4.29 0 8.58 0 13 0 C13 0.66 13 1.32 13 2 C11.68 2.33 10.36 2.66 9 3 C9 2.34 9 1.68 9 1 C6.03 1 3.06 1 0 1 C0 0.67 0 0.34 0 0 Z " fill="#E5BA66" transform="translate(59,50)"/>
<path d="M0 0 C1.670625 0.37125 1.670625 0.37125 3.375 0.75 C3.705 1.41 4.035 2.07 4.375 2.75 C0.745 2.42 -2.885 2.09 -6.625 1.75 C-3.625 -0.25 -3.625 -0.25 0 0 Z " fill="#815612" transform="translate(110.625,23.25)"/>
<path d="M0 0 C0.99 0 1.98 0 3 0 C3 1.98 3 3.96 3 6 C2.01 6 1.02 6 0 6 C0 4.02 0 2.04 0 0 Z " fill="#3C3D3E" transform="translate(62,107)"/>
<path d="M0 0 C0.99 1.32 1.98 2.64 3 4 C1.74458443 6.51083114 0.49936512 6.87125446 -2 8 C-1.34 5.36 -0.68 2.72 0 0 Z " fill="#C13F49" transform="translate(90,90)"/>
<path d="M0 0 C0.99 0.33 1.98 0.66 3 1 C3 2.32 3 3.64 3 5 C0.03 4.505 0.03 4.505 -3 4 C-2.34 3.67 -1.68 3.34 -1 3 C-0.67 2.01 -0.34 1.02 0 0 Z " fill="#343336" transform="translate(62,88)"/>
<path d="M0 0 C2.31 0 4.62 0 7 0 C7 0.99 7 1.98 7 3 C5.02 3 3.04 3 1 3 C0.67 2.01 0.34 1.02 0 0 Z " fill="#EFD462" transform="translate(71,49)"/>
<path d="M0 0 C3.465 1.98 3.465 1.98 7 4 C7 4.33 7 4.66 7 5 C5.02 5 3.04 5 1 5 C0.67 3.35 0.34 1.7 0 0 Z " fill="#C5465A" transform="translate(44,106)"/>
<path d="M0 0 C1 3 1 3 -0.3125 5.6875 C-0.869375 6.450625 -1.42625 7.21375 -2 8 C-2.66 8 -3.32 8 -4 8 C-3.40072174 4.64404172 -2.15377564 2.62198774 0 0 Z " fill="#A55713" transform="translate(93,103)"/>
<path d="M0 0 C2.31 0.66 4.62 1.32 7 2 C7 2.99 7 3.98 7 5 C3.34683329 3.75023244 2.21934164 3.32901247 0 0 Z " fill="#C9AEB1" transform="translate(43,104)"/>
<path d="M0 0 C0.99 0.33 1.98 0.66 3 1 C2.195625 1.61875 1.39125 2.2375 0.5625 2.875 C-2.03874519 4.74164041 -2.03874519 4.74164041 -3 7 C-3.66 7 -4.32 7 -5 7 C-3.70700306 4.11562221 -2.34058637 2.12780579 0 0 Z " fill="#9F9F9F" transform="translate(76,72)"/>
<path d="M0 0 C0.33 0.66 0.66 1.32 1 2 C1.66 2.33 2.32 2.66 3 3 C4.125 5.0625 4.125 5.0625 5 7 C3.02 6.34 1.04 5.68 -1 5 C-1 2 -1 2 0 0 Z " fill="#F49EAD" transform="translate(76,55)"/>
<path d="M0 0 C-0.33 0.99 -0.66 1.98 -1 3 C-2.65 3.33 -4.3 3.66 -6 4 C-6 3.01 -6 2.02 -6 1 C-3 0 -3 0 0 0 Z " fill="#D5874F" transform="translate(49,54)"/>
<path d="M0 0 C2.64 0 5.28 0 8 0 C8.33 1.32 8.66 2.64 9 4 C6.03 3.01 3.06 2.02 0 1 C0 0.67 0 0.34 0 0 Z " fill="#EDD47F" transform="translate(23,13)"/>
</svg>
