<?xml version="1.0" standalone="no"?>
<!DOCTYPE svg PUBLIC "-//W3C//DTD SVG 20010904//EN"
 "http://www.w3.org/TR/2001/REC-SVG-20010904/DTD/svg10.dtd">
<svg version="1.0" xmlns="http://www.w3.org/2000/svg"
 width="500.000000pt" height="250.000000pt" viewBox="0 0 500.000000 250.000000"
 preserveAspectRatio="xMidYMid meet">

<g transform="translate(0.000000,250.000000) scale(0.100000,-0.100000)"
fill="#000000" stroke="none">
<path d="M3170 1910 c0 -7 172 -10 495 -10 323 0 495 3 495 10 0 7 -172 10
-495 10 -323 0 -495 -3 -495 -10z"/>
<path d="M807 1593 c-4 -3 -7 -132 -7 -285 l0 -278 200 0 200 0 0 50 0 50
-145 0 -145 0 0 235 0 235 -48 0 c-27 0 -52 -3 -55 -7z"/>
<path d="M1260 1428 c0 -207 13 -266 72 -333 87 -98 253 -101 348 -6 66 66 75
106 75 326 l0 180 -52 3 -51 3 -4 -183 c-4 -202 -14 -242 -64 -275 -39 -25
-114 -24 -151 3 -49 36 -62 97 -63 287 l0 167 -55 0 -55 0 0 -172z"/>
<path d="M1870 1315 l0 -285 55 0 55 0 2 177 3 176 140 -176 140 -177 48 0 47
0 0 286 0 285 -52 -3 -53 -3 -5 -184 -5 -183 -145 186 -145 186 -42 0 -43 0 0
-285z"/>
<path d="M2625 1568 c-20 -44 -195 -520 -195 -530 0 -14 110 -9 115 5 2 6 14
38 25 70 l21 57 98 0 98 0 25 -67 25 -68 56 -3 c31 -2 57 -1 57 2 0 7 -176
487 -195 533 -13 31 -17 33 -65 33 -47 0 -51 -2 -65 -32z m103 -206 c18 -54
32 -101 32 -105 0 -4 -33 -7 -74 -7 l-75 0 36 105 c19 58 38 105 42 105 4 0
21 -44 39 -98z"/>
<path d="M3020 1316 l0 -286 55 0 55 0 0 95 0 95 53 0 52 0 58 -95 59 -95 59
0 c32 0 59 2 59 5 0 2 -27 48 -60 101 l-60 97 39 36 c70 65 79 169 21 250 -49
67 -74 75 -242 79 l-148 4 0 -286z m270 171 c13 -7 31 -29 38 -49 13 -33 12
-41 -4 -75 l-19 -38 -87 -3 -88 -3 0 91 0 90 68 0 c37 0 78 -6 92 -13z"/>
<path d="M3550 1315 l0 -285 55 0 55 0 0 285 0 285 -55 0 -55 0 0 -285z"/>
<path d="M3925 1568 c-20 -44 -195 -520 -195 -530 0 -14 110 -9 115 5 2 6 14
38 25 70 l21 57 98 0 98 0 25 -67 25 -68 56 -3 c31 -2 57 -1 57 2 0 7 -176
487 -195 533 -13 31 -17 33 -65 33 -47 0 -51 -2 -65 -32z m103 -206 c18 -54
32 -101 32 -105 0 -4 -33 -7 -74 -7 l-75 0 36 105 c19 58 38 105 42 105 4 0
21 -44 39 -98z"/>
<path d="M2136 764 c-26 -26 -19 -57 21 -90 33 -27 36 -34 24 -48 -17 -20 -50
-21 -57 -1 -9 21 -24 19 -24 -4 0 -28 53 -38 85 -17 36 23 32 57 -11 95 -40
37 -40 55 -1 59 20 3 27 -1 27 -14 0 -13 3 -15 11 -7 7 7 9 19 6 27 -8 21 -61
21 -81 0z"/>
<path d="M2313 704 c-2 -42 -8 -83 -14 -90 -9 -11 -5 -14 22 -14 21 0 29 3 21
8 -8 6 -10 19 -6 40 6 28 10 32 40 32 32 0 34 -2 34 -34 0 -19 -6 -37 -12 -39
-7 -3 1 -6 17 -6 l30 -1 3 78 c1 42 7 79 12 80 21 7 8 22 -19 22 -28 0 -29 -1
-24 -40 l6 -40 -40 0 c-38 0 -39 1 -35 30 2 17 8 30 13 30 5 0 9 5 9 10 0 6
-12 10 -27 10 -28 0 -28 0 -30 -76z"/>
<path d="M2587 769 c-48 -28 -61 -116 -22 -154 28 -29 36 -30 74 -10 50 25 66
104 30 149 -21 27 -51 33 -82 15z m64 -30 c13 -25 6 -93 -11 -114 -18 -22 -48
-18 -61 6 -13 25 -6 93 11 114 18 22 48 18 61 -6z"/>
<path d="M2783 699 c-1 -56 -6 -85 -15 -90 -8 -6 2 -8 27 -8 22 0 34 3 28 6
-7 2 -13 16 -13 29 0 20 5 24 29 24 30 0 71 38 71 66 0 29 -39 54 -82 54 l-43
0 -2 -81z m92 42 c7 -25 -3 -49 -27 -62 -27 -15 -36 -1 -31 44 4 31 9 37 28
37 14 0 26 -7 30 -19z"/>
<path d="M930 685 c0 -13 58 -15 493 -13 319 2 492 7 492 13 0 6 -173 11 -492
13 -435 2 -493 0 -493 -13z"/>
</g>
</svg>
