<svg width="80" height="80" viewBox="0 0 80 80" fill="none" xmlns="http://www.w3.org/2000/svg">
<path d="M13.5312 15.0625C14.2561 15.0625 14.8438 14.4749 14.8438 13.75C14.8438 13.0251 14.2561 12.4375 13.5312 12.4375C12.8064 12.4375 12.2188 13.0251 12.2188 13.75C12.2188 14.4749 12.8064 15.0625 13.5312 15.0625Z" fill="#2387C3"/>
<path d="M9.8125 63.625C10.5374 63.625 11.125 63.0374 11.125 62.3125C11.125 61.5876 10.5374 61 9.8125 61C9.08763 61 8.5 61.5876 8.5 62.3125C8.5 63.0374 9.08763 63.625 9.8125 63.625Z" fill="#2387C3"/>
<path d="M4.5625 41.3125C5.28737 41.3125 5.875 40.7249 5.875 40C5.875 39.2751 5.28737 38.6875 4.5625 38.6875C3.83763 38.6875 3.25 39.2751 3.25 40C3.25 40.7249 3.83763 41.3125 4.5625 41.3125Z" fill="#2387C3"/>
<path d="M70.1875 63.625C70.9124 63.625 71.5 63.0374 71.5 62.3125C71.5 61.5876 70.9124 61 70.1875 61C69.4626 61 68.875 61.5876 68.875 62.3125C68.875 63.0374 69.4626 63.625 70.1875 63.625Z" fill="#2387C3"/>
<path d="M66.4688 15.0625C67.1936 15.0625 67.7812 14.4749 67.7812 13.75C67.7812 13.0251 67.1936 12.4375 66.4688 12.4375C65.7439 12.4375 65.1562 13.0251 65.1562 13.75C65.1562 14.4749 65.7439 15.0625 66.4688 15.0625Z" fill="#2387C3"/>
<path d="M75.4375 41.3125C76.1624 41.3125 76.75 40.7249 76.75 40C76.75 39.2751 76.1624 38.6875 75.4375 38.6875C74.7126 38.6875 74.125 39.2751 74.125 40C74.125 40.7249 74.7126 41.3125 75.4375 41.3125Z" fill="#2387C3"/>
<path d="M75.4375 36.0625C73.7265 36.0625 72.2676 37.1599 71.7258 38.6875H41.3125V26.875H66.4687C67.1935 26.875 67.7812 26.2873 67.7812 25.5625V17.4618C69.3088 16.92 70.4062 15.461 70.4062 13.75C70.4062 11.5788 68.6397 9.8125 66.4687 9.8125C64.2977 9.8125 62.5312 11.5788 62.5312 13.75C62.5312 15.461 63.6286 16.9199 65.1562 17.4618V24.25H41.3125V8.27425C42.8401 7.73252 43.9375 6.27351 43.9375 4.5625C43.9375 2.3913 42.171 0.625 40 0.625C37.8288 0.625 36.0625 2.3913 36.0625 4.5625C36.0625 6.27351 37.1599 7.73252 38.6875 8.27425V24.25H14.8438V17.4618C16.3714 16.92 17.4688 15.461 17.4688 13.75C17.4688 11.5788 15.7025 9.8125 13.5313 9.8125C11.3601 9.8125 9.5938 11.5788 9.5938 13.75C9.5938 15.461 10.6912 16.92 12.2188 17.4618V25.5625C12.2188 26.2873 12.8065 26.875 13.5313 26.875H38.6875V38.6875H8.27425C7.73252 37.1599 6.27351 36.0625 4.5625 36.0625C2.3913 36.0625 0.625 37.8288 0.625 40C0.625 42.1712 2.3913 43.9375 4.5625 43.9375C6.27351 43.9375 7.73252 42.8401 8.27425 41.3125H38.6875V51.8125H18.7813C18.4277 51.8125 18.0891 51.9552 17.842 52.2082L11.4656 58.7402C10.9626 58.5064 10.4028 58.375 9.8125 58.375C7.6413 58.375 5.875 60.1413 5.875 62.3125C5.875 64.4837 7.6413 66.25 9.8125 66.25C11.9837 66.25 13.75 64.4837 13.75 62.3125C13.75 61.6886 13.6035 61.0984 13.3441 60.5738L19.3342 54.4375H38.6875V71.7258C37.1599 72.2675 36.0625 73.7265 36.0625 75.4375C36.0625 77.6087 37.8288 79.375 40 79.375C42.171 79.375 43.9375 77.6087 43.9375 75.4375C43.9375 73.7265 42.8401 72.2676 41.3125 71.7258V54.4375H60.6658L66.6559 60.5738C66.3965 61.0984 66.25 61.6886 66.25 62.3125C66.25 64.4837 68.0165 66.25 70.1875 66.25C72.3585 66.25 74.125 64.4837 74.125 62.3125C74.125 60.1413 72.3585 58.375 70.1875 58.375C69.5972 58.375 69.0374 58.5064 68.5344 58.7402L62.158 52.2082C61.9109 51.9552 61.5724 51.8125 61.2187 51.8125H41.3125V41.3125H71.7258C72.2675 42.8401 73.7265 43.9375 75.4375 43.9375C77.6085 43.9375 79.375 42.1712 79.375 40C79.375 37.8288 77.6085 36.0625 75.4375 36.0625ZM66.4687 12.4375C67.1924 12.4375 67.7812 13.0263 67.7812 13.75C67.7812 14.4737 67.1924 15.0625 66.4687 15.0625C65.745 15.0625 65.1562 14.4737 65.1562 13.75C65.1562 13.0263 65.745 12.4375 66.4687 12.4375ZM13.5313 12.4375C14.255 12.4375 14.8438 13.0263 14.8438 13.75C14.8438 14.4737 14.255 15.0625 13.5313 15.0625C12.8076 15.0625 12.2188 14.4737 12.2188 13.75C12.2188 13.0263 12.8075 12.4375 13.5313 12.4375ZM4.5625 41.3125C3.83882 41.3125 3.25 40.7237 3.25 40C3.25 39.2763 3.83882 38.6875 4.5625 38.6875C5.28618 38.6875 5.875 39.2763 5.875 40C5.875 40.7237 5.28618 41.3125 4.5625 41.3125ZM8.5 62.3125C8.5 61.5888 9.08882 61 9.8125 61C10.5362 61 11.125 61.5888 11.125 62.3125C11.125 63.0362 10.5362 63.625 9.8125 63.625C9.08882 63.625 8.5 63.0362 8.5 62.3125ZM71.5 62.3125C71.5 63.0362 70.9112 63.625 70.1875 63.625C69.4638 63.625 68.875 63.0362 68.875 62.3125C68.875 61.5888 69.4638 61 70.1875 61C70.9112 61 71.5 61.5888 71.5 62.3125ZM40 3.25C40.7237 3.25 41.3125 3.83882 41.3125 4.5625C41.3125 5.28618 40.7237 5.875 40 5.875C39.2763 5.875 38.6875 5.28618 38.6875 4.5625C38.6875 3.83882 39.2763 3.25 40 3.25ZM40 76.75C39.2763 76.75 38.6875 76.1612 38.6875 75.4375C38.6875 74.7138 39.2763 74.125 40 74.125C40.7237 74.125 41.3125 74.7138 41.3125 75.4375C41.3125 76.1612 40.7237 76.75 40 76.75ZM75.4375 41.3125C74.7138 41.3125 74.125 40.7237 74.125 40C74.125 39.2763 74.7138 38.6875 75.4375 38.6875C76.1612 38.6875 76.75 39.2763 76.75 40C76.75 40.7237 76.1612 41.3125 75.4375 41.3125Z" fill="#5AD7FF"/>
<path d="M40 76.75C40.7249 76.75 41.3125 76.1624 41.3125 75.4375C41.3125 74.7126 40.7249 74.125 40 74.125C39.2751 74.125 38.6875 74.7126 38.6875 75.4375C38.6875 76.1624 39.2751 76.75 40 76.75Z" fill="#2387C3"/>
<path d="M40 5.875C40.7249 5.875 41.3125 5.28737 41.3125 4.5625C41.3125 3.83763 40.7249 3.25 40 3.25C39.2751 3.25 38.6875 3.83763 38.6875 4.5625C38.6875 5.28737 39.2751 5.875 40 5.875Z" fill="#2387C3"/>
<path d="M64.3194 35.0126C62.9709 35.0126 61.7656 34.1783 61.2854 32.9183C61.1452 32.5505 60.9945 32.1879 60.8334 31.8308C60.277 30.5967 60.5349 29.1488 61.4921 28.1915L61.4934 28.1902C62.7621 26.9215 62.7621 24.8647 61.4934 23.596L59.0343 21.1368C58.4 20.5026 57.5685 20.1853 56.7372 20.1853H51.4761C50.6446 20.1853 49.8133 20.5024 49.179 21.1367L49.1777 21.138C49.1172 21.1985 49.0545 21.2563 48.9902 21.3112C47.7751 20.8113 46.9748 19.6304 46.9748 18.3109C46.9748 16.5167 45.5204 15.0623 43.7262 15.0623H35.6302C33.8361 15.0623 32.3816 16.5167 32.3816 18.3109C32.3816 19.6304 31.5815 20.8112 30.3663 21.3112C30.302 21.2563 30.2393 21.1987 30.1788 21.138L30.1775 21.1367C29.5432 20.5024 28.7117 20.1853 27.8804 20.1853H23.2624C22.4311 20.1853 21.5996 20.5024 20.9654 21.1368L18.5062 23.596C17.2375 24.8647 17.2375 26.9215 18.5062 28.1902L18.5075 28.1915C19.4648 29.1488 19.7227 30.5967 19.1662 31.8308C19.0053 32.1878 18.8545 32.5503 18.7143 32.9183C18.234 34.1783 17.0287 35.0126 15.6802 35.0126C13.8861 35.0126 12.4316 36.467 12.4316 38.2612V41.739C12.4316 43.5332 13.8861 44.9876 15.6802 44.9876C17.0287 44.9876 18.234 45.8218 18.7143 47.0818C18.8544 47.4497 19.0053 47.8122 19.1662 48.1694C19.7226 49.4035 19.4647 50.8513 18.5075 51.8086L18.5062 51.81C17.2375 53.0787 17.2375 55.1355 18.5062 56.4042L20.9654 58.8633C21.5996 59.4976 22.4311 59.8149 23.2624 59.8149H27.8804C28.7119 59.8149 29.5432 59.4978 30.1775 58.8635L30.1788 58.8622C30.2393 58.8016 30.302 58.7439 30.3663 58.6889C31.5813 59.1888 32.3816 60.3698 32.3816 61.6893C32.3816 63.4835 33.8361 64.9379 35.6302 64.9379H43.449C45.2432 64.9379 46.9748 63.4835 46.9748 61.6893C46.9748 60.3698 47.775 59.189 48.9902 58.6889C49.0545 58.7439 49.1172 58.8015 49.1777 58.8622L49.179 58.8635C49.8133 59.4978 50.6448 59.8149 51.4761 59.8149H56.737C57.5684 59.8149 58.3998 59.4978 59.0341 58.8633L61.4932 56.4042C62.7619 55.1355 62.7619 53.0787 61.4932 51.81L61.4919 51.8086C60.5346 50.8513 60.2767 49.4035 60.8332 48.1694C60.9941 47.8124 61.1449 47.4498 61.2852 47.0818C61.7654 45.8218 62.9708 44.9876 64.3192 44.9876C66.1134 44.9876 67.5678 43.5332 67.5678 41.739V38.2612C67.568 36.467 66.1135 35.0126 64.3194 35.0126Z" fill="#FAA019"/>
<path d="M62.3066 41.739V38.2612C62.3066 36.467 60.8522 35.0126 59.058 35.0126C57.7096 35.0126 56.5042 34.1783 56.024 32.9183C55.8839 32.5505 55.733 32.1879 55.572 31.8308C55.0157 30.5967 55.2736 29.1488 56.2308 28.1915L56.2321 28.1902C57.5008 26.9215 57.5008 24.8647 56.2321 23.596L53.7729 21.1368C52.5042 19.8681 50.4474 19.8681 49.1787 21.1368L49.1774 21.1381C48.2202 22.0953 46.7724 22.3532 45.5383 21.7969C45.1813 21.6359 44.8187 21.4851 44.4509 21.3449C43.1909 20.8647 42.3566 19.6593 42.3566 18.3109C42.3566 16.5167 40.9022 15.0623 39.108 15.0623H35.6302C33.8361 15.0623 32.3816 16.5167 32.3816 18.3109C32.3816 19.6593 31.5474 20.8647 30.2874 21.3449C29.9196 21.485 29.557 21.6359 29.2 21.7969C27.9659 22.3532 26.518 22.0953 25.5609 21.1381L25.5596 21.1368C24.2909 19.8681 22.234 19.8681 20.9654 21.1368L18.5062 23.596C17.2375 24.8647 17.2375 26.9215 18.5062 28.1902L18.5075 28.1915C19.4648 29.1488 19.7227 30.5967 19.1662 31.8308C19.0053 32.1878 18.8545 32.5503 18.7142 32.9183C18.234 34.1783 17.0287 35.0126 15.6802 35.0126C13.8861 35.0126 12.4316 36.467 12.4316 38.2612V41.739C12.4316 43.5332 13.8861 44.9876 15.6802 44.9876C17.0287 44.9876 18.234 45.8218 18.7142 47.0818C18.8544 47.4497 19.0053 47.8122 19.1662 48.1694C19.7226 49.4035 19.4647 50.8513 18.5075 51.8086L18.5062 51.81C17.2375 53.0787 17.2375 55.1355 18.5062 56.4042L20.9654 58.8633C22.234 60.132 24.2909 60.132 25.5596 58.8633L25.5609 58.862C26.5182 57.9049 27.9659 57.647 29.2 58.2033C29.557 58.3643 29.9196 58.515 30.2874 58.6553C31.5474 59.1355 32.3816 60.3409 32.3816 61.6893C32.3816 63.4835 33.8361 64.9379 35.6302 64.9379H39.108C40.9022 64.9379 42.3566 63.4835 42.3566 61.6893C42.3566 60.3409 43.1909 59.1355 44.4509 58.6553C44.8187 58.5152 45.1813 58.3643 45.5383 58.2033C46.7724 57.647 48.2202 57.9049 49.1774 58.862L49.1787 58.8633C50.4474 60.132 52.5042 60.132 53.7729 58.8633L56.2321 56.4042C57.5008 55.1355 57.5008 53.0787 56.2321 51.81L56.2308 51.8086C55.2734 50.8513 55.0155 49.4035 55.572 48.1694C55.733 47.8124 55.8838 47.4498 56.024 47.0818C56.5042 45.8218 57.7096 44.9876 59.058 44.9876C60.8522 44.9876 62.3066 43.5332 62.3066 41.739Z" fill="#FFCD05"/>
<path d="M37.3693 53.1308C44.6212 53.1308 50.4999 47.252 50.4999 40.0002C50.4999 32.7484 44.6212 26.8696 37.3693 26.8696C30.1175 26.8696 24.2388 32.7484 24.2388 40.0002C24.2388 47.252 30.1175 53.1308 37.3693 53.1308Z" fill="#555A6E"/>
<path d="M46.6498 49.2807C41.5326 54.3981 33.2059 54.3983 28.0883 49.2807C25.6093 46.8017 24.2441 43.5059 24.2441 40H25.9182C26.4434 40 26.8691 39.5743 26.8691 39.0491C26.8691 38.8161 26.7837 38.5914 26.629 38.4173L23.6598 35.077C23.4749 34.8689 23.2099 34.75 22.9316 34.75C22.6534 34.75 22.3883 34.8689 22.2035 35.077L19.2343 38.4173C19.0796 38.5914 18.9941 38.8161 18.9941 39.0491C18.9941 39.5743 19.4199 40 19.945 40H21.6191C21.6191 44.2071 23.2575 48.1621 26.2322 51.1369C29.3027 54.2073 33.336 55.7426 37.3691 55.7426C41.4023 55.7426 45.4356 54.2073 48.506 51.1369C49.0186 50.6244 49.0186 49.7932 48.506 49.2807C47.9935 48.7682 47.1625 48.7682 46.6498 49.2807Z" fill="#2387C3"/>
<path d="M54.7932 40H53.1191C53.1191 35.793 51.4809 31.8378 48.5061 28.8632C42.3649 22.7223 32.373 22.7225 26.2322 28.8632C25.7195 29.3757 25.7195 30.2068 26.2322 30.7194C26.7447 31.2319 27.5757 31.2319 28.0882 30.7194C33.2058 25.6018 41.5323 25.6019 46.6498 30.7194C49.1287 33.1982 50.4941 36.4942 50.4941 40H48.8201C48.295 40 47.8692 40.4258 47.8692 40.9509C47.8692 41.1839 47.9547 41.4087 48.1094 41.5828L51.0786 44.9231C51.2635 45.1311 51.5285 45.25 51.8067 45.25C52.085 45.25 52.3499 45.1311 52.5348 44.9231L55.504 41.5828C55.6588 41.4087 55.7442 41.1839 55.7442 40.9509C55.7441 40.4258 55.3183 40 54.7932 40Z" fill="#2387C3"/>
<path d="M44.6273 38.887L34.1273 32.3245C33.7228 32.0717 33.2129 32.0582 32.7954 32.2895C32.378 32.5209 32.1191 32.9604 32.1191 33.4375V46.5625C32.1191 47.0396 32.378 47.4791 32.7954 47.7104C32.9936 47.8203 33.2128 47.875 33.4315 47.875C33.6733 47.875 33.9148 47.8082 34.1273 47.6755L44.6273 41.113C45.011 40.8731 45.2441 40.4525 45.2441 40C45.2441 39.5475 45.011 39.1268 44.6273 38.887Z" fill="#5AD7FF"/>
</svg>
