<svg width="72" height="74" viewBox="0 0 72 74" fill="none" xmlns="http://www.w3.org/2000/svg">
<path d="M45.5 73.75V68.2572C45.5 66.7439 46.1536 65.3028 47.2929 64.3066L65.6036 48.2849C66.1732 47.7861 66.5 47.0656 66.5 46.3083V45.4092C66.5 43.1543 63.8435 41.9481 62.1464 43.4339L46.9844 56.7006C46.0276 57.538 44.7991 58 43.5273 58H40.25L35 63.25L29.75 58H26.4727C25.2009 58 23.9724 57.538 23.0156 56.7006L7.85356 43.4339C6.1565 41.9495 3.5 43.1543 3.5 45.4105V46.3096C3.5 47.0669 3.82681 47.7861 4.39644 48.2849L22.7071 64.3066C23.8464 65.3041 24.5 66.7439 24.5 68.2572V73.75H45.5Z" fill="#FA6450"/>
<path d="M29.75 58V52.2998H40.25V58L35 63.25L29.75 58Z" fill="#D2AA82"/>
<path d="M48.125 39.625H45.5V31.75C45.5 30.2997 44.3253 29.125 42.875 29.125H27.125C25.6747 29.125 24.5 30.2997 24.5 31.75V39.625H21.875C20.4247 39.625 19.25 40.7997 19.25 42.25V43.2528C19.25 44.2476 19.8118 45.1559 20.7016 45.6008L24.5 47.5V47.9502C24.5 49.3427 25.0526 50.6776 26.0383 51.6619L28.2131 53.8367C29.1974 54.8211 30.5336 55.375 31.9248 55.375H38.0752C39.4677 55.375 40.8026 54.8224 41.7869 53.8367L43.9617 51.6619C44.9461 50.6776 45.5 49.3414 45.5 47.9502V47.5L49.2984 45.6008C50.1883 45.1559 50.75 44.2463 50.75 43.2528V42.25C50.75 40.7997 49.5753 39.625 48.125 39.625Z" fill="#F0C8A0"/>
<path d="M48.125 42.25C45.2257 42.25 42.875 39.8993 42.875 37V29.125H45.5C46.9503 29.125 48.125 30.2997 48.125 31.75V42.25Z" fill="#DC9600"/>
<path d="M40.25 23.875H29.75C25.4004 23.875 21.875 27.4004 21.875 31.75V37C21.875 38.4503 23.0497 39.625 24.5 39.625H31.1006C35.2782 39.625 39.284 37.966 42.2371 35.0116L43.9617 33.2869C44.9461 32.3026 45.5 30.9664 45.5 29.5752V29.125C45.5 26.2257 43.1493 23.875 40.25 23.875Z" fill="#FAB400"/>
<path d="M32.375 42.9062H27.125C26.7627 42.9062 26.4688 42.6122 26.4688 42.25C26.4688 41.8877 26.7627 41.5938 27.125 41.5938H32.375C32.7372 41.5938 33.0312 41.8877 33.0312 42.25C33.0312 42.6122 32.7372 42.9062 32.375 42.9062Z" fill="#BE7800"/>
<path d="M34.9998 50.7813C34.1231 50.7813 33.2988 50.4401 32.6793 49.8206L31.9102 49.0527C31.6543 48.7968 31.6543 48.3808 31.9102 48.1248C32.1662 47.8689 32.5822 47.8689 32.8382 48.1248L33.6073 48.8926C34.3502 49.6355 35.6482 49.6355 36.3911 48.8926L37.1602 48.1248C37.4162 47.8689 37.8322 47.8689 38.0882 48.1248C38.3441 48.3808 38.3441 48.7968 38.0882 49.0527L37.319 49.8206C36.7008 50.4401 35.8766 50.7813 34.9998 50.7813Z" fill="#BE7800"/>
<path d="M31.0625 44.875C31.7874 44.875 32.375 44.2874 32.375 43.5625C32.375 42.8376 31.7874 42.25 31.0625 42.25C30.3376 42.25 29.75 42.8376 29.75 43.5625C29.75 44.2874 30.3376 44.875 31.0625 44.875Z" fill="#BE7800"/>
<path d="M42.875 42.9062H37.625C37.2627 42.9062 36.9688 42.6122 36.9688 42.25C36.9688 41.8877 37.2627 41.5938 37.625 41.5938H42.875C43.2372 41.5938 43.5312 41.8877 43.5312 42.25C43.5312 42.6122 43.2372 42.9062 42.875 42.9062Z" fill="#BE7800"/>
<path d="M38.9375 44.875C39.6624 44.875 40.25 44.2874 40.25 43.5625C40.25 42.8376 39.6624 42.25 38.9375 42.25C38.2126 42.25 37.625 42.8376 37.625 43.5625C37.625 44.2874 38.2126 44.875 38.9375 44.875Z" fill="#BE7800"/>
<path d="M14 48.8126L7.85356 43.434C6.1565 41.9496 3.5 43.1544 3.5 45.4106V46.3097C3.5 47.067 3.82681 47.7863 4.39644 48.285L14 56.6876V48.8126Z" fill="#F0C8A0"/>
<path d="M11.375 47.5H8.75V43.5625C8.75 42.838 9.338 42.25 10.0625 42.25C10.787 42.25 11.375 42.838 11.375 43.5625V47.5Z" fill="#F0C8A0"/>
<path d="M56 48.8126L62.1464 43.434C63.8435 41.9496 66.5 43.1544 66.5 45.4106V46.3097C66.5 47.067 66.1732 47.7863 65.6036 48.285L56 56.6876V48.8126Z" fill="#F0C8A0"/>
<path d="M58.625 47.5H61.25V43.5625C61.25 42.838 60.662 42.25 59.9375 42.25C59.213 42.25 58.625 42.838 58.625 43.5625V47.5Z" fill="#F0C8A0"/>
<path d="M50.75 18.625C50.75 15.7257 48.3993 13.375 45.5 13.375C42.6007 13.375 40.25 15.7257 40.25 18.625C40.25 15.7257 37.8993 13.375 35 13.375C32.1007 13.375 29.75 15.7257 29.75 18.625C29.75 15.7257 27.3993 13.375 24.5 13.375C21.6007 13.375 19.25 15.7257 19.25 18.625C19.25 20.5636 20.3118 22.237 21.875 23.1466V34.375H48.125V23.1466C49.6882 22.237 50.75 20.5636 50.75 18.625Z" fill="#F0F0F0"/>
<path d="M21.875 18.625C21.875 16.1811 23.5524 14.1454 25.8125 13.5601C25.3912 13.4511 24.9554 13.375 24.5 13.375C21.6007 13.375 19.25 15.7257 19.25 18.625C19.25 20.5636 20.3118 22.237 21.875 23.1466V34.375H24.5V23.1466C22.9368 22.237 21.875 20.5636 21.875 18.625Z" fill="#D2D2D2"/>
<path d="M42.875 65.875V58H40.25V65.875C40.25 67.3253 39.0753 68.5 37.625 68.5H32.375C30.9247 68.5 29.75 67.3253 29.75 65.875V58H27.125V65.875C27.125 67.3253 25.9503 68.5 24.5 68.5V73.75H45.5V68.5C44.0497 68.5 42.875 67.3253 42.875 65.875Z" fill="#F0F0F0"/>
<path d="M71.7502 10.7501C71.7502 4.25975 65.861 -0.855062 59.1357 0.456125C54.9804 1.26725 51.6611 4.65875 50.9208 8.82725C50.0204 13.904 52.7727 18.4597 56.9859 20.3339C57.9584 20.7671 58.6252 21.6832 58.6252 22.7463V26.5001H63.8752V22.745C63.8752 21.6819 64.5419 20.7671 65.5132 20.3352C69.1869 18.7012 71.7502 15.0301 71.7502 10.7501Z" fill="#FAB400"/>
<path d="M59.6109 20.334C55.3977 18.4611 52.6454 13.9054 53.5458 8.82736C54.2847 4.65886 57.6041 1.26736 61.7594 0.456234C62.0351 0.402421 62.3081 0.376171 62.5797 0.343359C61.4746 0.202921 60.3183 0.225234 59.1344 0.456234C54.9791 1.26605 51.6597 4.65886 50.9208 8.82736C50.0204 13.9041 52.7727 18.4598 56.9859 20.334C57.9584 20.7672 58.6252 21.6833 58.6252 22.7477V26.5002H61.2502V22.7477C61.2502 21.6833 60.5834 20.7672 59.6109 20.334Z" fill="#DC9600"/>
<path d="M63.875 26.5H58.625V29.125C58.625 30.5753 59.7997 31.75 61.25 31.75C62.7003 31.75 63.875 30.5753 63.875 29.125V26.5Z" fill="#F0F0F0"/>
<path d="M61.25 29.125V26.5H58.625V29.125C58.625 30.5753 59.7997 31.75 61.25 31.75C61.7304 31.75 62.1753 31.6109 62.5625 31.3864C61.7816 30.931 61.25 30.0936 61.25 29.125Z" fill="#D2D2D2"/>
<path d="M63.875 23.875H58.625V26.5H63.875V23.875Z" fill="#505050"/>
<path d="M61.25 23.875H58.625V26.5H61.25V23.875Z" fill="#3C3C3C"/>
<path d="M66.5 11.8V9.7H65.3122C65.2124 9.31544 65.0615 8.95319 64.8646 8.61981L65.7046 7.77981L64.2202 6.29537L63.3802 7.13538C63.0468 6.9385 62.6846 6.78756 62.3 6.68781V5.5H60.2V6.68781C59.8154 6.78756 59.4532 6.9385 59.1198 7.13538L58.2798 6.29537L56.7954 7.77981L57.6354 8.61981C57.4385 8.95319 57.2876 9.31544 57.1878 9.7H56V11.8H57.1878C57.2876 12.1846 57.4385 12.5468 57.6354 12.8802L56.7954 13.7202L58.2798 15.2046L59.1198 14.3646C59.4532 14.5615 59.8154 14.7124 60.2 14.8122V16H62.3V14.8122C62.6846 14.7124 63.0468 14.5615 63.3802 14.3646L64.2202 15.2046L65.7046 13.7202L64.8646 12.8802C65.0615 12.5468 65.2124 12.1846 65.3122 11.8H66.5ZM61.25 12.85C60.0924 12.85 59.15 11.9076 59.15 10.75C59.15 9.59237 60.0924 8.65 61.25 8.65C62.4076 8.65 63.35 9.59237 63.35 10.75C63.35 11.9076 62.4076 12.85 61.25 12.85Z" fill="#F0F0F0"/>
<path d="M0.875 21.25V31.75C0.875 33.2003 2.04969 34.375 3.5 34.375H6.125V54.0625C6.125 54.787 6.713 55.375 7.4375 55.375C8.162 55.375 8.75 54.787 8.75 54.0625V34.375H11.375C12.8253 34.375 14 33.2003 14 31.75V21.25H0.875ZM3.5 31.75V23.875H6.125V31.75H3.5ZM11.375 31.75H8.75V23.875H11.375V31.75Z" fill="#505050"/>
<path d="M29.75 29.7812C29.3877 29.7812 29.0938 29.4872 29.0938 29.125V23.875C29.0938 23.5127 29.3877 23.2188 29.75 23.2188C30.1122 23.2188 30.4062 23.5127 30.4062 23.875V29.125C30.4062 29.4872 30.1122 29.7812 29.75 29.7812Z" fill="#D2D2D2"/>
<path d="M35 29.7812C34.6377 29.7812 34.3438 29.4872 34.3438 29.125V23.875C34.3438 23.5127 34.6377 23.2188 35 23.2188C35.3622 23.2188 35.6562 23.5127 35.6562 23.875V29.125C35.6562 29.4872 35.3622 29.7812 35 29.7812Z" fill="#D2D2D2"/>
<path d="M40.25 29.7812C39.8877 29.7812 39.5938 29.4872 39.5938 29.125V23.875C39.5938 23.5127 39.8877 23.2188 40.25 23.2188C40.6122 23.2188 40.9062 23.5127 40.9062 23.875V29.125C40.9062 29.4872 40.6122 29.7812 40.25 29.7812Z" fill="#D2D2D2"/>
</svg>
