<svg width="72" height="72" viewBox="0 0 72 72" fill="none" xmlns="http://www.w3.org/2000/svg">
<path d="M71.4375 55.6875H0.5625V21.5625C0.5625 18.663 2.91302 16.3125 5.8125 16.3125H66.1875C69.087 16.3125 71.4375 18.663 71.4375 21.5625V55.6875Z" fill="#463C4B"/>
<path d="M66.1875 55.6875H0.5625V21.5625C0.5625 18.663 2.91302 16.3125 5.8125 16.3125H60.9375C63.837 16.3125 66.1875 18.663 66.1875 21.5625V55.6875Z" fill="#555A6E"/>
<path d="M5.8125 62.25H66.1875C69.087 62.25 71.4375 59.8995 71.4375 57V55.6875H0.5625V57C0.5625 59.8995 2.91302 62.25 5.8125 62.25Z" fill="#A5C3DC"/>
<path d="M60.9375 62.25H5.8125C2.91302 62.25 0.5625 59.8995 0.5625 57V55.6875H66.1875V57C66.1875 59.8995 63.837 62.25 60.9375 62.25Z" fill="#D7E6F0"/>
<path d="M39.9375 62.25H28.125V67.5H39.9375V62.25Z" fill="#A5C3DC"/>
<path d="M36 64.875H28.125V67.5H36V64.875Z" fill="#D7E6F0"/>
<path d="M46.5 71.4375H20.25V70.125C20.25 68.6752 21.4252 67.5 22.875 67.5H43.875C45.3248 67.5 46.5 68.6752 46.5 70.125V71.4375Z" fill="#D7E6F0"/>
<path d="M46.5 71.4375H38.625V70.125C38.625 68.6752 39.8002 67.5 41.25 67.5H43.875C45.3248 67.5 46.5 68.6752 46.5 70.125V71.4375Z" fill="#A5C3DC"/>
<path d="M8.4375 5.8125V45.1875C8.4375 46.6373 9.61284 47.8125 11.0625 47.8125H55.6875C57.1372 47.8125 58.3125 46.6373 58.3125 45.1875V5.8125H8.4375Z" fill="#5AD7FF"/>
<path d="M58.3125 5.8125H8.4375V3.1875C8.4375 1.73768 9.61268 0.5625 11.0625 0.5625H55.6875C57.1373 0.5625 58.3125 1.73768 58.3125 3.1875V5.8125Z" fill="#555A6E"/>
<path d="M13.6875 4.5C14.4124 4.5 15 3.91237 15 3.1875C15 2.46263 14.4124 1.875 13.6875 1.875C12.9626 1.875 12.375 2.46263 12.375 3.1875C12.375 3.91237 12.9626 4.5 13.6875 4.5Z" fill="#2387C3"/>
<path d="M18.9375 4.5C19.6624 4.5 20.25 3.91237 20.25 3.1875C20.25 2.46263 19.6624 1.875 18.9375 1.875C18.2126 1.875 17.625 2.46263 17.625 3.1875C17.625 3.91237 18.2126 4.5 18.9375 4.5Z" fill="#FFCD05"/>
<path d="M24.1875 4.5C24.9124 4.5 25.5 3.91237 25.5 3.1875C25.5 2.46263 24.9124 1.875 24.1875 1.875C23.4626 1.875 22.875 2.46263 22.875 3.1875C22.875 3.91237 23.4626 4.5 24.1875 4.5Z" fill="#D7E6F0"/>
<path d="M24.1875 34.6875C23.8515 34.6875 23.5157 34.5593 23.2594 34.3031L16.6969 27.7406C16.1844 27.228 16.1844 26.3971 16.6969 25.8845L23.2594 19.322C23.7721 18.8093 24.6029 18.8093 25.1156 19.322C25.6281 19.8346 25.6281 20.6655 25.1156 21.1781L19.481 26.8125L25.1156 32.4469C25.6281 32.9594 25.6281 33.7904 25.1156 34.3029C24.8593 34.5593 24.5235 34.6875 24.1875 34.6875Z" fill="#555A6E"/>
<path d="M42.5625 34.6875C42.2265 34.6875 41.8907 34.5593 41.6344 34.3031C41.1219 33.7905 41.1219 32.9596 41.6344 32.447L47.269 26.8125L41.6344 21.1781C41.1219 20.6655 41.1219 19.8346 41.6344 19.322C42.1471 18.8093 42.9779 18.8093 43.4906 19.322L50.0531 25.8845C50.5656 26.3971 50.5656 27.228 50.0531 27.7406L43.4906 34.3031C43.2343 34.5593 42.8985 34.6875 42.5625 34.6875Z" fill="#555A6E"/>
<path d="M30.7494 34.6878C30.5873 34.6878 30.4223 34.6574 30.2625 34.5936C29.5893 34.3244 29.262 33.5605 29.5312 32.8875L34.7812 19.7625C35.0505 19.0897 35.8144 18.7619 36.4872 19.0313C37.1603 19.3005 37.4876 20.0644 37.2184 20.7374L31.9684 33.8624C31.7633 34.3755 31.2703 34.6878 30.7494 34.6878Z" fill="#555A6E"/>
</svg>
