<svg width="80" height="80" viewBox="0 0 80 80" fill="none" xmlns="http://www.w3.org/2000/svg">
<path d="M39.9999 79.178C61.6374 79.178 79.178 61.6374 79.178 39.9999C79.178 18.3624 61.6374 0.821777 39.9999 0.821777C18.3624 0.821777 0.821777 18.3624 0.821777 39.9999C0.821777 61.6374 18.3624 79.178 39.9999 79.178Z" fill="#382B73"/>
<path d="M40 73.895C58.7197 73.895 73.895 58.7197 73.895 40C73.895 21.2803 58.7197 6.10498 40 6.10498C21.2803 6.10498 6.10498 21.2803 6.10498 40C6.10498 58.7197 21.2803 73.895 40 73.895Z" fill="#473080"/>
<path d="M59.3293 55.8161H46.5476C47.0808 55.5362 47.5985 55.231 48.0947 54.896C49.186 54.1587 50.1825 53.2915 51.0632 52.3179C51.0642 52.3179 51.0648 52.3183 51.0658 52.3183H55.2222C59.1876 52.3183 62.4137 49.0921 62.4137 45.1267C62.4137 41.1742 59.2083 37.9572 55.2609 37.9362V37.4808V37.4814V36.1611C55.2609 35.5219 54.7428 35.0034 54.1033 35.0034H49.293H34.1352V34.6661C34.1352 34.0243 33.6148 33.5039 32.973 33.5039C32.3312 33.5039 31.8108 34.0243 31.8108 34.6661V35.0034H28.7218H23.9115C23.2723 35.0034 22.7539 35.5215 22.7539 36.1611V37.4805V41.418C22.7539 42.5398 22.8678 43.6354 23.084 44.6936C23.2464 45.487 23.4666 46.2598 23.7399 47.0066C23.8311 47.2553 23.9279 47.5014 24.031 47.7445C24.7505 49.4459 25.7516 50.9992 26.9759 52.3465C27.3257 52.7314 27.6938 53.0992 28.0784 53.449C29.0972 54.375 30.2365 55.17 31.4663 55.8158H18.6851C18.0784 55.8158 17.5869 56.3076 17.5869 56.914C17.5869 57.4058 17.9141 57.8377 18.3872 57.9712L25.6421 60.0158C25.875 60.0814 26.109 60.1424 26.3436 60.1995C26.3442 60.1995 26.3446 60.1998 26.3452 60.1998C26.7088 60.2884 27.0743 60.3645 27.4408 60.4328C27.4786 60.4397 27.5163 60.4479 27.554 60.4545C27.9038 60.5171 28.2546 60.5693 28.6067 60.6136C28.6657 60.6208 28.7248 60.628 28.7839 60.6349C29.1313 60.6753 29.4795 60.7074 29.8286 60.7294C29.8811 60.7327 29.9333 60.7347 29.9858 60.7376C30.3493 60.7576 30.7136 60.7704 31.0781 60.7704H46.9364C46.9439 60.7704 46.9515 60.7701 46.9594 60.7701C47.168 60.7698 47.3767 60.7662 47.5854 60.7593C47.6684 60.7567 47.7511 60.7514 47.8338 60.7478C47.966 60.7419 48.0979 60.736 48.2298 60.7271C48.3326 60.7206 48.4353 60.7114 48.538 60.7032C48.6482 60.6943 48.7585 60.6855 48.8687 60.6746C48.9832 60.6635 49.0977 60.6503 49.2119 60.6372C49.3081 60.6261 49.4045 60.6146 49.5007 60.6021C49.6247 60.586 49.7484 60.5686 49.8724 60.5503C49.9564 60.5378 50.0401 60.5243 50.1241 60.5109C50.2577 60.4892 50.3909 60.4669 50.5238 60.4423C50.594 60.4295 50.6636 60.4157 50.7334 60.4023C50.8781 60.3741 51.0225 60.3455 51.1666 60.3143C51.2171 60.3035 51.2676 60.291 51.3185 60.2799C51.4796 60.2438 51.6407 60.207 51.8012 60.1667H51.8018C51.9925 60.1188 52.1831 60.0696 52.3728 60.0161L59.6276 57.9715C60.1011 57.8383 60.4279 57.4062 60.4279 56.9143C60.4279 56.3079 59.936 55.8161 59.3293 55.8161ZM52.6366 50.2691C52.8098 50.003 52.9749 49.7317 53.1327 49.455C53.6738 48.5061 54.1223 47.4988 54.4655 46.4425C54.5098 46.3067 54.5518 46.1699 54.5925 46.0327C55.025 44.5696 55.2609 43.0218 55.2609 41.4186V39.9063C58.1228 39.9273 60.445 42.2603 60.445 45.1271C60.445 48.0067 58.1021 50.3498 55.2222 50.3498H52.5854C52.6024 50.3229 52.6192 50.2957 52.6366 50.2691Z" fill="#382B73"/>
<path d="M37.9682 32.6384C37.3513 31.2475 37.2024 29.9553 37.3969 28.7941C37.5922 27.6335 38.1241 26.6413 38.8906 25.8718C40.1499 24.6341 40.7937 22.7976 40.588 21.1051C40.4052 19.4133 39.3772 17.8767 37.9685 17.2605C38.5831 18.654 38.7298 19.9446 38.5365 21.1051C38.3413 22.2651 37.81 23.2557 37.0462 24.0274C35.7895 25.2674 35.1463 27.1026 35.3524 28.7941C35.5361 30.4849 36.5622 32.0196 37.9682 32.6384Z" fill="#382B73"/>
<path d="M43.1523 32.6384C42.6873 31.59 42.5754 30.6164 42.7218 29.7413C42.8691 28.8669 43.2697 28.1191 43.8472 27.5393C44.7965 26.6068 45.2815 25.2227 45.1263 23.9473C44.9885 22.6722 44.2138 21.5146 43.1523 21.0503C43.6153 22.1003 43.7262 23.0729 43.5802 23.9473C43.4328 24.8214 43.0328 25.5679 42.4573 26.1494C41.5103 27.0839 41.0257 28.4666 41.1809 29.7413C41.3194 31.0154 42.0928 32.1721 43.1523 32.6384Z" fill="#382B73"/>
<path d="M55.2599 35.6394V37.6091C58.1218 37.6301 60.4439 39.9631 60.4439 42.8299C60.4439 45.7096 58.1011 48.0527 55.2212 48.0527H52.5843C52.1266 48.7473 51.6187 49.4062 51.0625 50.0211C51.0635 50.0211 51.0641 50.0215 51.0651 50.0215H55.2215C59.1869 50.0215 62.413 46.7953 62.413 42.8299C62.413 38.8777 59.2075 35.6604 55.2599 35.6394Z" fill="#1CAEE4"/>
<path d="M39.0068 55.3751C30.0302 55.3751 22.7534 48.0983 22.7534 39.1218V33.8649C22.7534 33.2257 23.2715 32.7073 23.911 32.7073H54.1028C54.742 32.7073 55.2604 33.2254 55.2604 33.8649V39.1218C55.2601 48.098 47.9833 55.3751 39.0068 55.3751Z" fill="#009ADD"/>
<path d="M55.26 36.6252V37.6096C58.122 37.6306 60.4441 39.9636 60.4441 42.8304C60.4441 45.71 58.1013 48.0532 55.2213 48.0532H52.5845C52.3621 48.3905 52.1274 48.7183 51.8813 49.0376H55.2217C58.6496 49.0376 61.4288 46.2587 61.4288 42.8304C61.4285 39.4153 58.6703 36.6462 55.26 36.6252Z" fill="#009ADD"/>
<path d="M39.0068 55.3752C32.8906 55.3752 27.9326 50.4172 27.9326 44.301V33.4958C27.9326 33.0604 28.2857 32.707 28.7214 32.707H49.2926C49.728 32.707 50.0814 33.0601 50.0814 33.4958V44.301C50.0811 50.4169 45.1231 55.3752 39.0068 55.3752Z" fill="#1CAEE4"/>
<path d="M39.0068 51.4377C30.0302 51.4377 22.7534 44.1608 22.7534 35.1843V39.1218C22.7534 48.0983 30.0302 55.3752 39.0068 55.3752C47.9833 55.3752 55.2601 48.0983 55.2601 39.1218V35.1843C55.2601 44.1605 47.9833 51.4377 39.0068 51.4377Z" fill="#009ADD"/>
<path d="M60.4276 54.6175C60.4276 55.1094 60.1004 55.5412 59.6273 55.6747L52.3724 57.7193C50.5943 58.2203 48.7686 58.4736 46.9364 58.4736H31.0781C29.2459 58.4736 27.4202 58.2203 25.6421 57.7193L18.3872 55.6747C17.9137 55.5412 17.5869 55.1094 17.5869 54.6175C17.5869 54.0108 18.0788 53.5193 18.6851 53.5193H59.3297C59.9357 53.5193 60.4276 54.0111 60.4276 54.6175Z" fill="#1CAEE4"/>
<path d="M26.3433 57.903C27.8986 58.282 29.4857 58.4739 31.0778 58.4739H46.9361C48.5731 58.4739 50.2042 58.2705 51.8012 57.8698C50.8204 56.8566 49.4715 56.2732 48.051 56.2732H30.1246C28.6887 56.2732 27.3263 56.8694 26.3433 57.903Z" fill="#009ADD"/>
<path d="M37.968 30.3416C36.562 29.7231 35.5356 28.1881 35.3519 26.497C35.1458 24.8052 35.789 22.9703 37.0457 21.7303C37.8096 20.9582 38.3405 19.9679 38.5357 18.808C38.7293 17.6474 38.5823 16.3569 37.9677 14.9634C39.3764 15.5796 40.4044 17.1162 40.5871 18.808C40.7932 20.5005 40.1494 22.337 38.8897 23.5747C38.1232 24.3441 37.5914 25.3364 37.3961 26.497C37.2022 27.6585 37.3512 28.9507 37.968 30.3416Z" fill="white"/>
<path d="M37.9682 22.6527C35.8433 24.7776 35.8433 28.2167 37.9682 30.3416C37.351 28.9504 37.2024 27.6585 37.3966 26.497C37.5919 25.3364 38.1237 24.3441 38.8902 23.5747C40.1496 22.337 40.7934 20.5005 40.5876 18.808C40.4049 17.1162 39.3769 15.5796 37.9682 14.9634C40.0935 17.0886 40.0935 20.5274 37.9682 22.6527Z" fill="#D1D3D4"/>
<path d="M43.1518 30.3417C42.0923 29.8755 41.3189 28.7188 41.1804 27.4447C41.0252 26.1699 41.5099 24.7872 42.4568 23.8527C43.0324 23.271 43.4327 22.5245 43.5797 21.6507C43.7254 20.7762 43.6148 19.8037 43.1518 18.7537C44.2133 19.218 44.988 20.3759 45.1258 21.6507C45.281 22.9261 44.796 24.3101 43.8468 25.2427C43.2693 25.8225 42.8683 26.5703 42.7213 27.4447C42.5746 28.3198 42.6868 29.2934 43.1518 30.3417Z" fill="white"/>
<path d="M43.1516 24.5476C41.5504 26.1489 41.5504 28.7404 43.1516 30.342C42.6867 29.2936 42.5744 28.3201 42.7208 27.445C42.8681 26.5705 43.2688 25.8227 43.8463 25.2429C44.7952 24.3104 45.2805 22.9263 45.1253 21.6509C44.9875 20.3758 44.2128 19.2182 43.1513 18.7539C44.7529 20.3545 44.7529 22.946 43.1516 24.5476Z" fill="#D1D3D4"/>
</svg>
