<svg width="74" height="70" viewBox="0 0 74 70" fill="none" xmlns="http://www.w3.org/2000/svg">
<path d="M39.625 69.125C58.4717 69.125 73.75 53.8467 73.75 35C73.75 16.1533 58.4717 0.875 39.625 0.875C20.7783 0.875 5.5 16.1533 5.5 35C5.5 53.8467 20.7783 69.125 39.625 69.125Z" fill="#C80A50"/>
<path d="M39.625 33.6875H21.25C21.25 33.3777 21.1424 33.0929 20.9626 32.8685L15.7126 26.306C15.4724 26.0054 15.1023 25.8125 14.6875 25.8125H6.75213C5.93706 28.7354 5.5 31.8172 5.5 35C5.5 39.1528 6.24156 43.1322 7.6 46.8125H14.6875C15.1023 46.8125 15.4724 46.6196 15.7126 46.319L20.9626 39.7565C21.1424 39.5321 21.25 39.2472 21.25 38.9375H39.625C41.0753 38.9375 42.25 37.7628 42.25 36.3125C42.25 34.8622 41.0753 33.6875 39.625 33.6875Z" fill="#A00028"/>
<path d="M39.625 8.75C25.1271 8.75 13.375 20.5021 13.375 35C13.375 49.4979 25.1271 61.25 39.625 61.25C54.1229 61.25 65.875 49.4979 65.875 35C65.875 20.5021 54.1229 8.75 39.625 8.75ZM39.625 53.375C29.4767 53.375 21.25 45.1483 21.25 35C21.25 24.8517 29.4767 16.625 39.625 16.625C49.7733 16.625 58 24.8517 58 35C58 45.1483 49.7733 53.375 39.625 53.375Z" fill="#F0F0F0"/>
<path d="M39.625 45.5C45.424 45.5 50.125 40.799 50.125 35C50.125 29.201 45.424 24.5 39.625 24.5C33.826 24.5 29.125 29.201 29.125 35C29.125 40.799 33.826 45.5 39.625 45.5Z" fill="#F0F0F0"/>
<path d="M39.625 38.9375C41.7996 38.9375 43.5625 37.1746 43.5625 35C43.5625 32.8254 41.7996 31.0625 39.625 31.0625C37.4504 31.0625 35.6875 32.8254 35.6875 35C35.6875 37.1746 37.4504 38.9375 39.625 38.9375Z" fill="#D2D2D2"/>
<path d="M21.6726 38.9375C21.3957 37.6696 21.25 36.3519 21.25 35C21.25 34.559 21.2657 34.1206 21.2959 33.6875H13.4065C13.3855 34.1219 13.375 34.5603 13.375 35C13.375 38.9847 14.2636 42.7621 15.8517 46.1458L20.9626 39.7565C21.1424 39.5321 21.25 39.2473 21.25 38.9375H21.6726Z" fill="#D2D2D2"/>
<path d="M42.25 36.3125C42.25 34.8622 41.0753 33.6875 39.625 33.6875H29.2064C29.1526 34.118 29.125 34.5551 29.125 35C29.125 36.3926 29.3967 37.7208 29.8889 38.9375H39.625C41.0753 38.9375 42.25 37.7628 42.25 36.3125Z" fill="#D2D2D2"/>
<path d="M39.625 37.625H5.5C4.04969 37.625 2.875 36.4503 2.875 35C2.875 33.5497 4.04969 32.375 5.5 32.375H39.625C41.0753 32.375 42.25 33.5497 42.25 35C42.25 36.4503 41.0753 37.625 39.625 37.625Z" fill="#FAB400"/>
<path d="M5.13119 32.375H21.25C21.25 32.0652 21.1424 31.7804 20.9626 31.556L15.7126 24.9935C15.4724 24.6929 15.1023 24.5 14.6875 24.5H1.5625C0.838 24.5 0.25 25.088 0.25 25.8125C0.25 26.1222 0.357625 26.4071 0.537437 26.6315L5.13119 32.375Z" fill="#00A0C8"/>
<path d="M5.13119 37.625H21.25C21.25 37.9347 21.1424 38.2196 20.9626 38.444L15.7126 45.0065C15.4724 45.3071 15.1023 45.5 14.6875 45.5H1.5625C0.838 45.5 0.25 44.912 0.25 44.1875C0.25 43.8777 0.357625 43.5929 0.537437 43.3685L5.13119 37.625Z" fill="#00A0C8"/>
<path d="M5.1312 37.625L4.30957 38.6514C4.66788 38.8338 5.07082 38.9375 5.50001 38.9375H20.5688L20.9639 38.444C21.1424 38.2196 21.25 37.9347 21.25 37.625H5.1312Z" fill="#0082AA"/>
</svg>
