<svg width="72" height="80" viewBox="0 0 72 80" fill="none" xmlns="http://www.w3.org/2000/svg">
<path d="M68.8125 79.375H24.1875C22.7377 79.375 21.5625 78.1998 21.5625 76.75V3.25C21.5625 1.80018 22.7377 0.625 24.1875 0.625H68.8125C70.2623 0.625 71.4375 1.80018 71.4375 3.25V76.75C71.4375 78.1998 70.2623 79.375 68.8125 79.375Z" fill="#D7E6F0"/>
<path d="M34.6875 55.75H32.0625C30.6127 55.75 29.4375 54.5748 29.4375 53.125C29.4375 51.6752 30.6127 50.5 32.0625 50.5H34.6875C36.1373 50.5 37.3125 51.6752 37.3125 53.125C37.3125 54.5748 36.1373 55.75 34.6875 55.75Z" fill="#A5C3DC"/>
<path d="M63.5625 55.75H45.1875C43.7377 55.75 42.5625 54.5748 42.5625 53.125C42.5625 51.6752 43.7377 50.5 45.1875 50.5H63.5625C65.0123 50.5 66.1875 51.6752 66.1875 53.125C66.1875 54.5748 65.0123 55.75 63.5625 55.75Z" fill="#A5C3DC"/>
<path d="M34.6875 64.9375H32.0625C30.6127 64.9375 29.4375 63.7623 29.4375 62.3125C29.4375 60.8627 30.6127 59.6875 32.0625 59.6875H34.6875C36.1373 59.6875 37.3125 60.8627 37.3125 62.3125C37.3125 63.7623 36.1373 64.9375 34.6875 64.9375Z" fill="#A5C3DC"/>
<path d="M47.8125 64.9375H45.1875C43.7377 64.9375 42.5625 63.7623 42.5625 62.3125C42.5625 60.8627 43.7377 59.6875 45.1875 59.6875H47.8125C49.2623 59.6875 50.4375 60.8627 50.4375 62.3125C50.4375 63.7623 49.2623 64.9375 47.8125 64.9375Z" fill="#A5C3DC"/>
<path d="M34.6875 74.125H32.0625C30.6127 74.125 29.4375 72.9498 29.4375 71.5C29.4375 70.0502 30.6127 68.875 32.0625 68.875H34.6875C36.1373 68.875 37.3125 70.0502 37.3125 71.5C37.3125 72.9498 36.1373 74.125 34.6875 74.125Z" fill="#A5C3DC"/>
<path d="M55.6875 74.125H45.1875C43.7377 74.125 42.5625 72.9498 42.5625 71.5C42.5625 70.0502 43.7377 68.875 45.1875 68.875H55.6875C57.1373 68.875 58.3125 70.0502 58.3125 71.5C58.3125 72.9498 57.1373 74.125 55.6875 74.125Z" fill="#A5C3DC"/>
<path d="M46.5 45.25C55.9234 45.25 63.5625 37.6109 63.5625 28.1875C63.5625 18.7641 55.9234 11.125 46.5 11.125C37.0766 11.125 29.4375 18.7641 29.4375 28.1875C29.4375 37.6109 37.0766 45.25 46.5 45.25Z" fill="#289BC3"/>
<path d="M50.4375 28.1875H42.5625C38.9382 28.1875 36 31.1257 36 34.75V41.637C38.8954 43.9006 42.54 45.25 46.5 45.25C50.46 45.25 54.1046 43.9006 57 41.637V34.75C57 31.1257 54.0618 28.1875 50.4375 28.1875Z" fill="#00D2D2"/>
<path d="M46.5 34.75C44.3254 34.75 42.5625 32.9871 42.5625 30.8125V28.1875H50.4375V30.8125C50.4375 32.9871 48.6746 34.75 46.5 34.75Z" fill="#D7E6F0"/>
<path d="M46.5 26.875C50.1244 26.875 53.0625 23.9369 53.0625 20.3125C53.0625 16.6881 50.1244 13.75 46.5 13.75C42.8756 13.75 39.9375 16.6881 39.9375 20.3125C39.9375 23.9369 42.8756 26.875 46.5 26.875Z" fill="#FAB991"/>
<path d="M71.4375 5.875H21.5625V3.25C21.5625 1.80018 22.7377 0.625 24.1875 0.625H68.8125C70.2623 0.625 71.4375 1.80018 71.4375 3.25V5.875Z" fill="#555A6E"/>
<path d="M26.8125 4.5625C27.5374 4.5625 28.125 3.97487 28.125 3.25C28.125 2.52513 27.5374 1.9375 26.8125 1.9375C26.0876 1.9375 25.5 2.52513 25.5 3.25C25.5 3.97487 26.0876 4.5625 26.8125 4.5625Z" fill="#289BC3"/>
<path d="M32.0625 4.5625C32.7874 4.5625 33.375 3.97487 33.375 3.25C33.375 2.52513 32.7874 1.9375 32.0625 1.9375C31.3376 1.9375 30.75 2.52513 30.75 3.25C30.75 3.97487 31.3376 4.5625 32.0625 4.5625Z" fill="#FF6E91"/>
<path d="M37.3125 4.5625C38.0374 4.5625 38.625 3.97487 38.625 3.25C38.625 2.52513 38.0374 1.9375 37.3125 1.9375C36.5876 1.9375 36 2.52513 36 3.25C36 3.97487 36.5876 4.5625 37.3125 4.5625Z" fill="#D7E6F0"/>
<path d="M21.5625 74.125C23.0122 74.125 24.1875 72.9497 24.1875 71.5C24.1875 70.0503 23.0122 68.875 21.5625 68.875C20.1128 68.875 18.9375 70.0503 18.9375 71.5C18.9375 72.9497 20.1128 74.125 21.5625 74.125Z" fill="#D7E6F0"/>
<path d="M21.5625 68.875V74.125C23.0123 74.125 24.1875 72.9498 24.1875 71.5C24.1875 70.0502 23.0123 68.875 21.5625 68.875Z" fill="#A5C3DC"/>
<path d="M24.1875 53.125H18.9375C8.78925 53.125 0.5625 44.8983 0.5625 34.75C0.5625 24.6018 8.78925 16.375 18.9375 16.375H24.1875C34.3358 16.375 42.5625 24.6018 42.5625 34.75C42.5625 44.8983 34.3358 53.125 24.1875 53.125Z" fill="#289BC3"/>
<path d="M18.9375 53.125C29.0857 53.125 37.3125 44.8982 37.3125 34.75C37.3125 24.6018 29.0857 16.375 18.9375 16.375C8.78927 16.375 0.5625 24.6018 0.5625 34.75C0.5625 44.8982 8.78927 53.125 18.9375 53.125Z" fill="#00D2D2"/>
<path d="M18.9374 47.4374C25.9445 47.4374 31.6249 41.757 31.6249 34.7499C31.6249 27.7429 25.9445 22.0625 18.9374 22.0625C11.9304 22.0625 6.25 27.7429 6.25 34.7499C6.25 41.757 11.9304 47.4374 18.9374 47.4374Z" fill="#D7E6F0"/>
<path d="M13.6875 32.125C15.1372 32.125 16.3125 30.9497 16.3125 29.5C16.3125 28.0503 15.1372 26.875 13.6875 26.875C12.2378 26.875 11.0625 28.0503 11.0625 29.5C11.0625 30.9497 12.2378 32.125 13.6875 32.125Z" fill="white"/>
<path d="M24.1875 53.125H18.9375V55.75H24.1875V53.125Z" fill="#D7E6F0"/>
<path d="M18.9375 53.125V54.4375H20.25C20.9748 54.4375 21.5625 55.0252 21.5625 55.75H24.1875V53.125H18.9375Z" fill="#A5C3DC"/>
<path d="M24.1875 71.5H18.9375C18.2127 71.5 17.625 70.9123 17.625 70.1875V57.0625C17.625 56.3377 18.2127 55.75 18.9375 55.75H24.1875C24.9123 55.75 25.5 56.3377 25.5 57.0625V70.1875C25.5 70.9123 24.9123 71.5 24.1875 71.5Z" fill="#00D2D2"/>
<path d="M24.1875 71.5H21.5625V55.75H24.1875C24.9123 55.75 25.5 56.3377 25.5 57.0625V70.1875C25.5 70.9123 24.9123 71.5 24.1875 71.5Z" fill="#289BC3"/>
</svg>
